%TF.GenerationSoftware,KiCad,Pcbnew,4.0.7*%
%TF.CreationDate,2018-02-09T12:23:56+01:00*%
%TF.ProjectId,Metronome,4D6574726F6E6F6D652E6B696361645F,1.0*%
%TF.FileFunction,Legend,Top*%
%FSLAX46Y46*%
G04 Gerber Fmt 4.6, Leading zero omitted, Abs format (unit mm)*
G04 Created by KiCad (PCBNEW 4.0.7) date 02/09/18 12:23:56*
%MOMM*%
%LPD*%
G01*
G04 APERTURE LIST*
%ADD10C,0.127000*%
%ADD11C,0.150000*%
%ADD12C,0.120000*%
G04 APERTURE END LIST*
D10*
D11*
X130401400Y-102137200D02*
X130401400Y-112137200D01*
D12*
X156238900Y-91706700D02*
X156238900Y-101926700D01*
X156238900Y-101926700D02*
X158898900Y-101926700D01*
X158898900Y-101926700D02*
X158898900Y-91706700D01*
X158898900Y-91706700D02*
X156238900Y-91706700D01*
X156238900Y-90436700D02*
X156238900Y-89106700D01*
X156238900Y-89106700D02*
X157568900Y-89106700D01*
D11*
X137332900Y-87861700D02*
X137332900Y-87911700D01*
X141482900Y-87861700D02*
X141482900Y-88006700D01*
X141482900Y-93011700D02*
X141482900Y-92866700D01*
X137332900Y-93011700D02*
X137332900Y-92866700D01*
X137332900Y-87861700D02*
X141482900Y-87861700D01*
X137332900Y-93011700D02*
X141482900Y-93011700D01*
X137332900Y-87911700D02*
X135932900Y-87911700D01*
D12*
X145415900Y-89555700D02*
X145415900Y-90555700D01*
X147115900Y-90555700D02*
X147115900Y-89555700D01*
X153465900Y-107847700D02*
X153465900Y-106847700D01*
X151765900Y-106847700D02*
X151765900Y-107847700D01*
X145098400Y-101092700D02*
X145098400Y-102092700D01*
X146798400Y-102092700D02*
X146798400Y-101092700D01*
X153861400Y-106891200D02*
X153861400Y-107891200D01*
X155561400Y-107891200D02*
X155561400Y-106891200D01*
X147242900Y-96905700D02*
X147242900Y-95905700D01*
X145542900Y-95905700D02*
X145542900Y-96905700D01*
X153211900Y-91043700D02*
X153211900Y-90043700D01*
X151511900Y-90043700D02*
X151511900Y-91043700D01*
X153670900Y-90063700D02*
X153670900Y-91063700D01*
X155370900Y-91063700D02*
X155370900Y-90063700D01*
X138968900Y-79007162D02*
G75*
G03X133418900Y-77461870I-2990000J462D01*
G01*
X138968900Y-79006238D02*
G75*
G02X133418900Y-80551530I-2990000J-462D01*
G01*
X138478900Y-79006700D02*
G75*
G03X138478900Y-79006700I-2500000J0D01*
G01*
X133418900Y-77461700D02*
X133418900Y-80551700D01*
X145318900Y-79007162D02*
G75*
G03X139768900Y-77461870I-2990000J462D01*
G01*
X145318900Y-79006238D02*
G75*
G02X139768900Y-80551530I-2990000J-462D01*
G01*
X144828900Y-79006700D02*
G75*
G03X144828900Y-79006700I-2500000J0D01*
G01*
X139768900Y-77461700D02*
X139768900Y-80551700D01*
X151668900Y-79007162D02*
G75*
G03X146118900Y-77461870I-2990000J462D01*
G01*
X151668900Y-79006238D02*
G75*
G02X146118900Y-80551530I-2990000J-462D01*
G01*
X151178900Y-79006700D02*
G75*
G03X151178900Y-79006700I-2500000J0D01*
G01*
X146118900Y-77461700D02*
X146118900Y-80551700D01*
X158018900Y-79007162D02*
G75*
G03X152468900Y-77461870I-2990000J462D01*
G01*
X158018900Y-79006238D02*
G75*
G02X152468900Y-80551530I-2990000J-462D01*
G01*
X157528900Y-79006700D02*
G75*
G03X157528900Y-79006700I-2500000J0D01*
G01*
X152468900Y-77461700D02*
X152468900Y-80551700D01*
X156175400Y-106883200D02*
X156175400Y-109483200D01*
X156175400Y-109483200D02*
X158835400Y-109483200D01*
X158835400Y-109483200D02*
X158835400Y-106883200D01*
X158835400Y-106883200D02*
X156175400Y-106883200D01*
X156175400Y-105613200D02*
X156175400Y-104283200D01*
X156175400Y-104283200D02*
X157505400Y-104283200D01*
X132108900Y-91706700D02*
X132108900Y-99386700D01*
X132108900Y-99386700D02*
X134768900Y-99386700D01*
X134768900Y-99386700D02*
X134768900Y-91706700D01*
X134768900Y-91706700D02*
X132108900Y-91706700D01*
X132108900Y-90436700D02*
X132108900Y-89106700D01*
X132108900Y-89106700D02*
X133438900Y-89106700D01*
X135144400Y-84248700D02*
X135144400Y-85448700D01*
X133384400Y-85448700D02*
X133384400Y-84248700D01*
X133175900Y-84265200D02*
X133175900Y-85465200D01*
X131415900Y-85465200D02*
X131415900Y-84265200D01*
X137112900Y-84248700D02*
X137112900Y-85448700D01*
X135352900Y-85448700D02*
X135352900Y-84248700D01*
X139144900Y-84248700D02*
X139144900Y-85448700D01*
X137384900Y-85448700D02*
X137384900Y-84248700D01*
X147290900Y-90735700D02*
X147290900Y-89535700D01*
X149050900Y-89535700D02*
X149050900Y-90735700D01*
X143353900Y-90655700D02*
X143353900Y-89455700D01*
X145113900Y-89455700D02*
X145113900Y-90655700D01*
X146738900Y-111636700D02*
X145538900Y-111636700D01*
X145538900Y-109876700D02*
X146738900Y-109876700D01*
X151818900Y-111636700D02*
X150618900Y-111636700D01*
X150618900Y-109876700D02*
X151818900Y-109876700D01*
X150955900Y-89502700D02*
X150955900Y-90702700D01*
X149195900Y-90702700D02*
X149195900Y-89502700D01*
X152893900Y-82796700D02*
X158013900Y-82796700D01*
X152893900Y-87916700D02*
X158013900Y-87916700D01*
X152893900Y-82796700D02*
X152893900Y-84526700D01*
X152893900Y-86186700D02*
X152893900Y-87916700D01*
X158013900Y-82796700D02*
X158013900Y-83376700D01*
X158013900Y-85036700D02*
X158013900Y-85676700D01*
X158013900Y-87336700D02*
X158013900Y-87916700D01*
X156663900Y-85356700D02*
G75*
G03X156663900Y-85356700I-1210000J0D01*
G01*
D11*
X145493900Y-104371700D02*
X145493900Y-104421700D01*
X149643900Y-104371700D02*
X149643900Y-104516700D01*
X149643900Y-109521700D02*
X149643900Y-109376700D01*
X145493900Y-109521700D02*
X145493900Y-109376700D01*
X145493900Y-104371700D02*
X149643900Y-104371700D01*
X145493900Y-109521700D02*
X149643900Y-109521700D01*
X145493900Y-104421700D02*
X144093900Y-104421700D01*
X149397900Y-93362700D02*
X149397900Y-93387700D01*
X153547900Y-93362700D02*
X153547900Y-93467700D01*
X153547900Y-103512700D02*
X153547900Y-103407700D01*
X149397900Y-103512700D02*
X149397900Y-103407700D01*
X149397900Y-93362700D02*
X153547900Y-93362700D01*
X149397900Y-103512700D02*
X153547900Y-103512700D01*
X149397900Y-93387700D02*
X148022900Y-93387700D01*
X137713900Y-101236700D02*
X137713900Y-101261700D01*
X141863900Y-101236700D02*
X141863900Y-101341700D01*
X141863900Y-111386700D02*
X141863900Y-111281700D01*
X137713900Y-111386700D02*
X137713900Y-111281700D01*
X137713900Y-101236700D02*
X141863900Y-101236700D01*
X137713900Y-111386700D02*
X141863900Y-111386700D01*
X137713900Y-101261700D02*
X136338900Y-101261700D01*
X135846900Y-99021700D02*
X135871900Y-99021700D01*
X135846900Y-94871700D02*
X135961900Y-94871700D01*
X144746900Y-94871700D02*
X144631900Y-94871700D01*
X144746900Y-99021700D02*
X144631900Y-99021700D01*
X135846900Y-99021700D02*
X135846900Y-94871700D01*
X144746900Y-99021700D02*
X144746900Y-94871700D01*
X135871900Y-99021700D02*
X135871900Y-100396700D01*
D12*
X150542900Y-85875700D02*
X150542900Y-84075700D01*
X147322900Y-84075700D02*
X147322900Y-86525700D01*
X139514900Y-83901700D02*
X139514900Y-85701700D01*
X142734900Y-85701700D02*
X142734900Y-83251700D01*
X146732900Y-85875700D02*
X146732900Y-84075700D01*
X143512900Y-84075700D02*
X143512900Y-86525700D01*
D11*
X137769695Y-88250781D02*
X137769695Y-89060305D01*
X137817314Y-89155543D01*
X137864933Y-89203162D01*
X137960171Y-89250781D01*
X138150648Y-89250781D01*
X138245886Y-89203162D01*
X138293505Y-89155543D01*
X138341124Y-89060305D01*
X138341124Y-88250781D01*
X139341124Y-89250781D02*
X138769695Y-89250781D01*
X139055409Y-89250781D02*
X139055409Y-88250781D01*
X138960171Y-88393638D01*
X138864933Y-88488876D01*
X138769695Y-88536495D01*
X146238934Y-93010800D02*
X146191315Y-93044133D01*
X146048458Y-93077467D01*
X145953220Y-93077467D01*
X145810362Y-93044133D01*
X145715124Y-92977467D01*
X145667505Y-92910800D01*
X145619886Y-92777467D01*
X145619886Y-92677467D01*
X145667505Y-92544133D01*
X145715124Y-92477467D01*
X145810362Y-92410800D01*
X145953220Y-92377467D01*
X146048458Y-92377467D01*
X146191315Y-92410800D01*
X146238934Y-92444133D01*
X147191315Y-93077467D02*
X146619886Y-93077467D01*
X146905600Y-93077467D02*
X146905600Y-92377467D01*
X146810362Y-92477467D01*
X146715124Y-92544133D01*
X146619886Y-92577467D01*
X152385734Y-104751143D02*
X152338115Y-104798762D01*
X152195258Y-104846381D01*
X152100020Y-104846381D01*
X151957162Y-104798762D01*
X151861924Y-104703524D01*
X151814305Y-104608286D01*
X151766686Y-104417810D01*
X151766686Y-104274952D01*
X151814305Y-104084476D01*
X151861924Y-103989238D01*
X151957162Y-103894000D01*
X152100020Y-103846381D01*
X152195258Y-103846381D01*
X152338115Y-103894000D01*
X152385734Y-103941619D01*
X152766686Y-103941619D02*
X152814305Y-103894000D01*
X152909543Y-103846381D01*
X153147639Y-103846381D01*
X153242877Y-103894000D01*
X153290496Y-103941619D01*
X153338115Y-104036857D01*
X153338115Y-104132095D01*
X153290496Y-104274952D01*
X152719067Y-104846381D01*
X153338115Y-104846381D01*
X144781543Y-102376266D02*
X144829162Y-102423885D01*
X144876781Y-102566742D01*
X144876781Y-102661980D01*
X144829162Y-102804838D01*
X144733924Y-102900076D01*
X144638686Y-102947695D01*
X144448210Y-102995314D01*
X144305352Y-102995314D01*
X144114876Y-102947695D01*
X144019638Y-102900076D01*
X143924400Y-102804838D01*
X143876781Y-102661980D01*
X143876781Y-102566742D01*
X143924400Y-102423885D01*
X143972019Y-102376266D01*
X143876781Y-102042933D02*
X143876781Y-101423885D01*
X144257733Y-101757219D01*
X144257733Y-101614361D01*
X144305352Y-101519123D01*
X144352971Y-101471504D01*
X144448210Y-101423885D01*
X144686305Y-101423885D01*
X144781543Y-101471504D01*
X144829162Y-101519123D01*
X144876781Y-101614361D01*
X144876781Y-101900076D01*
X144829162Y-101995314D01*
X144781543Y-102042933D01*
X154519334Y-104801943D02*
X154471715Y-104849562D01*
X154328858Y-104897181D01*
X154233620Y-104897181D01*
X154090762Y-104849562D01*
X153995524Y-104754324D01*
X153947905Y-104659086D01*
X153900286Y-104468610D01*
X153900286Y-104325752D01*
X153947905Y-104135276D01*
X153995524Y-104040038D01*
X154090762Y-103944800D01*
X154233620Y-103897181D01*
X154328858Y-103897181D01*
X154471715Y-103944800D01*
X154519334Y-103992419D01*
X155376477Y-104230514D02*
X155376477Y-104897181D01*
X155138381Y-103849562D02*
X154900286Y-104563848D01*
X155519334Y-104563848D01*
X146238934Y-94077600D02*
X146191315Y-94110933D01*
X146048458Y-94144267D01*
X145953220Y-94144267D01*
X145810362Y-94110933D01*
X145715124Y-94044267D01*
X145667505Y-93977600D01*
X145619886Y-93844267D01*
X145619886Y-93744267D01*
X145667505Y-93610933D01*
X145715124Y-93544267D01*
X145810362Y-93477600D01*
X145953220Y-93444267D01*
X146048458Y-93444267D01*
X146191315Y-93477600D01*
X146238934Y-93510933D01*
X147143696Y-93444267D02*
X146667505Y-93444267D01*
X146619886Y-93777600D01*
X146667505Y-93744267D01*
X146762743Y-93710933D01*
X147000839Y-93710933D01*
X147096077Y-93744267D01*
X147143696Y-93777600D01*
X147191315Y-93844267D01*
X147191315Y-94010933D01*
X147143696Y-94077600D01*
X147096077Y-94110933D01*
X147000839Y-94144267D01*
X146762743Y-94144267D01*
X146667505Y-94110933D01*
X146619886Y-94077600D01*
X152283334Y-90790686D02*
X152250000Y-90819257D01*
X152150000Y-90847829D01*
X152083334Y-90847829D01*
X151983334Y-90819257D01*
X151916667Y-90762114D01*
X151883334Y-90704971D01*
X151850000Y-90590686D01*
X151850000Y-90504971D01*
X151883334Y-90390686D01*
X151916667Y-90333543D01*
X151983334Y-90276400D01*
X152083334Y-90247829D01*
X152150000Y-90247829D01*
X152250000Y-90276400D01*
X152283334Y-90304971D01*
X152883334Y-90247829D02*
X152750000Y-90247829D01*
X152683334Y-90276400D01*
X152650000Y-90304971D01*
X152583334Y-90390686D01*
X152550000Y-90504971D01*
X152550000Y-90733543D01*
X152583334Y-90790686D01*
X152616667Y-90819257D01*
X152683334Y-90847829D01*
X152816667Y-90847829D01*
X152883334Y-90819257D01*
X152916667Y-90790686D01*
X152950000Y-90733543D01*
X152950000Y-90590686D01*
X152916667Y-90533543D01*
X152883334Y-90504971D01*
X152816667Y-90476400D01*
X152683334Y-90476400D01*
X152616667Y-90504971D01*
X152583334Y-90533543D01*
X152550000Y-90590686D01*
X154416934Y-90790686D02*
X154383600Y-90819257D01*
X154283600Y-90847829D01*
X154216934Y-90847829D01*
X154116934Y-90819257D01*
X154050267Y-90762114D01*
X154016934Y-90704971D01*
X153983600Y-90590686D01*
X153983600Y-90504971D01*
X154016934Y-90390686D01*
X154050267Y-90333543D01*
X154116934Y-90276400D01*
X154216934Y-90247829D01*
X154283600Y-90247829D01*
X154383600Y-90276400D01*
X154416934Y-90304971D01*
X154650267Y-90247829D02*
X155116934Y-90247829D01*
X154816934Y-90847829D01*
X135240805Y-77769981D02*
X135240805Y-76769981D01*
X135478900Y-76769981D01*
X135621758Y-76817600D01*
X135716996Y-76912838D01*
X135764615Y-77008076D01*
X135812234Y-77198552D01*
X135812234Y-77341410D01*
X135764615Y-77531886D01*
X135716996Y-77627124D01*
X135621758Y-77722362D01*
X135478900Y-77769981D01*
X135240805Y-77769981D01*
X136764615Y-77769981D02*
X136193186Y-77769981D01*
X136478900Y-77769981D02*
X136478900Y-76769981D01*
X136383662Y-76912838D01*
X136288424Y-77008076D01*
X136193186Y-77055695D01*
X141654305Y-77719181D02*
X141654305Y-76719181D01*
X141892400Y-76719181D01*
X142035258Y-76766800D01*
X142130496Y-76862038D01*
X142178115Y-76957276D01*
X142225734Y-77147752D01*
X142225734Y-77290610D01*
X142178115Y-77481086D01*
X142130496Y-77576324D01*
X142035258Y-77671562D01*
X141892400Y-77719181D01*
X141654305Y-77719181D01*
X142606686Y-76814419D02*
X142654305Y-76766800D01*
X142749543Y-76719181D01*
X142987639Y-76719181D01*
X143082877Y-76766800D01*
X143130496Y-76814419D01*
X143178115Y-76909657D01*
X143178115Y-77004895D01*
X143130496Y-77147752D01*
X142559067Y-77719181D01*
X143178115Y-77719181D01*
X148055105Y-77769981D02*
X148055105Y-76769981D01*
X148293200Y-76769981D01*
X148436058Y-76817600D01*
X148531296Y-76912838D01*
X148578915Y-77008076D01*
X148626534Y-77198552D01*
X148626534Y-77341410D01*
X148578915Y-77531886D01*
X148531296Y-77627124D01*
X148436058Y-77722362D01*
X148293200Y-77769981D01*
X148055105Y-77769981D01*
X148959867Y-76769981D02*
X149578915Y-76769981D01*
X149245581Y-77150933D01*
X149388439Y-77150933D01*
X149483677Y-77198552D01*
X149531296Y-77246171D01*
X149578915Y-77341410D01*
X149578915Y-77579505D01*
X149531296Y-77674743D01*
X149483677Y-77722362D01*
X149388439Y-77769981D01*
X149102724Y-77769981D01*
X149007486Y-77722362D01*
X148959867Y-77674743D01*
X154405105Y-77820781D02*
X154405105Y-76820781D01*
X154643200Y-76820781D01*
X154786058Y-76868400D01*
X154881296Y-76963638D01*
X154928915Y-77058876D01*
X154976534Y-77249352D01*
X154976534Y-77392210D01*
X154928915Y-77582686D01*
X154881296Y-77677924D01*
X154786058Y-77773162D01*
X154643200Y-77820781D01*
X154405105Y-77820781D01*
X155833677Y-77154114D02*
X155833677Y-77820781D01*
X155595581Y-76773162D02*
X155357486Y-77487448D01*
X155976534Y-77487448D01*
X134716781Y-81853066D02*
X134240590Y-82186400D01*
X134716781Y-82424495D02*
X133716781Y-82424495D01*
X133716781Y-82043542D01*
X133764400Y-81948304D01*
X133812019Y-81900685D01*
X133907257Y-81853066D01*
X134050114Y-81853066D01*
X134145352Y-81900685D01*
X134192971Y-81948304D01*
X134240590Y-82043542D01*
X134240590Y-82424495D01*
X134716781Y-80900685D02*
X134716781Y-81472114D01*
X134716781Y-81186400D02*
X133716781Y-81186400D01*
X133859638Y-81281638D01*
X133954876Y-81376876D01*
X134002495Y-81472114D01*
X132684781Y-81853066D02*
X132208590Y-82186400D01*
X132684781Y-82424495D02*
X131684781Y-82424495D01*
X131684781Y-82043542D01*
X131732400Y-81948304D01*
X131780019Y-81900685D01*
X131875257Y-81853066D01*
X132018114Y-81853066D01*
X132113352Y-81900685D01*
X132160971Y-81948304D01*
X132208590Y-82043542D01*
X132208590Y-82424495D01*
X131780019Y-81472114D02*
X131732400Y-81424495D01*
X131684781Y-81329257D01*
X131684781Y-81091161D01*
X131732400Y-80995923D01*
X131780019Y-80948304D01*
X131875257Y-80900685D01*
X131970495Y-80900685D01*
X132113352Y-80948304D01*
X132684781Y-81519733D01*
X132684781Y-80900685D01*
X136697981Y-81853066D02*
X136221790Y-82186400D01*
X136697981Y-82424495D02*
X135697981Y-82424495D01*
X135697981Y-82043542D01*
X135745600Y-81948304D01*
X135793219Y-81900685D01*
X135888457Y-81853066D01*
X136031314Y-81853066D01*
X136126552Y-81900685D01*
X136174171Y-81948304D01*
X136221790Y-82043542D01*
X136221790Y-82424495D01*
X135697981Y-81519733D02*
X135697981Y-80900685D01*
X136078933Y-81234019D01*
X136078933Y-81091161D01*
X136126552Y-80995923D01*
X136174171Y-80948304D01*
X136269410Y-80900685D01*
X136507505Y-80900685D01*
X136602743Y-80948304D01*
X136650362Y-80995923D01*
X136697981Y-81091161D01*
X136697981Y-81376876D01*
X136650362Y-81472114D01*
X136602743Y-81519733D01*
X138526781Y-81853066D02*
X138050590Y-82186400D01*
X138526781Y-82424495D02*
X137526781Y-82424495D01*
X137526781Y-82043542D01*
X137574400Y-81948304D01*
X137622019Y-81900685D01*
X137717257Y-81853066D01*
X137860114Y-81853066D01*
X137955352Y-81900685D01*
X138002971Y-81948304D01*
X138050590Y-82043542D01*
X138050590Y-82424495D01*
X137860114Y-80995923D02*
X138526781Y-80995923D01*
X137479162Y-81234019D02*
X138193448Y-81472114D01*
X138193448Y-80853066D01*
X148117734Y-90441429D02*
X147884400Y-90155714D01*
X147717734Y-90441429D02*
X147717734Y-89841429D01*
X147984400Y-89841429D01*
X148051067Y-89870000D01*
X148084400Y-89898571D01*
X148117734Y-89955714D01*
X148117734Y-90041429D01*
X148084400Y-90098571D01*
X148051067Y-90127143D01*
X147984400Y-90155714D01*
X147717734Y-90155714D01*
X148751067Y-89841429D02*
X148417734Y-89841429D01*
X148384400Y-90127143D01*
X148417734Y-90098571D01*
X148484400Y-90070000D01*
X148651067Y-90070000D01*
X148717734Y-90098571D01*
X148751067Y-90127143D01*
X148784400Y-90184286D01*
X148784400Y-90327143D01*
X148751067Y-90384286D01*
X148717734Y-90412857D01*
X148651067Y-90441429D01*
X148484400Y-90441429D01*
X148417734Y-90412857D01*
X148384400Y-90384286D01*
X144156134Y-93179067D02*
X143822800Y-92845733D01*
X143584705Y-93179067D02*
X143584705Y-92479067D01*
X143965658Y-92479067D01*
X144060896Y-92512400D01*
X144108515Y-92545733D01*
X144156134Y-92612400D01*
X144156134Y-92712400D01*
X144108515Y-92779067D01*
X144060896Y-92812400D01*
X143965658Y-92845733D01*
X143584705Y-92845733D01*
X145013277Y-92479067D02*
X144822800Y-92479067D01*
X144727562Y-92512400D01*
X144679943Y-92545733D01*
X144584705Y-92645733D01*
X144537086Y-92779067D01*
X144537086Y-93045733D01*
X144584705Y-93112400D01*
X144632324Y-93145733D01*
X144727562Y-93179067D01*
X144918039Y-93179067D01*
X145013277Y-93145733D01*
X145060896Y-93112400D01*
X145108515Y-93045733D01*
X145108515Y-92879067D01*
X145060896Y-92812400D01*
X145013277Y-92779067D01*
X144918039Y-92745733D01*
X144727562Y-92745733D01*
X144632324Y-92779067D01*
X144584705Y-92812400D01*
X144537086Y-92879067D01*
X146797734Y-109164381D02*
X146464400Y-108688190D01*
X146226305Y-109164381D02*
X146226305Y-108164381D01*
X146607258Y-108164381D01*
X146702496Y-108212000D01*
X146750115Y-108259619D01*
X146797734Y-108354857D01*
X146797734Y-108497714D01*
X146750115Y-108592952D01*
X146702496Y-108640571D01*
X146607258Y-108688190D01*
X146226305Y-108688190D01*
X147131067Y-108164381D02*
X147797734Y-108164381D01*
X147369162Y-109164381D01*
X154468534Y-111297981D02*
X154135200Y-110821790D01*
X153897105Y-111297981D02*
X153897105Y-110297981D01*
X154278058Y-110297981D01*
X154373296Y-110345600D01*
X154420915Y-110393219D01*
X154468534Y-110488457D01*
X154468534Y-110631314D01*
X154420915Y-110726552D01*
X154373296Y-110774171D01*
X154278058Y-110821790D01*
X153897105Y-110821790D01*
X155039962Y-110726552D02*
X154944724Y-110678933D01*
X154897105Y-110631314D01*
X154849486Y-110536076D01*
X154849486Y-110488457D01*
X154897105Y-110393219D01*
X154944724Y-110345600D01*
X155039962Y-110297981D01*
X155230439Y-110297981D01*
X155325677Y-110345600D01*
X155373296Y-110393219D01*
X155420915Y-110488457D01*
X155420915Y-110536076D01*
X155373296Y-110631314D01*
X155325677Y-110678933D01*
X155230439Y-110726552D01*
X155039962Y-110726552D01*
X154944724Y-110774171D01*
X154897105Y-110821790D01*
X154849486Y-110917029D01*
X154849486Y-111107505D01*
X154897105Y-111202743D01*
X154944724Y-111250362D01*
X155039962Y-111297981D01*
X155230439Y-111297981D01*
X155325677Y-111250362D01*
X155373296Y-111202743D01*
X155420915Y-111107505D01*
X155420915Y-110917029D01*
X155373296Y-110821790D01*
X155325677Y-110774171D01*
X155230439Y-110726552D01*
X149997334Y-90441429D02*
X149764000Y-90155714D01*
X149597334Y-90441429D02*
X149597334Y-89841429D01*
X149864000Y-89841429D01*
X149930667Y-89870000D01*
X149964000Y-89898571D01*
X149997334Y-89955714D01*
X149997334Y-90041429D01*
X149964000Y-90098571D01*
X149930667Y-90127143D01*
X149864000Y-90155714D01*
X149597334Y-90155714D01*
X150330667Y-90441429D02*
X150464000Y-90441429D01*
X150530667Y-90412857D01*
X150564000Y-90384286D01*
X150630667Y-90298571D01*
X150664000Y-90184286D01*
X150664000Y-89955714D01*
X150630667Y-89898571D01*
X150597334Y-89870000D01*
X150530667Y-89841429D01*
X150397334Y-89841429D01*
X150330667Y-89870000D01*
X150297334Y-89898571D01*
X150264000Y-89955714D01*
X150264000Y-90098571D01*
X150297334Y-90155714D01*
X150330667Y-90184286D01*
X150397334Y-90212857D01*
X150530667Y-90212857D01*
X150597334Y-90184286D01*
X150630667Y-90155714D01*
X150664000Y-90098571D01*
X154903562Y-83927905D02*
X154570228Y-83546952D01*
X154332133Y-83927905D02*
X154332133Y-83127905D01*
X154713086Y-83127905D01*
X154808324Y-83166000D01*
X154855943Y-83204095D01*
X154903562Y-83280286D01*
X154903562Y-83394571D01*
X154855943Y-83470762D01*
X154808324Y-83508857D01*
X154713086Y-83546952D01*
X154332133Y-83546952D01*
X155189276Y-83127905D02*
X155522609Y-83927905D01*
X155855943Y-83127905D01*
X156713086Y-83927905D02*
X156141657Y-83927905D01*
X156427371Y-83927905D02*
X156427371Y-83127905D01*
X156332133Y-83242190D01*
X156236895Y-83318381D01*
X156141657Y-83356476D01*
X146050095Y-104709981D02*
X146050095Y-105519505D01*
X146097714Y-105614743D01*
X146145333Y-105662362D01*
X146240571Y-105709981D01*
X146431048Y-105709981D01*
X146526286Y-105662362D01*
X146573905Y-105614743D01*
X146621524Y-105519505D01*
X146621524Y-104709981D01*
X147050095Y-104805219D02*
X147097714Y-104757600D01*
X147192952Y-104709981D01*
X147431048Y-104709981D01*
X147526286Y-104757600D01*
X147573905Y-104805219D01*
X147621524Y-104900457D01*
X147621524Y-104995695D01*
X147573905Y-105138552D01*
X147002476Y-105709981D01*
X147621524Y-105709981D01*
X149860095Y-93737181D02*
X149860095Y-94546705D01*
X149907714Y-94641943D01*
X149955333Y-94689562D01*
X150050571Y-94737181D01*
X150241048Y-94737181D01*
X150336286Y-94689562D01*
X150383905Y-94641943D01*
X150431524Y-94546705D01*
X150431524Y-93737181D01*
X150812476Y-93737181D02*
X151431524Y-93737181D01*
X151098190Y-94118133D01*
X151241048Y-94118133D01*
X151336286Y-94165752D01*
X151383905Y-94213371D01*
X151431524Y-94308610D01*
X151431524Y-94546705D01*
X151383905Y-94641943D01*
X151336286Y-94689562D01*
X151241048Y-94737181D01*
X150955333Y-94737181D01*
X150860095Y-94689562D01*
X150812476Y-94641943D01*
X138277695Y-101611181D02*
X138277695Y-102420705D01*
X138325314Y-102515943D01*
X138372933Y-102563562D01*
X138468171Y-102611181D01*
X138658648Y-102611181D01*
X138753886Y-102563562D01*
X138801505Y-102515943D01*
X138849124Y-102420705D01*
X138849124Y-101611181D01*
X139753886Y-101944514D02*
X139753886Y-102611181D01*
X139515790Y-101563562D02*
X139277695Y-102277848D01*
X139896743Y-102277848D01*
X136205981Y-98551905D02*
X137015505Y-98551905D01*
X137110743Y-98504286D01*
X137158362Y-98456667D01*
X137205981Y-98361429D01*
X137205981Y-98170952D01*
X137158362Y-98075714D01*
X137110743Y-98028095D01*
X137015505Y-97980476D01*
X136205981Y-97980476D01*
X136205981Y-97075714D02*
X136205981Y-97266191D01*
X136253600Y-97361429D01*
X136301219Y-97409048D01*
X136444076Y-97504286D01*
X136634552Y-97551905D01*
X137015505Y-97551905D01*
X137110743Y-97504286D01*
X137158362Y-97456667D01*
X137205981Y-97361429D01*
X137205981Y-97170952D01*
X137158362Y-97075714D01*
X137110743Y-97028095D01*
X137015505Y-96980476D01*
X136777410Y-96980476D01*
X136682171Y-97028095D01*
X136634552Y-97075714D01*
X136586933Y-97170952D01*
X136586933Y-97361429D01*
X136634552Y-97456667D01*
X136682171Y-97504286D01*
X136777410Y-97551905D01*
X150418895Y-81748381D02*
X150418895Y-82557905D01*
X150466514Y-82653143D01*
X150514133Y-82700762D01*
X150609371Y-82748381D01*
X150799848Y-82748381D01*
X150895086Y-82700762D01*
X150942705Y-82653143D01*
X150990324Y-82557905D01*
X150990324Y-81748381D01*
X151371276Y-81748381D02*
X152037943Y-81748381D01*
X151609371Y-82748381D01*
X138785695Y-81341981D02*
X138785695Y-82151505D01*
X138833314Y-82246743D01*
X138880933Y-82294362D01*
X138976171Y-82341981D01*
X139166648Y-82341981D01*
X139261886Y-82294362D01*
X139309505Y-82246743D01*
X139357124Y-82151505D01*
X139357124Y-81341981D01*
X140309505Y-81341981D02*
X139833314Y-81341981D01*
X139785695Y-81818171D01*
X139833314Y-81770552D01*
X139928552Y-81722933D01*
X140166648Y-81722933D01*
X140261886Y-81770552D01*
X140309505Y-81818171D01*
X140357124Y-81913410D01*
X140357124Y-82151505D01*
X140309505Y-82246743D01*
X140261886Y-82294362D01*
X140166648Y-82341981D01*
X139928552Y-82341981D01*
X139833314Y-82294362D01*
X139785695Y-82246743D01*
X144678495Y-81392781D02*
X144678495Y-82202305D01*
X144726114Y-82297543D01*
X144773733Y-82345162D01*
X144868971Y-82392781D01*
X145059448Y-82392781D01*
X145154686Y-82345162D01*
X145202305Y-82297543D01*
X145249924Y-82202305D01*
X145249924Y-81392781D01*
X145868971Y-81821352D02*
X145773733Y-81773733D01*
X145726114Y-81726114D01*
X145678495Y-81630876D01*
X145678495Y-81583257D01*
X145726114Y-81488019D01*
X145773733Y-81440400D01*
X145868971Y-81392781D01*
X146059448Y-81392781D01*
X146154686Y-81440400D01*
X146202305Y-81488019D01*
X146249924Y-81583257D01*
X146249924Y-81630876D01*
X146202305Y-81726114D01*
X146154686Y-81773733D01*
X146059448Y-81821352D01*
X145868971Y-81821352D01*
X145773733Y-81868971D01*
X145726114Y-81916590D01*
X145678495Y-82011829D01*
X145678495Y-82202305D01*
X145726114Y-82297543D01*
X145773733Y-82345162D01*
X145868971Y-82392781D01*
X146059448Y-82392781D01*
X146154686Y-82345162D01*
X146202305Y-82297543D01*
X146249924Y-82202305D01*
X146249924Y-82011829D01*
X146202305Y-81916590D01*
X146154686Y-81868971D01*
X146059448Y-81821352D01*
M02*
