M48
;DRILL file {KiCad 4.0.7} date 02/09/18 12:24:05
;FORMAT={2:4/ absolute / inch / suppress trailing zeros}
FMAT,2
INCH,LZ
T1C0.013
T2C0.035
T3C0.039
T4C0.047
%
G90
G05
M72
T1
X05436Y-035105
X05451Y-043555
X054835Y-03578
X05526Y-03793
X05541Y-03453
X05541Y-03548
X05541Y-03588
X05546Y-03873
X05551Y-03343
X05551Y-04103
X05628Y-0379
X056356Y-03863
X05654Y-03824
X056724Y-038666
X056832Y-040504
X05692Y-04014
X05721Y-03648
X05722Y-034465
X05772Y-041338
X05831Y-035488
X0584Y-041338
X05928Y-03986
X059335Y-03423
X059999Y-037869
X061285Y-03743
X06131Y-03498
X06221Y-03498
X06296Y-03253
X06296Y-04388
T2
X053035Y-031105
X054035Y-031105
X055535Y-031105
X056535Y-031105
X058035Y-031105
X059035Y-031105
X060535Y-031105
X061535Y-031105
T3
X052535Y-035605
X052535Y-036605
X052535Y-037605
X052535Y-038605
X06201Y-04158
X06201Y-04258
X062035Y-035605
X062035Y-036605
X062035Y-037605
X062035Y-038605
X062035Y-039605
T4
X05191Y-040881
X05191Y-043479
T0
M30
