%TF.GenerationSoftware,KiCad,Pcbnew,4.0.7*%
%TF.CreationDate,2018-02-09T12:23:56+01:00*%
%TF.ProjectId,Metronome,4D6574726F6E6F6D652E6B696361645F,1.0*%
%TF.FileFunction,Legend,Bot*%
%FSLAX46Y46*%
G04 Gerber Fmt 4.6, Leading zero omitted, Abs format (unit mm)*
G04 Created by KiCad (PCBNEW 4.0.7) date 02/09/18 12:23:56*
%MOMM*%
%LPD*%
G01*
G04 APERTURE LIST*
%ADD10C,0.127000*%
%ADD11C,0.160000*%
%ADD12C,0.010000*%
G04 APERTURE END LIST*
D10*
X144035429Y-90960514D02*
X143749714Y-90760514D01*
X144035429Y-90617657D02*
X143435429Y-90617657D01*
X143435429Y-90846229D01*
X143464000Y-90903371D01*
X143492571Y-90931943D01*
X143549714Y-90960514D01*
X143635429Y-90960514D01*
X143692571Y-90931943D01*
X143721143Y-90903371D01*
X143749714Y-90846229D01*
X143749714Y-90617657D01*
X144006857Y-91446229D02*
X144035429Y-91389086D01*
X144035429Y-91274800D01*
X144006857Y-91217657D01*
X143949714Y-91189086D01*
X143721143Y-91189086D01*
X143664000Y-91217657D01*
X143635429Y-91274800D01*
X143635429Y-91389086D01*
X143664000Y-91446229D01*
X143721143Y-91474800D01*
X143778286Y-91474800D01*
X143835429Y-91189086D01*
X143635429Y-91674800D02*
X144035429Y-91817657D01*
X143635429Y-91960515D01*
X144035429Y-92960515D02*
X144035429Y-92617658D01*
X144035429Y-92789086D02*
X143435429Y-92789086D01*
X143521143Y-92731943D01*
X143578286Y-92674801D01*
X143606857Y-92617658D01*
D11*
X142568533Y-90627866D02*
X141168533Y-90627866D01*
X142168533Y-91094533D01*
X141168533Y-91561200D01*
X142568533Y-91561200D01*
X142501867Y-92761200D02*
X142568533Y-92627866D01*
X142568533Y-92361200D01*
X142501867Y-92227866D01*
X142368533Y-92161200D01*
X141835200Y-92161200D01*
X141701867Y-92227866D01*
X141635200Y-92361200D01*
X141635200Y-92627866D01*
X141701867Y-92761200D01*
X141835200Y-92827866D01*
X141968533Y-92827866D01*
X142101867Y-92161200D01*
X141635200Y-93227866D02*
X141635200Y-93761200D01*
X141168533Y-93427866D02*
X142368533Y-93427866D01*
X142501867Y-93494533D01*
X142568533Y-93627866D01*
X142568533Y-93761200D01*
X142568533Y-94227866D02*
X141635200Y-94227866D01*
X141901867Y-94227866D02*
X141768533Y-94294533D01*
X141701867Y-94361200D01*
X141635200Y-94494533D01*
X141635200Y-94627866D01*
X142568533Y-95294533D02*
X142501867Y-95161200D01*
X142435200Y-95094533D01*
X142301867Y-95027867D01*
X141901867Y-95027867D01*
X141768533Y-95094533D01*
X141701867Y-95161200D01*
X141635200Y-95294533D01*
X141635200Y-95494533D01*
X141701867Y-95627867D01*
X141768533Y-95694533D01*
X141901867Y-95761200D01*
X142301867Y-95761200D01*
X142435200Y-95694533D01*
X142501867Y-95627867D01*
X142568533Y-95494533D01*
X142568533Y-95294533D01*
X141635200Y-96361200D02*
X142568533Y-96361200D01*
X141768533Y-96361200D02*
X141701867Y-96427867D01*
X141635200Y-96561200D01*
X141635200Y-96761200D01*
X141701867Y-96894534D01*
X141835200Y-96961200D01*
X142568533Y-96961200D01*
X142568533Y-97827867D02*
X142501867Y-97694534D01*
X142435200Y-97627867D01*
X142301867Y-97561201D01*
X141901867Y-97561201D01*
X141768533Y-97627867D01*
X141701867Y-97694534D01*
X141635200Y-97827867D01*
X141635200Y-98027867D01*
X141701867Y-98161201D01*
X141768533Y-98227867D01*
X141901867Y-98294534D01*
X142301867Y-98294534D01*
X142435200Y-98227867D01*
X142501867Y-98161201D01*
X142568533Y-98027867D01*
X142568533Y-97827867D01*
X142568533Y-98894534D02*
X141635200Y-98894534D01*
X141768533Y-98894534D02*
X141701867Y-98961201D01*
X141635200Y-99094534D01*
X141635200Y-99294534D01*
X141701867Y-99427868D01*
X141835200Y-99494534D01*
X142568533Y-99494534D01*
X141835200Y-99494534D02*
X141701867Y-99561201D01*
X141635200Y-99694534D01*
X141635200Y-99894534D01*
X141701867Y-100027868D01*
X141835200Y-100094534D01*
X142568533Y-100094534D01*
X142501867Y-101294535D02*
X142568533Y-101161201D01*
X142568533Y-100894535D01*
X142501867Y-100761201D01*
X142368533Y-100694535D01*
X141835200Y-100694535D01*
X141701867Y-100761201D01*
X141635200Y-100894535D01*
X141635200Y-101161201D01*
X141701867Y-101294535D01*
X141835200Y-101361201D01*
X141968533Y-101361201D01*
X142101867Y-100694535D01*
D10*
X151690744Y-84290767D02*
X151214553Y-84290767D01*
X151785982Y-84576481D02*
X151452649Y-83576481D01*
X151119315Y-84576481D01*
X150357410Y-84576481D02*
X150357410Y-83576481D01*
X150357410Y-84528862D02*
X150452648Y-84576481D01*
X150643125Y-84576481D01*
X150738363Y-84528862D01*
X150785982Y-84481243D01*
X150833601Y-84386005D01*
X150833601Y-84100290D01*
X150785982Y-84005052D01*
X150738363Y-83957433D01*
X150643125Y-83909814D01*
X150452648Y-83909814D01*
X150357410Y-83957433D01*
X149881220Y-83909814D02*
X149881220Y-84766957D01*
X149928839Y-84862195D01*
X150024077Y-84909814D01*
X150071696Y-84909814D01*
X149881220Y-83576481D02*
X149928839Y-83624100D01*
X149881220Y-83671719D01*
X149833601Y-83624100D01*
X149881220Y-83576481D01*
X149881220Y-83671719D01*
X148976458Y-83909814D02*
X148976458Y-84576481D01*
X149405030Y-83909814D02*
X149405030Y-84433624D01*
X149357411Y-84528862D01*
X149262173Y-84576481D01*
X149119315Y-84576481D01*
X149024077Y-84528862D01*
X148976458Y-84481243D01*
X148547887Y-84528862D02*
X148452649Y-84576481D01*
X148262173Y-84576481D01*
X148166934Y-84528862D01*
X148119315Y-84433624D01*
X148119315Y-84386005D01*
X148166934Y-84290767D01*
X148262173Y-84243148D01*
X148405030Y-84243148D01*
X148500268Y-84195529D01*
X148547887Y-84100290D01*
X148547887Y-84052671D01*
X148500268Y-83957433D01*
X148405030Y-83909814D01*
X148262173Y-83909814D01*
X148166934Y-83957433D01*
X147833601Y-83909814D02*
X147452649Y-83909814D01*
X147690744Y-83576481D02*
X147690744Y-84433624D01*
X147643125Y-84528862D01*
X147547887Y-84576481D01*
X147452649Y-84576481D01*
X146500267Y-83909814D02*
X146119315Y-83909814D01*
X146357410Y-83576481D02*
X146357410Y-84433624D01*
X146309791Y-84528862D01*
X146214553Y-84576481D01*
X146119315Y-84576481D01*
X145785981Y-84576481D02*
X145785981Y-83576481D01*
X145357409Y-84576481D02*
X145357409Y-84052671D01*
X145405028Y-83957433D01*
X145500266Y-83909814D01*
X145643124Y-83909814D01*
X145738362Y-83957433D01*
X145785981Y-84005052D01*
X144500266Y-84528862D02*
X144595504Y-84576481D01*
X144785981Y-84576481D01*
X144881219Y-84528862D01*
X144928838Y-84433624D01*
X144928838Y-84052671D01*
X144881219Y-83957433D01*
X144785981Y-83909814D01*
X144595504Y-83909814D01*
X144500266Y-83957433D01*
X144452647Y-84052671D01*
X144452647Y-84147910D01*
X144928838Y-84243148D01*
X142833599Y-84576481D02*
X142833599Y-83576481D01*
X142833599Y-84528862D02*
X142928837Y-84576481D01*
X143119314Y-84576481D01*
X143214552Y-84528862D01*
X143262171Y-84481243D01*
X143309790Y-84386005D01*
X143309790Y-84100290D01*
X143262171Y-84005052D01*
X143214552Y-83957433D01*
X143119314Y-83909814D01*
X142928837Y-83909814D01*
X142833599Y-83957433D01*
X141976456Y-84528862D02*
X142071694Y-84576481D01*
X142262171Y-84576481D01*
X142357409Y-84528862D01*
X142405028Y-84433624D01*
X142405028Y-84052671D01*
X142357409Y-83957433D01*
X142262171Y-83909814D01*
X142071694Y-83909814D01*
X141976456Y-83957433D01*
X141928837Y-84052671D01*
X141928837Y-84147910D01*
X142405028Y-84243148D01*
X141547885Y-84528862D02*
X141452647Y-84576481D01*
X141262171Y-84576481D01*
X141166932Y-84528862D01*
X141119313Y-84433624D01*
X141119313Y-84386005D01*
X141166932Y-84290767D01*
X141262171Y-84243148D01*
X141405028Y-84243148D01*
X141500266Y-84195529D01*
X141547885Y-84100290D01*
X141547885Y-84052671D01*
X141500266Y-83957433D01*
X141405028Y-83909814D01*
X141262171Y-83909814D01*
X141166932Y-83957433D01*
X140690742Y-84576481D02*
X140690742Y-83909814D01*
X140690742Y-83576481D02*
X140738361Y-83624100D01*
X140690742Y-83671719D01*
X140643123Y-83624100D01*
X140690742Y-83576481D01*
X140690742Y-83671719D01*
X140214552Y-84576481D02*
X140214552Y-83909814D01*
X140214552Y-84100290D02*
X140166933Y-84005052D01*
X140119314Y-83957433D01*
X140024076Y-83909814D01*
X139928837Y-83909814D01*
X139214551Y-84528862D02*
X139309789Y-84576481D01*
X139500266Y-84576481D01*
X139595504Y-84528862D01*
X139643123Y-84433624D01*
X139643123Y-84052671D01*
X139595504Y-83957433D01*
X139500266Y-83909814D01*
X139309789Y-83909814D01*
X139214551Y-83957433D01*
X139166932Y-84052671D01*
X139166932Y-84147910D01*
X139643123Y-84243148D01*
X138309789Y-84576481D02*
X138309789Y-83576481D01*
X138309789Y-84528862D02*
X138405027Y-84576481D01*
X138595504Y-84576481D01*
X138690742Y-84528862D01*
X138738361Y-84481243D01*
X138785980Y-84386005D01*
X138785980Y-84100290D01*
X138738361Y-84005052D01*
X138690742Y-83957433D01*
X138595504Y-83909814D01*
X138405027Y-83909814D01*
X138309789Y-83957433D01*
X137071694Y-83909814D02*
X137071694Y-84576481D01*
X137071694Y-84005052D02*
X137024075Y-83957433D01*
X136928837Y-83909814D01*
X136785979Y-83909814D01*
X136690741Y-83957433D01*
X136643122Y-84052671D01*
X136643122Y-84576481D01*
X135738360Y-83909814D02*
X135738360Y-84576481D01*
X136166932Y-83909814D02*
X136166932Y-84433624D01*
X136119313Y-84528862D01*
X136024075Y-84576481D01*
X135881217Y-84576481D01*
X135785979Y-84528862D01*
X135738360Y-84481243D01*
X135262170Y-84576481D02*
X135262170Y-83909814D01*
X135262170Y-84005052D02*
X135214551Y-83957433D01*
X135119313Y-83909814D01*
X134976455Y-83909814D01*
X134881217Y-83957433D01*
X134833598Y-84052671D01*
X134833598Y-84576481D01*
X134833598Y-84052671D02*
X134785979Y-83957433D01*
X134690741Y-83909814D01*
X134547884Y-83909814D01*
X134452646Y-83957433D01*
X134405027Y-84052671D01*
X134405027Y-84576481D01*
X133928837Y-84576481D02*
X133928837Y-83576481D01*
X133928837Y-83957433D02*
X133833599Y-83909814D01*
X133643122Y-83909814D01*
X133547884Y-83957433D01*
X133500265Y-84005052D01*
X133452646Y-84100290D01*
X133452646Y-84386005D01*
X133500265Y-84481243D01*
X133547884Y-84528862D01*
X133643122Y-84576481D01*
X133833599Y-84576481D01*
X133928837Y-84528862D01*
X132643122Y-84528862D02*
X132738360Y-84576481D01*
X132928837Y-84576481D01*
X133024075Y-84528862D01*
X133071694Y-84433624D01*
X133071694Y-84052671D01*
X133024075Y-83957433D01*
X132928837Y-83909814D01*
X132738360Y-83909814D01*
X132643122Y-83957433D01*
X132595503Y-84052671D01*
X132595503Y-84147910D01*
X133071694Y-84243148D01*
X132166932Y-84576481D02*
X132166932Y-83909814D01*
X132166932Y-84100290D02*
X132119313Y-84005052D01*
X132071694Y-83957433D01*
X131976456Y-83909814D01*
X131881217Y-83909814D01*
X151357411Y-86203481D02*
X151452649Y-86155862D01*
X151500268Y-86108243D01*
X151547887Y-86013005D01*
X151547887Y-85727290D01*
X151500268Y-85632052D01*
X151452649Y-85584433D01*
X151357411Y-85536814D01*
X151214553Y-85536814D01*
X151119315Y-85584433D01*
X151071696Y-85632052D01*
X151024077Y-85727290D01*
X151024077Y-86013005D01*
X151071696Y-86108243D01*
X151119315Y-86155862D01*
X151214553Y-86203481D01*
X151357411Y-86203481D01*
X150738363Y-85536814D02*
X150357411Y-85536814D01*
X150595506Y-86203481D02*
X150595506Y-85346338D01*
X150547887Y-85251100D01*
X150452649Y-85203481D01*
X150357411Y-85203481D01*
X148928838Y-85679671D02*
X148785981Y-85727290D01*
X148738362Y-85774910D01*
X148690743Y-85870148D01*
X148690743Y-86013005D01*
X148738362Y-86108243D01*
X148785981Y-86155862D01*
X148881219Y-86203481D01*
X149262172Y-86203481D01*
X149262172Y-85203481D01*
X148928838Y-85203481D01*
X148833600Y-85251100D01*
X148785981Y-85298719D01*
X148738362Y-85393957D01*
X148738362Y-85489195D01*
X148785981Y-85584433D01*
X148833600Y-85632052D01*
X148928838Y-85679671D01*
X149262172Y-85679671D01*
X148262172Y-86203481D02*
X148262172Y-85203481D01*
X147881219Y-85203481D01*
X147785981Y-85251100D01*
X147738362Y-85298719D01*
X147690743Y-85393957D01*
X147690743Y-85536814D01*
X147738362Y-85632052D01*
X147785981Y-85679671D01*
X147881219Y-85727290D01*
X148262172Y-85727290D01*
X147262172Y-86203481D02*
X147262172Y-85203481D01*
X146928838Y-85917767D01*
X146595505Y-85203481D01*
X146595505Y-86203481D01*
X144928838Y-85536814D02*
X144928838Y-86203481D01*
X145357410Y-85536814D02*
X145357410Y-86060624D01*
X145309791Y-86155862D01*
X145214553Y-86203481D01*
X145071695Y-86203481D01*
X144976457Y-86155862D01*
X144928838Y-86108243D01*
X144500267Y-86155862D02*
X144405029Y-86203481D01*
X144214553Y-86203481D01*
X144119314Y-86155862D01*
X144071695Y-86060624D01*
X144071695Y-86013005D01*
X144119314Y-85917767D01*
X144214553Y-85870148D01*
X144357410Y-85870148D01*
X144452648Y-85822529D01*
X144500267Y-85727290D01*
X144500267Y-85679671D01*
X144452648Y-85584433D01*
X144357410Y-85536814D01*
X144214553Y-85536814D01*
X144119314Y-85584433D01*
X143643124Y-86203481D02*
X143643124Y-85536814D01*
X143643124Y-85203481D02*
X143690743Y-85251100D01*
X143643124Y-85298719D01*
X143595505Y-85251100D01*
X143643124Y-85203481D01*
X143643124Y-85298719D01*
X143166934Y-85536814D02*
X143166934Y-86203481D01*
X143166934Y-85632052D02*
X143119315Y-85584433D01*
X143024077Y-85536814D01*
X142881219Y-85536814D01*
X142785981Y-85584433D01*
X142738362Y-85679671D01*
X142738362Y-86203481D01*
X141833600Y-85536814D02*
X141833600Y-86346338D01*
X141881219Y-86441576D01*
X141928838Y-86489195D01*
X142024077Y-86536814D01*
X142166934Y-86536814D01*
X142262172Y-86489195D01*
X141833600Y-86155862D02*
X141928838Y-86203481D01*
X142119315Y-86203481D01*
X142214553Y-86155862D01*
X142262172Y-86108243D01*
X142309791Y-86013005D01*
X142309791Y-85727290D01*
X142262172Y-85632052D01*
X142214553Y-85584433D01*
X142119315Y-85536814D01*
X141928838Y-85536814D01*
X141833600Y-85584433D01*
X140738362Y-85536814D02*
X140357410Y-85536814D01*
X140595505Y-85203481D02*
X140595505Y-86060624D01*
X140547886Y-86155862D01*
X140452648Y-86203481D01*
X140357410Y-86203481D01*
X140024076Y-86203481D02*
X140024076Y-85203481D01*
X139595504Y-86203481D02*
X139595504Y-85679671D01*
X139643123Y-85584433D01*
X139738361Y-85536814D01*
X139881219Y-85536814D01*
X139976457Y-85584433D01*
X140024076Y-85632052D01*
X138738361Y-86155862D02*
X138833599Y-86203481D01*
X139024076Y-86203481D01*
X139119314Y-86155862D01*
X139166933Y-86060624D01*
X139166933Y-85679671D01*
X139119314Y-85584433D01*
X139024076Y-85536814D01*
X138833599Y-85536814D01*
X138738361Y-85584433D01*
X138690742Y-85679671D01*
X138690742Y-85774910D01*
X139166933Y-85870148D01*
X137643123Y-85536814D02*
X137262171Y-85536814D01*
X137500266Y-85203481D02*
X137500266Y-86060624D01*
X137452647Y-86155862D01*
X137357409Y-86203481D01*
X137262171Y-86203481D01*
X136928837Y-86203481D02*
X136928837Y-85536814D01*
X136928837Y-85727290D02*
X136881218Y-85632052D01*
X136833599Y-85584433D01*
X136738361Y-85536814D01*
X136643122Y-85536814D01*
X136309789Y-86203481D02*
X136309789Y-85536814D01*
X136309789Y-85203481D02*
X136357408Y-85251100D01*
X136309789Y-85298719D01*
X136262170Y-85251100D01*
X136309789Y-85203481D01*
X136309789Y-85298719D01*
X135833599Y-86203481D02*
X135833599Y-85536814D01*
X135833599Y-85632052D02*
X135785980Y-85584433D01*
X135690742Y-85536814D01*
X135547884Y-85536814D01*
X135452646Y-85584433D01*
X135405027Y-85679671D01*
X135405027Y-86203481D01*
X135405027Y-85679671D02*
X135357408Y-85584433D01*
X135262170Y-85536814D01*
X135119313Y-85536814D01*
X135024075Y-85584433D01*
X134976456Y-85679671D01*
X134976456Y-86203481D01*
X134500266Y-86203481D02*
X134500266Y-85536814D01*
X134500266Y-85632052D02*
X134452647Y-85584433D01*
X134357409Y-85536814D01*
X134214551Y-85536814D01*
X134119313Y-85584433D01*
X134071694Y-85679671D01*
X134071694Y-86203481D01*
X134071694Y-85679671D02*
X134024075Y-85584433D01*
X133928837Y-85536814D01*
X133785980Y-85536814D01*
X133690742Y-85584433D01*
X133643123Y-85679671D01*
X133643123Y-86203481D01*
X132785980Y-86155862D02*
X132881218Y-86203481D01*
X133071695Y-86203481D01*
X133166933Y-86155862D01*
X133214552Y-86060624D01*
X133214552Y-85679671D01*
X133166933Y-85584433D01*
X133071695Y-85536814D01*
X132881218Y-85536814D01*
X132785980Y-85584433D01*
X132738361Y-85679671D01*
X132738361Y-85774910D01*
X133214552Y-85870148D01*
X132309790Y-86203481D02*
X132309790Y-85536814D01*
X132309790Y-85727290D02*
X132262171Y-85632052D01*
X132214552Y-85584433D01*
X132119314Y-85536814D01*
X132024075Y-85536814D01*
X155498800Y-86614000D02*
X155498800Y-84175600D01*
X154228800Y-85394800D02*
X156667200Y-85394800D01*
X156652292Y-85394800D02*
G75*
G03X156652292Y-85394800I-1204292J0D01*
G01*
X158038800Y-82804000D02*
X152958800Y-82804000D01*
X158038800Y-87884000D02*
X158038800Y-82804000D01*
X152908000Y-87884000D02*
X158038800Y-87884000D01*
X152908000Y-82804000D02*
X152908000Y-87884000D01*
X136994686Y-98648781D02*
X136994686Y-97648781D01*
X136613733Y-97648781D01*
X136518495Y-97696400D01*
X136470876Y-97744019D01*
X136423257Y-97839257D01*
X136423257Y-97982114D01*
X136470876Y-98077352D01*
X136518495Y-98124971D01*
X136613733Y-98172590D01*
X136994686Y-98172590D01*
X135566114Y-97982114D02*
X135566114Y-98648781D01*
X135804210Y-97601162D02*
X136042305Y-98315448D01*
X135423257Y-98315448D01*
X136994686Y-96108781D02*
X136994686Y-95108781D01*
X136613733Y-95108781D01*
X136518495Y-95156400D01*
X136470876Y-95204019D01*
X136423257Y-95299257D01*
X136423257Y-95442114D01*
X136470876Y-95537352D01*
X136518495Y-95584971D01*
X136613733Y-95632590D01*
X136994686Y-95632590D01*
X136089924Y-95108781D02*
X135470876Y-95108781D01*
X135804210Y-95489733D01*
X135661352Y-95489733D01*
X135566114Y-95537352D01*
X135518495Y-95584971D01*
X135470876Y-95680210D01*
X135470876Y-95918305D01*
X135518495Y-96013543D01*
X135566114Y-96061162D01*
X135661352Y-96108781D01*
X135947067Y-96108781D01*
X136042305Y-96061162D01*
X136089924Y-96013543D01*
X136994686Y-93568781D02*
X136994686Y-92568781D01*
X136613733Y-92568781D01*
X136518495Y-92616400D01*
X136470876Y-92664019D01*
X136423257Y-92759257D01*
X136423257Y-92902114D01*
X136470876Y-92997352D01*
X136518495Y-93044971D01*
X136613733Y-93092590D01*
X136994686Y-93092590D01*
X136042305Y-92664019D02*
X135994686Y-92616400D01*
X135899448Y-92568781D01*
X135661352Y-92568781D01*
X135566114Y-92616400D01*
X135518495Y-92664019D01*
X135470876Y-92759257D01*
X135470876Y-92854495D01*
X135518495Y-92997352D01*
X136089924Y-93568781D01*
X135470876Y-93568781D01*
X136994686Y-91028781D02*
X136994686Y-90028781D01*
X136613733Y-90028781D01*
X136518495Y-90076400D01*
X136470876Y-90124019D01*
X136423257Y-90219257D01*
X136423257Y-90362114D01*
X136470876Y-90457352D01*
X136518495Y-90504971D01*
X136613733Y-90552590D01*
X136994686Y-90552590D01*
X135470876Y-91028781D02*
X136042305Y-91028781D01*
X135756591Y-91028781D02*
X135756591Y-90028781D01*
X135851829Y-90171638D01*
X135947067Y-90266876D01*
X136042305Y-90314495D01*
X155921105Y-98509081D02*
X155921105Y-97509081D01*
X155540152Y-97509081D01*
X155444914Y-97556700D01*
X155397295Y-97604319D01*
X155349676Y-97699557D01*
X155349676Y-97842414D01*
X155397295Y-97937652D01*
X155444914Y-97985271D01*
X155540152Y-98032890D01*
X155921105Y-98032890D01*
X154492533Y-97842414D02*
X154492533Y-98509081D01*
X154921105Y-97842414D02*
X154921105Y-98366224D01*
X154873486Y-98461462D01*
X154778248Y-98509081D01*
X154635390Y-98509081D01*
X154540152Y-98461462D01*
X154492533Y-98413843D01*
X153873486Y-98509081D02*
X153968724Y-98461462D01*
X154016343Y-98366224D01*
X154016343Y-97509081D01*
X153540152Y-98461462D02*
X153444914Y-98509081D01*
X153254438Y-98509081D01*
X153159199Y-98461462D01*
X153111580Y-98366224D01*
X153111580Y-98318605D01*
X153159199Y-98223367D01*
X153254438Y-98175748D01*
X153397295Y-98175748D01*
X153492533Y-98128129D01*
X153540152Y-98032890D01*
X153540152Y-97985271D01*
X153492533Y-97890033D01*
X153397295Y-97842414D01*
X153254438Y-97842414D01*
X153159199Y-97890033D01*
X152302056Y-98461462D02*
X152397294Y-98509081D01*
X152587771Y-98509081D01*
X152683009Y-98461462D01*
X152730628Y-98366224D01*
X152730628Y-97985271D01*
X152683009Y-97890033D01*
X152587771Y-97842414D01*
X152397294Y-97842414D01*
X152302056Y-97890033D01*
X152254437Y-97985271D01*
X152254437Y-98080510D01*
X152730628Y-98175748D01*
X156063962Y-90412914D02*
X155683010Y-90412914D01*
X155921105Y-91079581D02*
X155921105Y-90222438D01*
X155873486Y-90127200D01*
X155778248Y-90079581D01*
X155683010Y-90079581D01*
X154825866Y-91079581D02*
X155397295Y-91079581D01*
X155111581Y-91079581D02*
X155111581Y-90079581D01*
X155206819Y-90222438D01*
X155302057Y-90317676D01*
X155397295Y-90365295D01*
X153683009Y-90174819D02*
X153635390Y-90127200D01*
X153540152Y-90079581D01*
X153302056Y-90079581D01*
X153206818Y-90127200D01*
X153159199Y-90174819D01*
X153111580Y-90270057D01*
X153111580Y-90365295D01*
X153159199Y-90508152D01*
X153730628Y-91079581D01*
X153111580Y-91079581D01*
X151921104Y-91079581D02*
X151921104Y-90079581D01*
X151825866Y-90698629D02*
X151540151Y-91079581D01*
X151540151Y-90412914D02*
X151921104Y-90793867D01*
X151111580Y-91079581D02*
X151111580Y-90079581D01*
X151111580Y-90555771D02*
X150540151Y-90555771D01*
X150540151Y-91079581D02*
X150540151Y-90079581D01*
X150159199Y-90412914D02*
X149635389Y-90412914D01*
X150159199Y-91079581D01*
X149635389Y-91079581D01*
X156063962Y-92889414D02*
X155683010Y-92889414D01*
X155921105Y-93556081D02*
X155921105Y-92698938D01*
X155873486Y-92603700D01*
X155778248Y-92556081D01*
X155683010Y-92556081D01*
X155397295Y-92651319D02*
X155349676Y-92603700D01*
X155254438Y-92556081D01*
X155016342Y-92556081D01*
X154921104Y-92603700D01*
X154873485Y-92651319D01*
X154825866Y-92746557D01*
X154825866Y-92841795D01*
X154873485Y-92984652D01*
X155444914Y-93556081D01*
X154825866Y-93556081D01*
X153111580Y-93556081D02*
X153683009Y-93556081D01*
X153397295Y-93556081D02*
X153397295Y-92556081D01*
X153492533Y-92698938D01*
X153587771Y-92794176D01*
X153683009Y-92841795D01*
X151921104Y-93556081D02*
X151921104Y-92556081D01*
X151825866Y-93175129D02*
X151540151Y-93556081D01*
X151540151Y-92889414D02*
X151921104Y-93270367D01*
X151111580Y-93556081D02*
X151111580Y-92556081D01*
X151111580Y-93032271D02*
X150540151Y-93032271D01*
X150540151Y-93556081D02*
X150540151Y-92556081D01*
X150159199Y-92889414D02*
X149635389Y-92889414D01*
X150159199Y-93556081D01*
X149635389Y-93556081D01*
X156063962Y-95365914D02*
X155683010Y-95365914D01*
X155921105Y-96032581D02*
X155921105Y-95175438D01*
X155873486Y-95080200D01*
X155778248Y-95032581D01*
X155683010Y-95032581D01*
X155444914Y-95032581D02*
X154825866Y-95032581D01*
X155159200Y-95413533D01*
X155016342Y-95413533D01*
X154921104Y-95461152D01*
X154873485Y-95508771D01*
X154825866Y-95604010D01*
X154825866Y-95842105D01*
X154873485Y-95937343D01*
X154921104Y-95984962D01*
X155016342Y-96032581D01*
X155302057Y-96032581D01*
X155397295Y-95984962D01*
X155444914Y-95937343D01*
X153159199Y-95032581D02*
X153635390Y-95032581D01*
X153683009Y-95508771D01*
X153635390Y-95461152D01*
X153540152Y-95413533D01*
X153302056Y-95413533D01*
X153206818Y-95461152D01*
X153159199Y-95508771D01*
X153111580Y-95604010D01*
X153111580Y-95842105D01*
X153159199Y-95937343D01*
X153206818Y-95984962D01*
X153302056Y-96032581D01*
X153540152Y-96032581D01*
X153635390Y-95984962D01*
X153683009Y-95937343D01*
X152492533Y-95032581D02*
X152397294Y-95032581D01*
X152302056Y-95080200D01*
X152254437Y-95127819D01*
X152206818Y-95223057D01*
X152159199Y-95413533D01*
X152159199Y-95651629D01*
X152206818Y-95842105D01*
X152254437Y-95937343D01*
X152302056Y-95984962D01*
X152397294Y-96032581D01*
X152492533Y-96032581D01*
X152587771Y-95984962D01*
X152635390Y-95937343D01*
X152683009Y-95842105D01*
X152730628Y-95651629D01*
X152730628Y-95413533D01*
X152683009Y-95223057D01*
X152635390Y-95127819D01*
X152587771Y-95080200D01*
X152492533Y-95032581D01*
X151540152Y-95032581D02*
X151444913Y-95032581D01*
X151349675Y-95080200D01*
X151302056Y-95127819D01*
X151254437Y-95223057D01*
X151206818Y-95413533D01*
X151206818Y-95651629D01*
X151254437Y-95842105D01*
X151302056Y-95937343D01*
X151349675Y-95984962D01*
X151444913Y-96032581D01*
X151540152Y-96032581D01*
X151635390Y-95984962D01*
X151683009Y-95937343D01*
X151730628Y-95842105D01*
X151778247Y-95651629D01*
X151778247Y-95413533D01*
X151730628Y-95223057D01*
X151683009Y-95127819D01*
X151635390Y-95080200D01*
X151540152Y-95032581D01*
X150016342Y-96032581D02*
X150016342Y-95032581D01*
X150016342Y-95508771D02*
X149444913Y-95508771D01*
X149444913Y-96032581D02*
X149444913Y-95032581D01*
X149063961Y-95365914D02*
X148540151Y-95365914D01*
X149063961Y-96032581D01*
X148540151Y-96032581D01*
X155968724Y-100699867D02*
X155492533Y-100699867D01*
X156063962Y-100985581D02*
X155730629Y-99985581D01*
X155397295Y-100985581D01*
X154635390Y-100318914D02*
X154635390Y-100985581D01*
X155063962Y-100318914D02*
X155063962Y-100842724D01*
X155016343Y-100937962D01*
X154921105Y-100985581D01*
X154778247Y-100985581D01*
X154683009Y-100937962D01*
X154635390Y-100890343D01*
X153730628Y-100985581D02*
X153730628Y-99985581D01*
X153730628Y-100937962D02*
X153825866Y-100985581D01*
X154016343Y-100985581D01*
X154111581Y-100937962D01*
X154159200Y-100890343D01*
X154206819Y-100795105D01*
X154206819Y-100509390D01*
X154159200Y-100414152D01*
X154111581Y-100366533D01*
X154016343Y-100318914D01*
X153825866Y-100318914D01*
X153730628Y-100366533D01*
X153254438Y-100985581D02*
X153254438Y-100318914D01*
X153254438Y-99985581D02*
X153302057Y-100033200D01*
X153254438Y-100080819D01*
X153206819Y-100033200D01*
X153254438Y-99985581D01*
X153254438Y-100080819D01*
X152635391Y-100985581D02*
X152730629Y-100937962D01*
X152778248Y-100890343D01*
X152825867Y-100795105D01*
X152825867Y-100509390D01*
X152778248Y-100414152D01*
X152730629Y-100366533D01*
X152635391Y-100318914D01*
X152492533Y-100318914D01*
X152397295Y-100366533D01*
X152349676Y-100414152D01*
X152302057Y-100509390D01*
X152302057Y-100795105D01*
X152349676Y-100890343D01*
X152397295Y-100937962D01*
X152492533Y-100985581D01*
X152635391Y-100985581D01*
X150921105Y-99985581D02*
X150730628Y-99985581D01*
X150635390Y-100033200D01*
X150540152Y-100128438D01*
X150492533Y-100318914D01*
X150492533Y-100652248D01*
X150540152Y-100842724D01*
X150635390Y-100937962D01*
X150730628Y-100985581D01*
X150921105Y-100985581D01*
X151016343Y-100937962D01*
X151111581Y-100842724D01*
X151159200Y-100652248D01*
X151159200Y-100318914D01*
X151111581Y-100128438D01*
X151016343Y-100033200D01*
X150921105Y-99985581D01*
X149635390Y-100318914D02*
X149635390Y-100985581D01*
X150063962Y-100318914D02*
X150063962Y-100842724D01*
X150016343Y-100937962D01*
X149921105Y-100985581D01*
X149778247Y-100985581D01*
X149683009Y-100937962D01*
X149635390Y-100890343D01*
X149302057Y-100318914D02*
X148921105Y-100318914D01*
X149159200Y-99985581D02*
X149159200Y-100842724D01*
X149111581Y-100937962D01*
X149016343Y-100985581D01*
X148921105Y-100985581D01*
X156063962Y-105167181D02*
X155730629Y-106167181D01*
X155397295Y-105167181D01*
X154635390Y-106119562D02*
X154730628Y-106167181D01*
X154921105Y-106167181D01*
X155016343Y-106119562D01*
X155063962Y-106071943D01*
X155111581Y-105976705D01*
X155111581Y-105690990D01*
X155063962Y-105595752D01*
X155016343Y-105548133D01*
X154921105Y-105500514D01*
X154730628Y-105500514D01*
X154635390Y-105548133D01*
X153778247Y-106119562D02*
X153873485Y-106167181D01*
X154063962Y-106167181D01*
X154159200Y-106119562D01*
X154206819Y-106071943D01*
X154254438Y-105976705D01*
X154254438Y-105690990D01*
X154206819Y-105595752D01*
X154159200Y-105548133D01*
X154063962Y-105500514D01*
X153873485Y-105500514D01*
X153778247Y-105548133D01*
X155397295Y-107805600D02*
X155492533Y-107757981D01*
X155635390Y-107757981D01*
X155778248Y-107805600D01*
X155873486Y-107900838D01*
X155921105Y-107996076D01*
X155968724Y-108186552D01*
X155968724Y-108329410D01*
X155921105Y-108519886D01*
X155873486Y-108615124D01*
X155778248Y-108710362D01*
X155635390Y-108757981D01*
X155540152Y-108757981D01*
X155397295Y-108710362D01*
X155349676Y-108662743D01*
X155349676Y-108329410D01*
X155540152Y-108329410D01*
X154921105Y-108757981D02*
X154921105Y-107757981D01*
X154349676Y-108757981D01*
X154349676Y-107757981D01*
X153873486Y-108757981D02*
X153873486Y-107757981D01*
X153635391Y-107757981D01*
X153492533Y-107805600D01*
X153397295Y-107900838D01*
X153349676Y-107996076D01*
X153302057Y-108186552D01*
X153302057Y-108329410D01*
X153349676Y-108519886D01*
X153397295Y-108615124D01*
X153492533Y-108710362D01*
X153635391Y-108757981D01*
X153873486Y-108757981D01*
D12*
G36*
X141830240Y-110004068D02*
X141795008Y-110021474D01*
X141751560Y-110051806D01*
X141719894Y-110084883D01*
X141698206Y-110126417D01*
X141684697Y-110182122D01*
X141677562Y-110257711D01*
X141675000Y-110358896D01*
X141674850Y-110402397D01*
X141675288Y-110497735D01*
X141677104Y-110565871D01*
X141681055Y-110613018D01*
X141687898Y-110645390D01*
X141698389Y-110669200D01*
X141709304Y-110685443D01*
X141778981Y-110754552D01*
X141861034Y-110796121D01*
X141949550Y-110808623D01*
X142038619Y-110790534D01*
X142066837Y-110777742D01*
X142134390Y-110742531D01*
X142134390Y-111294300D01*
X142085088Y-111268805D01*
X142020127Y-111249080D01*
X141940280Y-111244027D01*
X141860548Y-111253356D01*
X141800335Y-111274314D01*
X141750392Y-111314227D01*
X141707719Y-111371341D01*
X141704510Y-111377205D01*
X141690978Y-111404827D01*
X141681095Y-111432668D01*
X141674291Y-111466394D01*
X141669999Y-111511671D01*
X141667649Y-111574162D01*
X141666672Y-111659535D01*
X141666495Y-111755610D01*
X141666495Y-112062126D01*
X141850311Y-112062126D01*
X141850311Y-111496939D01*
X141901725Y-111453677D01*
X141955134Y-111419072D01*
X142005712Y-111412780D01*
X142056570Y-111428972D01*
X142083675Y-111444827D01*
X142103849Y-111467410D01*
X142118197Y-111501540D01*
X142127824Y-111552034D01*
X142133837Y-111623711D01*
X142137340Y-111721388D01*
X142138574Y-111786402D01*
X142142745Y-112053771D01*
X142230475Y-112058822D01*
X142318206Y-112063873D01*
X142318206Y-110404701D01*
X142134390Y-110404701D01*
X142129704Y-110497200D01*
X142113912Y-110561409D01*
X142084417Y-110601359D01*
X142038620Y-110621080D01*
X141992350Y-110625021D01*
X141939972Y-110620492D01*
X141905210Y-110602669D01*
X141883472Y-110579119D01*
X141866360Y-110553789D01*
X141856173Y-110525569D01*
X141851640Y-110486031D01*
X141851491Y-110426742D01*
X141853016Y-110377098D01*
X141856519Y-110302310D01*
X141861733Y-110253211D01*
X141870513Y-110222067D01*
X141884714Y-110201145D01*
X141898116Y-110189052D01*
X141954113Y-110162681D01*
X142020389Y-110158422D01*
X142058444Y-110167506D01*
X142096123Y-110199796D01*
X142121081Y-110262606D01*
X142133178Y-110355494D01*
X142134390Y-110404701D01*
X142318206Y-110404701D01*
X142318206Y-109990021D01*
X142226298Y-109990021D01*
X142171117Y-109992203D01*
X142142648Y-109999951D01*
X142134394Y-110015068D01*
X142134390Y-110015516D01*
X142130560Y-110030320D01*
X142113667Y-110028639D01*
X142080081Y-110012372D01*
X142001822Y-109987487D01*
X141913773Y-109984871D01*
X141830240Y-110004068D01*
X141830240Y-110004068D01*
G37*
X141830240Y-110004068D02*
X141795008Y-110021474D01*
X141751560Y-110051806D01*
X141719894Y-110084883D01*
X141698206Y-110126417D01*
X141684697Y-110182122D01*
X141677562Y-110257711D01*
X141675000Y-110358896D01*
X141674850Y-110402397D01*
X141675288Y-110497735D01*
X141677104Y-110565871D01*
X141681055Y-110613018D01*
X141687898Y-110645390D01*
X141698389Y-110669200D01*
X141709304Y-110685443D01*
X141778981Y-110754552D01*
X141861034Y-110796121D01*
X141949550Y-110808623D01*
X142038619Y-110790534D01*
X142066837Y-110777742D01*
X142134390Y-110742531D01*
X142134390Y-111294300D01*
X142085088Y-111268805D01*
X142020127Y-111249080D01*
X141940280Y-111244027D01*
X141860548Y-111253356D01*
X141800335Y-111274314D01*
X141750392Y-111314227D01*
X141707719Y-111371341D01*
X141704510Y-111377205D01*
X141690978Y-111404827D01*
X141681095Y-111432668D01*
X141674291Y-111466394D01*
X141669999Y-111511671D01*
X141667649Y-111574162D01*
X141666672Y-111659535D01*
X141666495Y-111755610D01*
X141666495Y-112062126D01*
X141850311Y-112062126D01*
X141850311Y-111496939D01*
X141901725Y-111453677D01*
X141955134Y-111419072D01*
X142005712Y-111412780D01*
X142056570Y-111428972D01*
X142083675Y-111444827D01*
X142103849Y-111467410D01*
X142118197Y-111501540D01*
X142127824Y-111552034D01*
X142133837Y-111623711D01*
X142137340Y-111721388D01*
X142138574Y-111786402D01*
X142142745Y-112053771D01*
X142230475Y-112058822D01*
X142318206Y-112063873D01*
X142318206Y-110404701D01*
X142134390Y-110404701D01*
X142129704Y-110497200D01*
X142113912Y-110561409D01*
X142084417Y-110601359D01*
X142038620Y-110621080D01*
X141992350Y-110625021D01*
X141939972Y-110620492D01*
X141905210Y-110602669D01*
X141883472Y-110579119D01*
X141866360Y-110553789D01*
X141856173Y-110525569D01*
X141851640Y-110486031D01*
X141851491Y-110426742D01*
X141853016Y-110377098D01*
X141856519Y-110302310D01*
X141861733Y-110253211D01*
X141870513Y-110222067D01*
X141884714Y-110201145D01*
X141898116Y-110189052D01*
X141954113Y-110162681D01*
X142020389Y-110158422D01*
X142058444Y-110167506D01*
X142096123Y-110199796D01*
X142121081Y-110262606D01*
X142133178Y-110355494D01*
X142134390Y-110404701D01*
X142318206Y-110404701D01*
X142318206Y-109990021D01*
X142226298Y-109990021D01*
X142171117Y-109992203D01*
X142142648Y-109999951D01*
X142134394Y-110015068D01*
X142134390Y-110015516D01*
X142130560Y-110030320D01*
X142113667Y-110028639D01*
X142080081Y-110012372D01*
X142001822Y-109987487D01*
X141913773Y-109984871D01*
X141830240Y-110004068D01*
G36*
X141133143Y-111249784D02*
X141054530Y-111270760D01*
X140994684Y-111308780D01*
X140952453Y-111358578D01*
X140939325Y-111379830D01*
X140929632Y-111402092D01*
X140922856Y-111430570D01*
X140918477Y-111470471D01*
X140915976Y-111527001D01*
X140914832Y-111605367D01*
X140914528Y-111710776D01*
X140914522Y-111738742D01*
X140914522Y-112062126D01*
X140994732Y-112062126D01*
X141045894Y-112058543D01*
X141083723Y-112049466D01*
X141093201Y-112043868D01*
X141119112Y-112034206D01*
X141145576Y-112043868D01*
X141189148Y-112055930D01*
X141252440Y-112060785D01*
X141322590Y-112058678D01*
X141386740Y-112049856D01*
X141424193Y-112038537D01*
X141496667Y-111992012D01*
X141541960Y-111927446D01*
X141562322Y-111841600D01*
X141562512Y-111839396D01*
X141560725Y-111801313D01*
X141399127Y-111801313D01*
X141384999Y-111844630D01*
X141361988Y-111869008D01*
X141315796Y-111887445D01*
X141254825Y-111894805D01*
X141192651Y-111891183D01*
X141142849Y-111876674D01*
X141128897Y-111867365D01*
X141104515Y-111824353D01*
X141098337Y-111775457D01*
X141098337Y-111711205D01*
X141190782Y-111711205D01*
X141278605Y-111717966D01*
X141345182Y-111737120D01*
X141386598Y-111766976D01*
X141399127Y-111801313D01*
X141560725Y-111801313D01*
X141558110Y-111745604D01*
X141527176Y-111671447D01*
X141469019Y-111615367D01*
X141460980Y-111610265D01*
X141426437Y-111593655D01*
X141383682Y-111583596D01*
X141323914Y-111578707D01*
X141252910Y-111577583D01*
X141098337Y-111577521D01*
X141098337Y-111512725D01*
X141104894Y-111462450D01*
X141121625Y-111428769D01*
X141123584Y-111426976D01*
X141160817Y-111412242D01*
X141217020Y-111406531D01*
X141279133Y-111409337D01*
X141334090Y-111420156D01*
X141366701Y-111436382D01*
X141384372Y-111449380D01*
X141403031Y-111451862D01*
X141428781Y-111441213D01*
X141467727Y-111414818D01*
X141525970Y-111370065D01*
X141531316Y-111365873D01*
X141528577Y-111350360D01*
X141505724Y-111324560D01*
X141470991Y-111295889D01*
X141432610Y-111271766D01*
X141420552Y-111266070D01*
X141376566Y-111254703D01*
X141312113Y-111246595D01*
X141240103Y-111243343D01*
X141236736Y-111243336D01*
X141133143Y-111249784D01*
X141133143Y-111249784D01*
G37*
X141133143Y-111249784D02*
X141054530Y-111270760D01*
X140994684Y-111308780D01*
X140952453Y-111358578D01*
X140939325Y-111379830D01*
X140929632Y-111402092D01*
X140922856Y-111430570D01*
X140918477Y-111470471D01*
X140915976Y-111527001D01*
X140914832Y-111605367D01*
X140914528Y-111710776D01*
X140914522Y-111738742D01*
X140914522Y-112062126D01*
X140994732Y-112062126D01*
X141045894Y-112058543D01*
X141083723Y-112049466D01*
X141093201Y-112043868D01*
X141119112Y-112034206D01*
X141145576Y-112043868D01*
X141189148Y-112055930D01*
X141252440Y-112060785D01*
X141322590Y-112058678D01*
X141386740Y-112049856D01*
X141424193Y-112038537D01*
X141496667Y-111992012D01*
X141541960Y-111927446D01*
X141562322Y-111841600D01*
X141562512Y-111839396D01*
X141560725Y-111801313D01*
X141399127Y-111801313D01*
X141384999Y-111844630D01*
X141361988Y-111869008D01*
X141315796Y-111887445D01*
X141254825Y-111894805D01*
X141192651Y-111891183D01*
X141142849Y-111876674D01*
X141128897Y-111867365D01*
X141104515Y-111824353D01*
X141098337Y-111775457D01*
X141098337Y-111711205D01*
X141190782Y-111711205D01*
X141278605Y-111717966D01*
X141345182Y-111737120D01*
X141386598Y-111766976D01*
X141399127Y-111801313D01*
X141560725Y-111801313D01*
X141558110Y-111745604D01*
X141527176Y-111671447D01*
X141469019Y-111615367D01*
X141460980Y-111610265D01*
X141426437Y-111593655D01*
X141383682Y-111583596D01*
X141323914Y-111578707D01*
X141252910Y-111577583D01*
X141098337Y-111577521D01*
X141098337Y-111512725D01*
X141104894Y-111462450D01*
X141121625Y-111428769D01*
X141123584Y-111426976D01*
X141160817Y-111412242D01*
X141217020Y-111406531D01*
X141279133Y-111409337D01*
X141334090Y-111420156D01*
X141366701Y-111436382D01*
X141384372Y-111449380D01*
X141403031Y-111451862D01*
X141428781Y-111441213D01*
X141467727Y-111414818D01*
X141525970Y-111370065D01*
X141531316Y-111365873D01*
X141528577Y-111350360D01*
X141505724Y-111324560D01*
X141470991Y-111295889D01*
X141432610Y-111271766D01*
X141420552Y-111266070D01*
X141376566Y-111254703D01*
X141312113Y-111246595D01*
X141240103Y-111243343D01*
X141236736Y-111243336D01*
X141133143Y-111249784D01*
G36*
X140613719Y-111245086D02*
X140588712Y-111252582D01*
X140580650Y-111269051D01*
X140580311Y-111276486D01*
X140578864Y-111297194D01*
X140568902Y-111300445D01*
X140541988Y-111286248D01*
X140526002Y-111276548D01*
X140475567Y-111255775D01*
X140415328Y-111245504D01*
X140352166Y-111244714D01*
X140292963Y-111252386D01*
X140244598Y-111267498D01*
X140213954Y-111289032D01*
X140207911Y-111315966D01*
X140210961Y-111323260D01*
X140233194Y-111353537D01*
X140267670Y-111390775D01*
X140273906Y-111396795D01*
X140306767Y-111424475D01*
X140335120Y-111433418D01*
X140374773Y-111427176D01*
X140390658Y-111423029D01*
X140440091Y-111413067D01*
X140474848Y-111417547D01*
X140504200Y-111433346D01*
X140531087Y-111454549D01*
X140550890Y-111481214D01*
X140564652Y-111518427D01*
X140573416Y-111571273D01*
X140578226Y-111644837D01*
X140580126Y-111744205D01*
X140580311Y-111804201D01*
X140580311Y-112062126D01*
X140747416Y-112062126D01*
X140747416Y-111243310D01*
X140663864Y-111243310D01*
X140613719Y-111245086D01*
X140613719Y-111245086D01*
G37*
X140613719Y-111245086D02*
X140588712Y-111252582D01*
X140580650Y-111269051D01*
X140580311Y-111276486D01*
X140578864Y-111297194D01*
X140568902Y-111300445D01*
X140541988Y-111286248D01*
X140526002Y-111276548D01*
X140475567Y-111255775D01*
X140415328Y-111245504D01*
X140352166Y-111244714D01*
X140292963Y-111252386D01*
X140244598Y-111267498D01*
X140213954Y-111289032D01*
X140207911Y-111315966D01*
X140210961Y-111323260D01*
X140233194Y-111353537D01*
X140267670Y-111390775D01*
X140273906Y-111396795D01*
X140306767Y-111424475D01*
X140335120Y-111433418D01*
X140374773Y-111427176D01*
X140390658Y-111423029D01*
X140440091Y-111413067D01*
X140474848Y-111417547D01*
X140504200Y-111433346D01*
X140531087Y-111454549D01*
X140550890Y-111481214D01*
X140564652Y-111518427D01*
X140573416Y-111571273D01*
X140578226Y-111644837D01*
X140580126Y-111744205D01*
X140580311Y-111804201D01*
X140580311Y-112062126D01*
X140747416Y-112062126D01*
X140747416Y-111243310D01*
X140663864Y-111243310D01*
X140613719Y-111245086D01*
G36*
X139560969Y-112062126D02*
X139652877Y-112062126D01*
X139706223Y-112060562D01*
X139734007Y-112054085D01*
X139744010Y-112040018D01*
X139744785Y-112030506D01*
X139746472Y-112011432D01*
X139757110Y-112007774D01*
X139785065Y-112019532D01*
X139806805Y-112030506D01*
X139890268Y-112056511D01*
X139980996Y-112058016D01*
X140054758Y-112038621D01*
X140123446Y-111991765D01*
X140175806Y-111922604D01*
X140204478Y-111841027D01*
X140205208Y-111836466D01*
X140209468Y-111786701D01*
X140211586Y-111715259D01*
X140211416Y-111661226D01*
X140028880Y-111661226D01*
X140024651Y-111733041D01*
X140015032Y-111792234D01*
X140002010Y-111825660D01*
X139952744Y-111871340D01*
X139894250Y-111887715D01*
X139833929Y-111874473D01*
X139782383Y-111834973D01*
X139762862Y-111808407D01*
X139751448Y-111776706D01*
X139746102Y-111730432D01*
X139744785Y-111660928D01*
X139747142Y-111592099D01*
X139753367Y-111531626D01*
X139762192Y-111491156D01*
X139763663Y-111487529D01*
X139799253Y-111444402D01*
X139851200Y-111420724D01*
X139909322Y-111416901D01*
X139963440Y-111433338D01*
X140003374Y-111470440D01*
X140007517Y-111477822D01*
X140020484Y-111522839D01*
X140027548Y-111587567D01*
X140028880Y-111661226D01*
X140211416Y-111661226D01*
X140211329Y-111633830D01*
X140210128Y-111590005D01*
X140201955Y-111481588D01*
X140184970Y-111400188D01*
X140156713Y-111340012D01*
X140114728Y-111295266D01*
X140073968Y-111269000D01*
X140017019Y-111250535D01*
X139946189Y-111244202D01*
X139873659Y-111249360D01*
X139811614Y-111265369D01*
X139778832Y-111284520D01*
X139744785Y-111315332D01*
X139744785Y-110925810D01*
X139560969Y-110925810D01*
X139560969Y-112062126D01*
X139560969Y-112062126D01*
G37*
X139560969Y-112062126D02*
X139652877Y-112062126D01*
X139706223Y-112060562D01*
X139734007Y-112054085D01*
X139744010Y-112040018D01*
X139744785Y-112030506D01*
X139746472Y-112011432D01*
X139757110Y-112007774D01*
X139785065Y-112019532D01*
X139806805Y-112030506D01*
X139890268Y-112056511D01*
X139980996Y-112058016D01*
X140054758Y-112038621D01*
X140123446Y-111991765D01*
X140175806Y-111922604D01*
X140204478Y-111841027D01*
X140205208Y-111836466D01*
X140209468Y-111786701D01*
X140211586Y-111715259D01*
X140211416Y-111661226D01*
X140028880Y-111661226D01*
X140024651Y-111733041D01*
X140015032Y-111792234D01*
X140002010Y-111825660D01*
X139952744Y-111871340D01*
X139894250Y-111887715D01*
X139833929Y-111874473D01*
X139782383Y-111834973D01*
X139762862Y-111808407D01*
X139751448Y-111776706D01*
X139746102Y-111730432D01*
X139744785Y-111660928D01*
X139747142Y-111592099D01*
X139753367Y-111531626D01*
X139762192Y-111491156D01*
X139763663Y-111487529D01*
X139799253Y-111444402D01*
X139851200Y-111420724D01*
X139909322Y-111416901D01*
X139963440Y-111433338D01*
X140003374Y-111470440D01*
X140007517Y-111477822D01*
X140020484Y-111522839D01*
X140027548Y-111587567D01*
X140028880Y-111661226D01*
X140211416Y-111661226D01*
X140211329Y-111633830D01*
X140210128Y-111590005D01*
X140201955Y-111481588D01*
X140184970Y-111400188D01*
X140156713Y-111340012D01*
X140114728Y-111295266D01*
X140073968Y-111269000D01*
X140017019Y-111250535D01*
X139946189Y-111244202D01*
X139873659Y-111249360D01*
X139811614Y-111265369D01*
X139778832Y-111284520D01*
X139744785Y-111315332D01*
X139744785Y-110925810D01*
X139560969Y-110925810D01*
X139560969Y-112062126D01*
G36*
X138919470Y-111246704D02*
X138853380Y-111251666D01*
X138766974Y-111510679D01*
X138680569Y-111769692D01*
X138653476Y-111677784D01*
X138637172Y-111620984D01*
X138615725Y-111544225D01*
X138592565Y-111459851D01*
X138580320Y-111414593D01*
X138534256Y-111243310D01*
X138344213Y-111243310D01*
X138401018Y-111422949D01*
X138428993Y-111511304D01*
X138462787Y-111617881D01*
X138498080Y-111729054D01*
X138529587Y-111828179D01*
X138601350Y-112053771D01*
X138756314Y-112063853D01*
X138798330Y-111925128D01*
X138824241Y-111838951D01*
X138852517Y-111743947D01*
X138877231Y-111660041D01*
X138878206Y-111656702D01*
X138896665Y-111599848D01*
X138912951Y-111561056D01*
X138924358Y-111546387D01*
X138926702Y-111548083D01*
X138934929Y-111570825D01*
X138950562Y-111619540D01*
X138971696Y-111688102D01*
X138996430Y-111770385D01*
X139009813Y-111815646D01*
X139082289Y-112062126D01*
X139236105Y-112062126D01*
X139359069Y-111673606D01*
X139393612Y-111564622D01*
X139425079Y-111465648D01*
X139451984Y-111381336D01*
X139472841Y-111316334D01*
X139486162Y-111275292D01*
X139490212Y-111263301D01*
X139487006Y-111251023D01*
X139461835Y-111245646D01*
X139409454Y-111246184D01*
X139401255Y-111246590D01*
X139304118Y-111251666D01*
X139240500Y-111485613D01*
X139217116Y-111570933D01*
X139196219Y-111645935D01*
X139179649Y-111704107D01*
X139169246Y-111738937D01*
X139167324Y-111744616D01*
X139159359Y-111738086D01*
X139143296Y-111704254D01*
X139120979Y-111647727D01*
X139094255Y-111573110D01*
X139071663Y-111505707D01*
X138985559Y-111241743D01*
X138919470Y-111246704D01*
X138919470Y-111246704D01*
G37*
X138919470Y-111246704D02*
X138853380Y-111251666D01*
X138766974Y-111510679D01*
X138680569Y-111769692D01*
X138653476Y-111677784D01*
X138637172Y-111620984D01*
X138615725Y-111544225D01*
X138592565Y-111459851D01*
X138580320Y-111414593D01*
X138534256Y-111243310D01*
X138344213Y-111243310D01*
X138401018Y-111422949D01*
X138428993Y-111511304D01*
X138462787Y-111617881D01*
X138498080Y-111729054D01*
X138529587Y-111828179D01*
X138601350Y-112053771D01*
X138756314Y-112063853D01*
X138798330Y-111925128D01*
X138824241Y-111838951D01*
X138852517Y-111743947D01*
X138877231Y-111660041D01*
X138878206Y-111656702D01*
X138896665Y-111599848D01*
X138912951Y-111561056D01*
X138924358Y-111546387D01*
X138926702Y-111548083D01*
X138934929Y-111570825D01*
X138950562Y-111619540D01*
X138971696Y-111688102D01*
X138996430Y-111770385D01*
X139009813Y-111815646D01*
X139082289Y-112062126D01*
X139236105Y-112062126D01*
X139359069Y-111673606D01*
X139393612Y-111564622D01*
X139425079Y-111465648D01*
X139451984Y-111381336D01*
X139472841Y-111316334D01*
X139486162Y-111275292D01*
X139490212Y-111263301D01*
X139487006Y-111251023D01*
X139461835Y-111245646D01*
X139409454Y-111246184D01*
X139401255Y-111246590D01*
X139304118Y-111251666D01*
X139240500Y-111485613D01*
X139217116Y-111570933D01*
X139196219Y-111645935D01*
X139179649Y-111704107D01*
X139169246Y-111738937D01*
X139167324Y-111744616D01*
X139159359Y-111738086D01*
X139143296Y-111704254D01*
X139120979Y-111647727D01*
X139094255Y-111573110D01*
X139071663Y-111505707D01*
X138985559Y-111241743D01*
X138919470Y-111246704D01*
G36*
X137913608Y-111248273D02*
X137843173Y-111265380D01*
X137822813Y-111274444D01*
X137783347Y-111298183D01*
X137753059Y-111324921D01*
X137730648Y-111359299D01*
X137714814Y-111405960D01*
X137704257Y-111469546D01*
X137697676Y-111554699D01*
X137693772Y-111666062D01*
X137692290Y-111740449D01*
X137686835Y-112062126D01*
X137780020Y-112062126D01*
X137836553Y-112059756D01*
X137865678Y-112051655D01*
X137873206Y-112038051D01*
X137877180Y-112023341D01*
X137894948Y-112026154D01*
X137919160Y-112037948D01*
X137979772Y-112056027D01*
X138057671Y-112060899D01*
X138139605Y-112052930D01*
X138212319Y-112032489D01*
X138218841Y-112029651D01*
X138285298Y-111982965D01*
X138329109Y-111918064D01*
X138349268Y-111842200D01*
X138347728Y-111814944D01*
X138183255Y-111814944D01*
X138168763Y-111851624D01*
X138125795Y-111877909D01*
X138056471Y-111892017D01*
X138019423Y-111893890D01*
X137957681Y-111889094D01*
X137916640Y-111870458D01*
X137906627Y-111861600D01*
X137879500Y-111813406D01*
X137873206Y-111769692D01*
X137873206Y-111711205D01*
X137954670Y-111711205D01*
X138049366Y-111716032D01*
X138115787Y-111731213D01*
X138157754Y-111757800D01*
X138167151Y-111769652D01*
X138183255Y-111814944D01*
X138347728Y-111814944D01*
X138344771Y-111762626D01*
X138314615Y-111686595D01*
X138273469Y-111635212D01*
X138248548Y-111612997D01*
X138224152Y-111598398D01*
X138192409Y-111589497D01*
X138145448Y-111584375D01*
X138075396Y-111581115D01*
X138047610Y-111580177D01*
X137873206Y-111574479D01*
X137873462Y-111521691D01*
X137880216Y-111466203D01*
X137904636Y-111432652D01*
X137953970Y-111411218D01*
X137955294Y-111410836D01*
X138025240Y-111402408D01*
X138093686Y-111413416D01*
X138144553Y-111440185D01*
X138164963Y-111453403D01*
X138186946Y-111451574D01*
X138220774Y-111432424D01*
X138240639Y-111418908D01*
X138279494Y-111390032D01*
X138303562Y-111368386D01*
X138307424Y-111362189D01*
X138291521Y-111330119D01*
X138244535Y-111291819D01*
X138224127Y-111278897D01*
X138165457Y-111256641D01*
X138086388Y-111244032D01*
X137998559Y-111241200D01*
X137913608Y-111248273D01*
X137913608Y-111248273D01*
G37*
X137913608Y-111248273D02*
X137843173Y-111265380D01*
X137822813Y-111274444D01*
X137783347Y-111298183D01*
X137753059Y-111324921D01*
X137730648Y-111359299D01*
X137714814Y-111405960D01*
X137704257Y-111469546D01*
X137697676Y-111554699D01*
X137693772Y-111666062D01*
X137692290Y-111740449D01*
X137686835Y-112062126D01*
X137780020Y-112062126D01*
X137836553Y-112059756D01*
X137865678Y-112051655D01*
X137873206Y-112038051D01*
X137877180Y-112023341D01*
X137894948Y-112026154D01*
X137919160Y-112037948D01*
X137979772Y-112056027D01*
X138057671Y-112060899D01*
X138139605Y-112052930D01*
X138212319Y-112032489D01*
X138218841Y-112029651D01*
X138285298Y-111982965D01*
X138329109Y-111918064D01*
X138349268Y-111842200D01*
X138347728Y-111814944D01*
X138183255Y-111814944D01*
X138168763Y-111851624D01*
X138125795Y-111877909D01*
X138056471Y-111892017D01*
X138019423Y-111893890D01*
X137957681Y-111889094D01*
X137916640Y-111870458D01*
X137906627Y-111861600D01*
X137879500Y-111813406D01*
X137873206Y-111769692D01*
X137873206Y-111711205D01*
X137954670Y-111711205D01*
X138049366Y-111716032D01*
X138115787Y-111731213D01*
X138157754Y-111757800D01*
X138167151Y-111769652D01*
X138183255Y-111814944D01*
X138347728Y-111814944D01*
X138344771Y-111762626D01*
X138314615Y-111686595D01*
X138273469Y-111635212D01*
X138248548Y-111612997D01*
X138224152Y-111598398D01*
X138192409Y-111589497D01*
X138145448Y-111584375D01*
X138075396Y-111581115D01*
X138047610Y-111580177D01*
X137873206Y-111574479D01*
X137873462Y-111521691D01*
X137880216Y-111466203D01*
X137904636Y-111432652D01*
X137953970Y-111411218D01*
X137955294Y-111410836D01*
X138025240Y-111402408D01*
X138093686Y-111413416D01*
X138144553Y-111440185D01*
X138164963Y-111453403D01*
X138186946Y-111451574D01*
X138220774Y-111432424D01*
X138240639Y-111418908D01*
X138279494Y-111390032D01*
X138303562Y-111368386D01*
X138307424Y-111362189D01*
X138291521Y-111330119D01*
X138244535Y-111291819D01*
X138224127Y-111278897D01*
X138165457Y-111256641D01*
X138086388Y-111244032D01*
X137998559Y-111241200D01*
X137913608Y-111248273D01*
G36*
X137120433Y-111243047D02*
X137056192Y-111255712D01*
X137019620Y-111274464D01*
X136981147Y-111305617D01*
X137035883Y-111374727D01*
X137069631Y-111416579D01*
X137092547Y-111436998D01*
X137115321Y-111440117D01*
X137148644Y-111430072D01*
X137164286Y-111424389D01*
X137228058Y-111416004D01*
X137286460Y-111433978D01*
X137329336Y-111474582D01*
X137336301Y-111487529D01*
X137343887Y-111521824D01*
X137349741Y-111585027D01*
X137353589Y-111672660D01*
X137355157Y-111780240D01*
X137355179Y-111795544D01*
X137355179Y-112062126D01*
X137538995Y-112062126D01*
X137538995Y-111243310D01*
X137447087Y-111243310D01*
X137394093Y-111244694D01*
X137366485Y-111250852D01*
X137356276Y-111264794D01*
X137355179Y-111277944D01*
X137355179Y-111312578D01*
X137311150Y-111277944D01*
X137260663Y-111254316D01*
X137192840Y-111242633D01*
X137120433Y-111243047D01*
X137120433Y-111243047D01*
G37*
X137120433Y-111243047D02*
X137056192Y-111255712D01*
X137019620Y-111274464D01*
X136981147Y-111305617D01*
X137035883Y-111374727D01*
X137069631Y-111416579D01*
X137092547Y-111436998D01*
X137115321Y-111440117D01*
X137148644Y-111430072D01*
X137164286Y-111424389D01*
X137228058Y-111416004D01*
X137286460Y-111433978D01*
X137329336Y-111474582D01*
X137336301Y-111487529D01*
X137343887Y-111521824D01*
X137349741Y-111585027D01*
X137353589Y-111672660D01*
X137355157Y-111780240D01*
X137355179Y-111795544D01*
X137355179Y-112062126D01*
X137538995Y-112062126D01*
X137538995Y-111243310D01*
X137447087Y-111243310D01*
X137394093Y-111244694D01*
X137366485Y-111250852D01*
X137356276Y-111264794D01*
X137355179Y-111277944D01*
X137355179Y-111312578D01*
X137311150Y-111277944D01*
X137260663Y-111254316D01*
X137192840Y-111242633D01*
X137120433Y-111243047D01*
G36*
X136592407Y-111247678D02*
X136512532Y-111268445D01*
X136445638Y-111311305D01*
X136413249Y-111343323D01*
X136360155Y-111419013D01*
X136329727Y-111506816D01*
X136319273Y-111614750D01*
X136319220Y-111623475D01*
X136319127Y-111711205D01*
X136824066Y-111711205D01*
X136813302Y-111757159D01*
X136793868Y-111798778D01*
X136759855Y-111842144D01*
X136752740Y-111849067D01*
X136691597Y-111886535D01*
X136621871Y-111892889D01*
X136541613Y-111868238D01*
X136528008Y-111861600D01*
X136486281Y-111841419D01*
X136458332Y-111829921D01*
X136453455Y-111828858D01*
X136436432Y-111839183D01*
X136403967Y-111864445D01*
X136387486Y-111878250D01*
X136353336Y-111909961D01*
X136342122Y-111930899D01*
X136349905Y-111950160D01*
X136354065Y-111955427D01*
X136382243Y-111978478D01*
X136428738Y-112006492D01*
X136461166Y-112022846D01*
X136553215Y-112051659D01*
X136655124Y-112060995D01*
X136751637Y-112049932D01*
X136778666Y-112042012D01*
X136862324Y-111997181D01*
X136924334Y-111928198D01*
X136965055Y-111834394D01*
X136984845Y-111715098D01*
X136987018Y-111652718D01*
X136980674Y-111561898D01*
X136820443Y-111561898D01*
X136804945Y-111568612D01*
X136763288Y-111573880D01*
X136702724Y-111576989D01*
X136661693Y-111577521D01*
X136587889Y-111577008D01*
X136541307Y-111574606D01*
X136515752Y-111569022D01*
X136505031Y-111558961D01*
X136502943Y-111544363D01*
X136517269Y-111499396D01*
X136553338Y-111454953D01*
X136600785Y-111420842D01*
X136648251Y-111406888D01*
X136712721Y-111419266D01*
X136768530Y-111455052D01*
X136807226Y-111506633D01*
X136820443Y-111561898D01*
X136980674Y-111561898D01*
X136977779Y-111520466D01*
X136949264Y-111415098D01*
X136900871Y-111335778D01*
X136831996Y-111281671D01*
X136742035Y-111251943D01*
X136693300Y-111246218D01*
X136592407Y-111247678D01*
X136592407Y-111247678D01*
G37*
X136592407Y-111247678D02*
X136512532Y-111268445D01*
X136445638Y-111311305D01*
X136413249Y-111343323D01*
X136360155Y-111419013D01*
X136329727Y-111506816D01*
X136319273Y-111614750D01*
X136319220Y-111623475D01*
X136319127Y-111711205D01*
X136824066Y-111711205D01*
X136813302Y-111757159D01*
X136793868Y-111798778D01*
X136759855Y-111842144D01*
X136752740Y-111849067D01*
X136691597Y-111886535D01*
X136621871Y-111892889D01*
X136541613Y-111868238D01*
X136528008Y-111861600D01*
X136486281Y-111841419D01*
X136458332Y-111829921D01*
X136453455Y-111828858D01*
X136436432Y-111839183D01*
X136403967Y-111864445D01*
X136387486Y-111878250D01*
X136353336Y-111909961D01*
X136342122Y-111930899D01*
X136349905Y-111950160D01*
X136354065Y-111955427D01*
X136382243Y-111978478D01*
X136428738Y-112006492D01*
X136461166Y-112022846D01*
X136553215Y-112051659D01*
X136655124Y-112060995D01*
X136751637Y-112049932D01*
X136778666Y-112042012D01*
X136862324Y-111997181D01*
X136924334Y-111928198D01*
X136965055Y-111834394D01*
X136984845Y-111715098D01*
X136987018Y-111652718D01*
X136980674Y-111561898D01*
X136820443Y-111561898D01*
X136804945Y-111568612D01*
X136763288Y-111573880D01*
X136702724Y-111576989D01*
X136661693Y-111577521D01*
X136587889Y-111577008D01*
X136541307Y-111574606D01*
X136515752Y-111569022D01*
X136505031Y-111558961D01*
X136502943Y-111544363D01*
X136517269Y-111499396D01*
X136553338Y-111454953D01*
X136600785Y-111420842D01*
X136648251Y-111406888D01*
X136712721Y-111419266D01*
X136768530Y-111455052D01*
X136807226Y-111506633D01*
X136820443Y-111561898D01*
X136980674Y-111561898D01*
X136977779Y-111520466D01*
X136949264Y-111415098D01*
X136900871Y-111335778D01*
X136831996Y-111281671D01*
X136742035Y-111251943D01*
X136693300Y-111246218D01*
X136592407Y-111247678D01*
G36*
X142666816Y-109998704D02*
X142579395Y-110037354D01*
X142513030Y-110101890D01*
X142467624Y-110192412D01*
X142443082Y-110309018D01*
X142441323Y-110327224D01*
X142439944Y-110455584D01*
X142457816Y-110568096D01*
X142493850Y-110659288D01*
X142513145Y-110688622D01*
X142580355Y-110750706D01*
X142665950Y-110790916D01*
X142761710Y-110807603D01*
X142859413Y-110799117D01*
X142933683Y-110772980D01*
X142997553Y-110728935D01*
X143049754Y-110671187D01*
X143050657Y-110669836D01*
X143071856Y-110634193D01*
X143085633Y-110598352D01*
X143093976Y-110553119D01*
X143098873Y-110489301D01*
X143101031Y-110436968D01*
X143101929Y-110389510D01*
X142934857Y-110389510D01*
X142933224Y-110436754D01*
X142927296Y-110499646D01*
X142916839Y-110540007D01*
X142897981Y-110568722D01*
X142880319Y-110585496D01*
X142817706Y-110620616D01*
X142752192Y-110625310D01*
X142691179Y-110600040D01*
X142660672Y-110571724D01*
X142638689Y-110543189D01*
X142625831Y-110515884D01*
X142620188Y-110480350D01*
X142619849Y-110427124D01*
X142621588Y-110378106D01*
X142625329Y-110308082D01*
X142631259Y-110262664D01*
X142641947Y-110233040D01*
X142659961Y-110210397D01*
X142674237Y-110197455D01*
X142733949Y-110163460D01*
X142798366Y-110161765D01*
X142852381Y-110181901D01*
X142898460Y-110223952D01*
X142925911Y-110293028D01*
X142934857Y-110389510D01*
X143101929Y-110389510D01*
X143103001Y-110332899D01*
X143099636Y-110255068D01*
X143089555Y-110196530D01*
X143071374Y-110150337D01*
X143043710Y-110109542D01*
X143033454Y-110097428D01*
X142969322Y-110037074D01*
X142900534Y-110001820D01*
X142816411Y-109987050D01*
X142775391Y-109985843D01*
X142666816Y-109998704D01*
X142666816Y-109998704D01*
G37*
X142666816Y-109998704D02*
X142579395Y-110037354D01*
X142513030Y-110101890D01*
X142467624Y-110192412D01*
X142443082Y-110309018D01*
X142441323Y-110327224D01*
X142439944Y-110455584D01*
X142457816Y-110568096D01*
X142493850Y-110659288D01*
X142513145Y-110688622D01*
X142580355Y-110750706D01*
X142665950Y-110790916D01*
X142761710Y-110807603D01*
X142859413Y-110799117D01*
X142933683Y-110772980D01*
X142997553Y-110728935D01*
X143049754Y-110671187D01*
X143050657Y-110669836D01*
X143071856Y-110634193D01*
X143085633Y-110598352D01*
X143093976Y-110553119D01*
X143098873Y-110489301D01*
X143101031Y-110436968D01*
X143101929Y-110389510D01*
X142934857Y-110389510D01*
X142933224Y-110436754D01*
X142927296Y-110499646D01*
X142916839Y-110540007D01*
X142897981Y-110568722D01*
X142880319Y-110585496D01*
X142817706Y-110620616D01*
X142752192Y-110625310D01*
X142691179Y-110600040D01*
X142660672Y-110571724D01*
X142638689Y-110543189D01*
X142625831Y-110515884D01*
X142620188Y-110480350D01*
X142619849Y-110427124D01*
X142621588Y-110378106D01*
X142625329Y-110308082D01*
X142631259Y-110262664D01*
X142641947Y-110233040D01*
X142659961Y-110210397D01*
X142674237Y-110197455D01*
X142733949Y-110163460D01*
X142798366Y-110161765D01*
X142852381Y-110181901D01*
X142898460Y-110223952D01*
X142925911Y-110293028D01*
X142934857Y-110389510D01*
X143101929Y-110389510D01*
X143103001Y-110332899D01*
X143099636Y-110255068D01*
X143089555Y-110196530D01*
X143071374Y-110150337D01*
X143043710Y-110109542D01*
X143033454Y-110097428D01*
X142969322Y-110037074D01*
X142900534Y-110001820D01*
X142816411Y-109987050D01*
X142775391Y-109985843D01*
X142666816Y-109998704D01*
G36*
X141096582Y-110008627D02*
X141079930Y-110016466D01*
X141022295Y-110058686D01*
X140967795Y-110120300D01*
X140927101Y-110188143D01*
X140915526Y-110219334D01*
X140904966Y-110275049D01*
X140898669Y-110342381D01*
X140897904Y-110370185D01*
X140897811Y-110457916D01*
X141402750Y-110457916D01*
X141391987Y-110503870D01*
X141365567Y-110558220D01*
X141319378Y-110605191D01*
X141264428Y-110635448D01*
X141229411Y-110641731D01*
X141181923Y-110634106D01*
X141125265Y-110614983D01*
X141106018Y-110606184D01*
X141034841Y-110570636D01*
X140974098Y-110616967D01*
X140939048Y-110648303D01*
X140920398Y-110674167D01*
X140919453Y-110681758D01*
X140936115Y-110700156D01*
X140972630Y-110728115D01*
X141005772Y-110749927D01*
X141095207Y-110789137D01*
X141195471Y-110806885D01*
X141294846Y-110802270D01*
X141374061Y-110778151D01*
X141455720Y-110726484D01*
X141513751Y-110658456D01*
X141550054Y-110570443D01*
X141566528Y-110458816D01*
X141567989Y-110407738D01*
X141562143Y-110290691D01*
X141561425Y-110287286D01*
X141394111Y-110287286D01*
X141389503Y-110298262D01*
X141370564Y-110304315D01*
X141331502Y-110306910D01*
X141266523Y-110307510D01*
X141241503Y-110307521D01*
X141165379Y-110306614D01*
X141117104Y-110303320D01*
X141091140Y-110296781D01*
X141081952Y-110286137D01*
X141081627Y-110282719D01*
X141092113Y-110255556D01*
X141118358Y-110217503D01*
X141129641Y-110204179D01*
X141171528Y-110166496D01*
X141215191Y-110151680D01*
X141238715Y-110150442D01*
X141302357Y-110165929D01*
X141355727Y-110207530D01*
X141389581Y-110267953D01*
X141390181Y-110269922D01*
X141394111Y-110287286D01*
X141561425Y-110287286D01*
X141542701Y-110198528D01*
X141507678Y-110124790D01*
X141464844Y-110072448D01*
X141385652Y-110015692D01*
X141292560Y-109985362D01*
X141193545Y-109982621D01*
X141096582Y-110008627D01*
X141096582Y-110008627D01*
G37*
X141096582Y-110008627D02*
X141079930Y-110016466D01*
X141022295Y-110058686D01*
X140967795Y-110120300D01*
X140927101Y-110188143D01*
X140915526Y-110219334D01*
X140904966Y-110275049D01*
X140898669Y-110342381D01*
X140897904Y-110370185D01*
X140897811Y-110457916D01*
X141402750Y-110457916D01*
X141391987Y-110503870D01*
X141365567Y-110558220D01*
X141319378Y-110605191D01*
X141264428Y-110635448D01*
X141229411Y-110641731D01*
X141181923Y-110634106D01*
X141125265Y-110614983D01*
X141106018Y-110606184D01*
X141034841Y-110570636D01*
X140974098Y-110616967D01*
X140939048Y-110648303D01*
X140920398Y-110674167D01*
X140919453Y-110681758D01*
X140936115Y-110700156D01*
X140972630Y-110728115D01*
X141005772Y-110749927D01*
X141095207Y-110789137D01*
X141195471Y-110806885D01*
X141294846Y-110802270D01*
X141374061Y-110778151D01*
X141455720Y-110726484D01*
X141513751Y-110658456D01*
X141550054Y-110570443D01*
X141566528Y-110458816D01*
X141567989Y-110407738D01*
X141562143Y-110290691D01*
X141561425Y-110287286D01*
X141394111Y-110287286D01*
X141389503Y-110298262D01*
X141370564Y-110304315D01*
X141331502Y-110306910D01*
X141266523Y-110307510D01*
X141241503Y-110307521D01*
X141165379Y-110306614D01*
X141117104Y-110303320D01*
X141091140Y-110296781D01*
X141081952Y-110286137D01*
X141081627Y-110282719D01*
X141092113Y-110255556D01*
X141118358Y-110217503D01*
X141129641Y-110204179D01*
X141171528Y-110166496D01*
X141215191Y-110151680D01*
X141238715Y-110150442D01*
X141302357Y-110165929D01*
X141355727Y-110207530D01*
X141389581Y-110267953D01*
X141390181Y-110269922D01*
X141394111Y-110287286D01*
X141561425Y-110287286D01*
X141542701Y-110198528D01*
X141507678Y-110124790D01*
X141464844Y-110072448D01*
X141385652Y-110015692D01*
X141292560Y-109985362D01*
X141193545Y-109982621D01*
X141096582Y-110008627D01*
G36*
X139274972Y-109987147D02*
X139211692Y-109999148D01*
X139146043Y-110024248D01*
X139139028Y-110027448D01*
X139089244Y-110053626D01*
X139054766Y-110077953D01*
X139043622Y-110093537D01*
X139054234Y-110118953D01*
X139080012Y-110156453D01*
X139091454Y-110170452D01*
X139138608Y-110225554D01*
X139199399Y-110189686D01*
X139257253Y-110165792D01*
X139324100Y-110153020D01*
X139388206Y-110152213D01*
X139437836Y-110164215D01*
X139449746Y-110171705D01*
X139472428Y-110206050D01*
X139475184Y-110245613D01*
X139458212Y-110276520D01*
X139448173Y-110282513D01*
X139418090Y-110289957D01*
X139365211Y-110298706D01*
X139300025Y-110307067D01*
X139288000Y-110308378D01*
X139183303Y-110326488D01*
X139107368Y-110357251D01*
X139057008Y-110403507D01*
X139029036Y-110468097D01*
X139020322Y-110546987D01*
X139032360Y-110636665D01*
X139071449Y-110707086D01*
X139137745Y-110758377D01*
X139231406Y-110790667D01*
X139335377Y-110803407D01*
X139420162Y-110803254D01*
X139488935Y-110791683D01*
X139535903Y-110775709D01*
X139595250Y-110747875D01*
X139650094Y-110715573D01*
X139669587Y-110701355D01*
X139719719Y-110660435D01*
X139598797Y-110538077D01*
X139530057Y-110583567D01*
X139461112Y-110617733D01*
X139387489Y-110635604D01*
X139316717Y-110637489D01*
X139256326Y-110623701D01*
X139213843Y-110594549D01*
X139200126Y-110569952D01*
X139202183Y-110530504D01*
X139236270Y-110500337D01*
X139302292Y-110479506D01*
X139374626Y-110469879D01*
X139485948Y-110451510D01*
X139568648Y-110416854D01*
X139623835Y-110364897D01*
X139652612Y-110294623D01*
X139656599Y-110211307D01*
X139636907Y-110124281D01*
X139592011Y-110058502D01*
X139521509Y-110013668D01*
X139424999Y-109989479D01*
X139353500Y-109984737D01*
X139274972Y-109987147D01*
X139274972Y-109987147D01*
G37*
X139274972Y-109987147D02*
X139211692Y-109999148D01*
X139146043Y-110024248D01*
X139139028Y-110027448D01*
X139089244Y-110053626D01*
X139054766Y-110077953D01*
X139043622Y-110093537D01*
X139054234Y-110118953D01*
X139080012Y-110156453D01*
X139091454Y-110170452D01*
X139138608Y-110225554D01*
X139199399Y-110189686D01*
X139257253Y-110165792D01*
X139324100Y-110153020D01*
X139388206Y-110152213D01*
X139437836Y-110164215D01*
X139449746Y-110171705D01*
X139472428Y-110206050D01*
X139475184Y-110245613D01*
X139458212Y-110276520D01*
X139448173Y-110282513D01*
X139418090Y-110289957D01*
X139365211Y-110298706D01*
X139300025Y-110307067D01*
X139288000Y-110308378D01*
X139183303Y-110326488D01*
X139107368Y-110357251D01*
X139057008Y-110403507D01*
X139029036Y-110468097D01*
X139020322Y-110546987D01*
X139032360Y-110636665D01*
X139071449Y-110707086D01*
X139137745Y-110758377D01*
X139231406Y-110790667D01*
X139335377Y-110803407D01*
X139420162Y-110803254D01*
X139488935Y-110791683D01*
X139535903Y-110775709D01*
X139595250Y-110747875D01*
X139650094Y-110715573D01*
X139669587Y-110701355D01*
X139719719Y-110660435D01*
X139598797Y-110538077D01*
X139530057Y-110583567D01*
X139461112Y-110617733D01*
X139387489Y-110635604D01*
X139316717Y-110637489D01*
X139256326Y-110623701D01*
X139213843Y-110594549D01*
X139200126Y-110569952D01*
X139202183Y-110530504D01*
X139236270Y-110500337D01*
X139302292Y-110479506D01*
X139374626Y-110469879D01*
X139485948Y-110451510D01*
X139568648Y-110416854D01*
X139623835Y-110364897D01*
X139652612Y-110294623D01*
X139656599Y-110211307D01*
X139636907Y-110124281D01*
X139592011Y-110058502D01*
X139521509Y-110013668D01*
X139424999Y-109989479D01*
X139353500Y-109984737D01*
X139274972Y-109987147D01*
G36*
X138481931Y-109999910D02*
X138397408Y-110045940D01*
X138331279Y-110118606D01*
X138300122Y-110177706D01*
X138286745Y-110229905D01*
X138278078Y-110304319D01*
X138274363Y-110390042D01*
X138275846Y-110476169D01*
X138282769Y-110551793D01*
X138290855Y-110592184D01*
X138318135Y-110647440D01*
X138365380Y-110706130D01*
X138422318Y-110757452D01*
X138478676Y-110790605D01*
X138480050Y-110791131D01*
X138549984Y-110805618D01*
X138632863Y-110805977D01*
X138711623Y-110792788D01*
X138742034Y-110782217D01*
X138820361Y-110737801D01*
X138876457Y-110679607D01*
X138913314Y-110602565D01*
X138933920Y-110501601D01*
X138938582Y-110448716D01*
X138937987Y-110382263D01*
X138758864Y-110382263D01*
X138752830Y-110479230D01*
X138735462Y-110553123D01*
X138707860Y-110600336D01*
X138688196Y-110613837D01*
X138637813Y-110623251D01*
X138577927Y-110620464D01*
X138526151Y-110606916D01*
X138512573Y-110599462D01*
X138476751Y-110556051D01*
X138453107Y-110489614D01*
X138443042Y-110408761D01*
X138447958Y-110322102D01*
X138458945Y-110269949D01*
X138490491Y-110209551D01*
X138540289Y-110171797D01*
X138600263Y-110158743D01*
X138662336Y-110172449D01*
X138710018Y-110205972D01*
X138735075Y-110233631D01*
X138749700Y-110260894D01*
X138756671Y-110297790D01*
X138758767Y-110354350D01*
X138758864Y-110382263D01*
X138937987Y-110382263D01*
X138937318Y-110307594D01*
X138914335Y-110191871D01*
X138869628Y-110101541D01*
X138803195Y-110036600D01*
X138715035Y-109997045D01*
X138696105Y-109992458D01*
X138582334Y-109981690D01*
X138481931Y-109999910D01*
X138481931Y-109999910D01*
G37*
X138481931Y-109999910D02*
X138397408Y-110045940D01*
X138331279Y-110118606D01*
X138300122Y-110177706D01*
X138286745Y-110229905D01*
X138278078Y-110304319D01*
X138274363Y-110390042D01*
X138275846Y-110476169D01*
X138282769Y-110551793D01*
X138290855Y-110592184D01*
X138318135Y-110647440D01*
X138365380Y-110706130D01*
X138422318Y-110757452D01*
X138478676Y-110790605D01*
X138480050Y-110791131D01*
X138549984Y-110805618D01*
X138632863Y-110805977D01*
X138711623Y-110792788D01*
X138742034Y-110782217D01*
X138820361Y-110737801D01*
X138876457Y-110679607D01*
X138913314Y-110602565D01*
X138933920Y-110501601D01*
X138938582Y-110448716D01*
X138937987Y-110382263D01*
X138758864Y-110382263D01*
X138752830Y-110479230D01*
X138735462Y-110553123D01*
X138707860Y-110600336D01*
X138688196Y-110613837D01*
X138637813Y-110623251D01*
X138577927Y-110620464D01*
X138526151Y-110606916D01*
X138512573Y-110599462D01*
X138476751Y-110556051D01*
X138453107Y-110489614D01*
X138443042Y-110408761D01*
X138447958Y-110322102D01*
X138458945Y-110269949D01*
X138490491Y-110209551D01*
X138540289Y-110171797D01*
X138600263Y-110158743D01*
X138662336Y-110172449D01*
X138710018Y-110205972D01*
X138735075Y-110233631D01*
X138749700Y-110260894D01*
X138756671Y-110297790D01*
X138758767Y-110354350D01*
X138758864Y-110382263D01*
X138937987Y-110382263D01*
X138937318Y-110307594D01*
X138914335Y-110191871D01*
X138869628Y-110101541D01*
X138803195Y-110036600D01*
X138715035Y-109997045D01*
X138696105Y-109992458D01*
X138582334Y-109981690D01*
X138481931Y-109999910D01*
G36*
X137973469Y-110250133D02*
X137971890Y-110372689D01*
X137966119Y-110465779D01*
X137954609Y-110533251D01*
X137935810Y-110578955D01*
X137908174Y-110606739D01*
X137870152Y-110620454D01*
X137823074Y-110623958D01*
X137773768Y-110620032D01*
X137736317Y-110605689D01*
X137709172Y-110577078D01*
X137690785Y-110530351D01*
X137679607Y-110461658D01*
X137674089Y-110367150D01*
X137672679Y-110250133D01*
X137672679Y-109990021D01*
X137488864Y-109990021D01*
X137488864Y-110792126D01*
X137580772Y-110792126D01*
X137636178Y-110789881D01*
X137664709Y-110781996D01*
X137672679Y-110767028D01*
X137677480Y-110753697D01*
X137696586Y-110756517D01*
X137735096Y-110775383D01*
X137823361Y-110804487D01*
X137916977Y-110802425D01*
X138006679Y-110770821D01*
X138049396Y-110745857D01*
X138081979Y-110718826D01*
X138105783Y-110685005D01*
X138122161Y-110639668D01*
X138132469Y-110578089D01*
X138138059Y-110495543D01*
X138140288Y-110387305D01*
X138140574Y-110303604D01*
X138140574Y-109990021D01*
X137973469Y-109990021D01*
X137973469Y-110250133D01*
X137973469Y-110250133D01*
G37*
X137973469Y-110250133D02*
X137971890Y-110372689D01*
X137966119Y-110465779D01*
X137954609Y-110533251D01*
X137935810Y-110578955D01*
X137908174Y-110606739D01*
X137870152Y-110620454D01*
X137823074Y-110623958D01*
X137773768Y-110620032D01*
X137736317Y-110605689D01*
X137709172Y-110577078D01*
X137690785Y-110530351D01*
X137679607Y-110461658D01*
X137674089Y-110367150D01*
X137672679Y-110250133D01*
X137672679Y-109990021D01*
X137488864Y-109990021D01*
X137488864Y-110792126D01*
X137580772Y-110792126D01*
X137636178Y-110789881D01*
X137664709Y-110781996D01*
X137672679Y-110767028D01*
X137677480Y-110753697D01*
X137696586Y-110756517D01*
X137735096Y-110775383D01*
X137823361Y-110804487D01*
X137916977Y-110802425D01*
X138006679Y-110770821D01*
X138049396Y-110745857D01*
X138081979Y-110718826D01*
X138105783Y-110685005D01*
X138122161Y-110639668D01*
X138132469Y-110578089D01*
X138138059Y-110495543D01*
X138140288Y-110387305D01*
X138140574Y-110303604D01*
X138140574Y-109990021D01*
X137973469Y-109990021D01*
X137973469Y-110250133D01*
G36*
X136347024Y-109997019D02*
X136250205Y-110038149D01*
X136219710Y-110058171D01*
X136180735Y-110088940D01*
X136156269Y-110113133D01*
X136152022Y-110121013D01*
X136164016Y-110138499D01*
X136194713Y-110168170D01*
X136219288Y-110188879D01*
X136286554Y-110242936D01*
X136339670Y-110198242D01*
X136380716Y-110169389D01*
X136420737Y-110159429D01*
X136466541Y-110161861D01*
X136539276Y-110179945D01*
X136589344Y-110217481D01*
X136619771Y-110278162D01*
X136633583Y-110365681D01*
X136633587Y-110365736D01*
X136632392Y-110463558D01*
X136613828Y-110535330D01*
X136576796Y-110584195D01*
X136551550Y-110600743D01*
X136484503Y-110621349D01*
X136412891Y-110621362D01*
X136350585Y-110601368D01*
X136335837Y-110591600D01*
X136298850Y-110566647D01*
X136269932Y-110562558D01*
X136238744Y-110581130D01*
X136204264Y-110614487D01*
X136149688Y-110670796D01*
X136210282Y-110720742D01*
X136303902Y-110777113D01*
X136409475Y-110804893D01*
X136519802Y-110802882D01*
X136592257Y-110784462D01*
X136676944Y-110738910D01*
X136744673Y-110667250D01*
X136775443Y-110616666D01*
X136800364Y-110544088D01*
X136812834Y-110452169D01*
X136812930Y-110352548D01*
X136800730Y-110256867D01*
X136776310Y-110176769D01*
X136772464Y-110168556D01*
X136715507Y-110088013D01*
X136638391Y-110029371D01*
X136547210Y-109993847D01*
X136448057Y-109982657D01*
X136347024Y-109997019D01*
X136347024Y-109997019D01*
G37*
X136347024Y-109997019D02*
X136250205Y-110038149D01*
X136219710Y-110058171D01*
X136180735Y-110088940D01*
X136156269Y-110113133D01*
X136152022Y-110121013D01*
X136164016Y-110138499D01*
X136194713Y-110168170D01*
X136219288Y-110188879D01*
X136286554Y-110242936D01*
X136339670Y-110198242D01*
X136380716Y-110169389D01*
X136420737Y-110159429D01*
X136466541Y-110161861D01*
X136539276Y-110179945D01*
X136589344Y-110217481D01*
X136619771Y-110278162D01*
X136633583Y-110365681D01*
X136633587Y-110365736D01*
X136632392Y-110463558D01*
X136613828Y-110535330D01*
X136576796Y-110584195D01*
X136551550Y-110600743D01*
X136484503Y-110621349D01*
X136412891Y-110621362D01*
X136350585Y-110601368D01*
X136335837Y-110591600D01*
X136298850Y-110566647D01*
X136269932Y-110562558D01*
X136238744Y-110581130D01*
X136204264Y-110614487D01*
X136149688Y-110670796D01*
X136210282Y-110720742D01*
X136303902Y-110777113D01*
X136409475Y-110804893D01*
X136519802Y-110802882D01*
X136592257Y-110784462D01*
X136676944Y-110738910D01*
X136744673Y-110667250D01*
X136775443Y-110616666D01*
X136800364Y-110544088D01*
X136812834Y-110452169D01*
X136812930Y-110352548D01*
X136800730Y-110256867D01*
X136776310Y-110176769D01*
X136772464Y-110168556D01*
X136715507Y-110088013D01*
X136638391Y-110029371D01*
X136547210Y-109993847D01*
X136448057Y-109982657D01*
X136347024Y-109997019D01*
G36*
X135734816Y-109987154D02*
X135692026Y-109997549D01*
X135609991Y-110035613D01*
X135539843Y-110093749D01*
X135491295Y-110163452D01*
X135484625Y-110179102D01*
X135475476Y-110220096D01*
X135469071Y-110280738D01*
X135466890Y-110342030D01*
X135466890Y-110457916D01*
X135709193Y-110457916D01*
X135809129Y-110458293D01*
X135879531Y-110460587D01*
X135924287Y-110466538D01*
X135947285Y-110477885D01*
X135952411Y-110496371D01*
X135943552Y-110523736D01*
X135927683Y-110555755D01*
X135883416Y-110609192D01*
X135821901Y-110635815D01*
X135746715Y-110634947D01*
X135661547Y-110605971D01*
X135587941Y-110570211D01*
X135526866Y-110618504D01*
X135465790Y-110666797D01*
X135523249Y-110719885D01*
X135599959Y-110770045D01*
X135694298Y-110800288D01*
X135795773Y-110808751D01*
X135893889Y-110793574D01*
X135909719Y-110788424D01*
X135995953Y-110743391D01*
X136060099Y-110676252D01*
X136103509Y-110585005D01*
X136127536Y-110467644D01*
X136127816Y-110465129D01*
X136129967Y-110337227D01*
X136121271Y-110291597D01*
X135951495Y-110291597D01*
X135935903Y-110298613D01*
X135893571Y-110303988D01*
X135831166Y-110307057D01*
X135791619Y-110307521D01*
X135717872Y-110307230D01*
X135671760Y-110305383D01*
X135647500Y-110300512D01*
X135639306Y-110291155D01*
X135641394Y-110275845D01*
X135643145Y-110269922D01*
X135673040Y-110214268D01*
X135720058Y-110169415D01*
X135761551Y-110149705D01*
X135816674Y-110150895D01*
X135872532Y-110175475D01*
X135919388Y-110216170D01*
X135947506Y-110265708D01*
X135951495Y-110291597D01*
X136121271Y-110291597D01*
X136108526Y-110224733D01*
X136065989Y-110130327D01*
X136004853Y-110056688D01*
X135927615Y-110006493D01*
X135836770Y-109982422D01*
X135734816Y-109987154D01*
X135734816Y-109987154D01*
G37*
X135734816Y-109987154D02*
X135692026Y-109997549D01*
X135609991Y-110035613D01*
X135539843Y-110093749D01*
X135491295Y-110163452D01*
X135484625Y-110179102D01*
X135475476Y-110220096D01*
X135469071Y-110280738D01*
X135466890Y-110342030D01*
X135466890Y-110457916D01*
X135709193Y-110457916D01*
X135809129Y-110458293D01*
X135879531Y-110460587D01*
X135924287Y-110466538D01*
X135947285Y-110477885D01*
X135952411Y-110496371D01*
X135943552Y-110523736D01*
X135927683Y-110555755D01*
X135883416Y-110609192D01*
X135821901Y-110635815D01*
X135746715Y-110634947D01*
X135661547Y-110605971D01*
X135587941Y-110570211D01*
X135526866Y-110618504D01*
X135465790Y-110666797D01*
X135523249Y-110719885D01*
X135599959Y-110770045D01*
X135694298Y-110800288D01*
X135795773Y-110808751D01*
X135893889Y-110793574D01*
X135909719Y-110788424D01*
X135995953Y-110743391D01*
X136060099Y-110676252D01*
X136103509Y-110585005D01*
X136127536Y-110467644D01*
X136127816Y-110465129D01*
X136129967Y-110337227D01*
X136121271Y-110291597D01*
X135951495Y-110291597D01*
X135935903Y-110298613D01*
X135893571Y-110303988D01*
X135831166Y-110307057D01*
X135791619Y-110307521D01*
X135717872Y-110307230D01*
X135671760Y-110305383D01*
X135647500Y-110300512D01*
X135639306Y-110291155D01*
X135641394Y-110275845D01*
X135643145Y-110269922D01*
X135673040Y-110214268D01*
X135720058Y-110169415D01*
X135761551Y-110149705D01*
X135816674Y-110150895D01*
X135872532Y-110175475D01*
X135919388Y-110216170D01*
X135947506Y-110265708D01*
X135951495Y-110291597D01*
X136121271Y-110291597D01*
X136108526Y-110224733D01*
X136065989Y-110130327D01*
X136004853Y-110056688D01*
X135927615Y-110006493D01*
X135836770Y-109982422D01*
X135734816Y-109987154D01*
G36*
X140295643Y-110003826D02*
X140254054Y-110023690D01*
X140213775Y-110052384D01*
X140183090Y-110085409D01*
X140160739Y-110127531D01*
X140145464Y-110183515D01*
X140136008Y-110258128D01*
X140131113Y-110356135D01*
X140129519Y-110482302D01*
X140129494Y-110495514D01*
X140129127Y-110792126D01*
X140312943Y-110792126D01*
X140312943Y-110518681D01*
X140313073Y-110417377D01*
X140313979Y-110343953D01*
X140316427Y-110292871D01*
X140321186Y-110258590D01*
X140329026Y-110235571D01*
X140340715Y-110218273D01*
X140356998Y-110201181D01*
X140413966Y-110164457D01*
X140476155Y-110157642D01*
X140535401Y-110180861D01*
X140556005Y-110198143D01*
X140571130Y-110214391D01*
X140581990Y-110231791D01*
X140589290Y-110255812D01*
X140593737Y-110291922D01*
X140596036Y-110345588D01*
X140596896Y-110422280D01*
X140597022Y-110515643D01*
X140597022Y-110792126D01*
X140780837Y-110792126D01*
X140780837Y-109990021D01*
X140688929Y-109990021D01*
X140633749Y-109992203D01*
X140605280Y-109999951D01*
X140597025Y-110015068D01*
X140597022Y-110015516D01*
X140593192Y-110030320D01*
X140576299Y-110028640D01*
X140542712Y-110012373D01*
X140466537Y-109988440D01*
X140379400Y-109985778D01*
X140295643Y-110003826D01*
X140295643Y-110003826D01*
G37*
X140295643Y-110003826D02*
X140254054Y-110023690D01*
X140213775Y-110052384D01*
X140183090Y-110085409D01*
X140160739Y-110127531D01*
X140145464Y-110183515D01*
X140136008Y-110258128D01*
X140131113Y-110356135D01*
X140129519Y-110482302D01*
X140129494Y-110495514D01*
X140129127Y-110792126D01*
X140312943Y-110792126D01*
X140312943Y-110518681D01*
X140313073Y-110417377D01*
X140313979Y-110343953D01*
X140316427Y-110292871D01*
X140321186Y-110258590D01*
X140329026Y-110235571D01*
X140340715Y-110218273D01*
X140356998Y-110201181D01*
X140413966Y-110164457D01*
X140476155Y-110157642D01*
X140535401Y-110180861D01*
X140556005Y-110198143D01*
X140571130Y-110214391D01*
X140581990Y-110231791D01*
X140589290Y-110255812D01*
X140593737Y-110291922D01*
X140596036Y-110345588D01*
X140596896Y-110422280D01*
X140597022Y-110515643D01*
X140597022Y-110792126D01*
X140780837Y-110792126D01*
X140780837Y-109990021D01*
X140688929Y-109990021D01*
X140633749Y-109992203D01*
X140605280Y-109999951D01*
X140597025Y-110015068D01*
X140597022Y-110015516D01*
X140593192Y-110030320D01*
X140576299Y-110028640D01*
X140542712Y-110012373D01*
X140466537Y-109988440D01*
X140379400Y-109985778D01*
X140295643Y-110003826D01*
G36*
X136902212Y-109989245D02*
X136844735Y-110006806D01*
X136807728Y-110028995D01*
X136795673Y-110046542D01*
X136798991Y-110067342D01*
X136820521Y-110100019D01*
X136838726Y-110123162D01*
X136876256Y-110165002D01*
X136904452Y-110182605D01*
X136928489Y-110181456D01*
X136999792Y-110163310D01*
X137052158Y-110164134D01*
X137094682Y-110184698D01*
X137108958Y-110196734D01*
X137154653Y-110239083D01*
X137154653Y-110792126D01*
X137338469Y-110792126D01*
X137338469Y-109990021D01*
X137246561Y-109990021D01*
X137191381Y-109992203D01*
X137162912Y-109999951D01*
X137154657Y-110015068D01*
X137154653Y-110015516D01*
X137150755Y-110031349D01*
X137133126Y-110029284D01*
X137108699Y-110017861D01*
X137058250Y-109996605D01*
X137017284Y-109983816D01*
X136964572Y-109980538D01*
X136902212Y-109989245D01*
X136902212Y-109989245D01*
G37*
X136902212Y-109989245D02*
X136844735Y-110006806D01*
X136807728Y-110028995D01*
X136795673Y-110046542D01*
X136798991Y-110067342D01*
X136820521Y-110100019D01*
X136838726Y-110123162D01*
X136876256Y-110165002D01*
X136904452Y-110182605D01*
X136928489Y-110181456D01*
X136999792Y-110163310D01*
X137052158Y-110164134D01*
X137094682Y-110184698D01*
X137108958Y-110196734D01*
X137154653Y-110239083D01*
X137154653Y-110792126D01*
X137338469Y-110792126D01*
X137338469Y-109990021D01*
X137246561Y-109990021D01*
X137191381Y-109992203D01*
X137162912Y-109999951D01*
X137154657Y-110015068D01*
X137154653Y-110015516D01*
X137150755Y-110031349D01*
X137133126Y-110029284D01*
X137108699Y-110017861D01*
X137058250Y-109996605D01*
X137017284Y-109983816D01*
X136964572Y-109980538D01*
X136902212Y-109989245D01*
G36*
X138792636Y-104450176D02*
X138717087Y-104850922D01*
X138159559Y-105080754D01*
X137825135Y-104853348D01*
X137731478Y-104790031D01*
X137646818Y-104733496D01*
X137575105Y-104686327D01*
X137520289Y-104651102D01*
X137486320Y-104630405D01*
X137477070Y-104625942D01*
X137460405Y-104637420D01*
X137424794Y-104669151D01*
X137374229Y-104717083D01*
X137312700Y-104777162D01*
X137244201Y-104845333D01*
X137172721Y-104917545D01*
X137102253Y-104989742D01*
X137036789Y-105057873D01*
X136980320Y-105117883D01*
X136936837Y-105165719D01*
X136910332Y-105197327D01*
X136903995Y-105207905D01*
X136913114Y-105227406D01*
X136938680Y-105270131D01*
X136978003Y-105331898D01*
X137028397Y-105408531D01*
X137087173Y-105495848D01*
X137121232Y-105545652D01*
X137183311Y-105636593D01*
X137238474Y-105718659D01*
X137284046Y-105787763D01*
X137317350Y-105839822D01*
X137335710Y-105870750D01*
X137338469Y-105877250D01*
X137332215Y-105895721D01*
X137315166Y-105938772D01*
X137289897Y-106000349D01*
X137258978Y-106074399D01*
X137224982Y-106154870D01*
X137190482Y-106235707D01*
X137158049Y-106310858D01*
X137130257Y-106374271D01*
X137109677Y-106419893D01*
X137098881Y-106441669D01*
X137098244Y-106442526D01*
X137081293Y-106446684D01*
X137036149Y-106455961D01*
X136967490Y-106469444D01*
X136879998Y-106486221D01*
X136778350Y-106505381D01*
X136719044Y-106516430D01*
X136610428Y-106537110D01*
X136512323Y-106556789D01*
X136429691Y-106574389D01*
X136367496Y-106588833D01*
X136330701Y-106599046D01*
X136323304Y-106602286D01*
X136316060Y-106624217D01*
X136310215Y-106673747D01*
X136305765Y-106745085D01*
X136302707Y-106832439D01*
X136301035Y-106930017D01*
X136300747Y-107032026D01*
X136301839Y-107132675D01*
X136304306Y-107226172D01*
X136308144Y-107306725D01*
X136313350Y-107368542D01*
X136319919Y-107405830D01*
X136323859Y-107413593D01*
X136347412Y-107422898D01*
X136397318Y-107436200D01*
X136466977Y-107451937D01*
X136549787Y-107468546D01*
X136578695Y-107473919D01*
X136718069Y-107499448D01*
X136828164Y-107520008D01*
X136912618Y-107536415D01*
X136975070Y-107549487D01*
X137019156Y-107560041D01*
X137048515Y-107568894D01*
X137066785Y-107576863D01*
X137077602Y-107584765D01*
X137079115Y-107586327D01*
X137094223Y-107611486D01*
X137117271Y-107660450D01*
X137145956Y-107727221D01*
X137177978Y-107805805D01*
X137211035Y-107890207D01*
X137242827Y-107974430D01*
X137271051Y-108052479D01*
X137293407Y-108118359D01*
X137307593Y-108166073D01*
X137311307Y-108189627D01*
X137310998Y-108190452D01*
X137298411Y-108209704D01*
X137269856Y-108252063D01*
X137228333Y-108313121D01*
X137176844Y-108388468D01*
X137118389Y-108473696D01*
X137101742Y-108497915D01*
X137042385Y-108585723D01*
X136990153Y-108665838D01*
X136947892Y-108733662D01*
X136918447Y-108784593D01*
X136904663Y-108814031D01*
X136903995Y-108817648D01*
X136915576Y-108836657D01*
X136947576Y-108874314D01*
X136995882Y-108926573D01*
X137056380Y-108989386D01*
X137124956Y-109058706D01*
X137197496Y-109130485D01*
X137269888Y-109200677D01*
X137338016Y-109265235D01*
X137397768Y-109320110D01*
X137445029Y-109361256D01*
X137475687Y-109384626D01*
X137484168Y-109388442D01*
X137503909Y-109379455D01*
X137544326Y-109355216D01*
X137598837Y-109319809D01*
X137640777Y-109291311D01*
X137716771Y-109239018D01*
X137806766Y-109177445D01*
X137897036Y-109115970D01*
X137945568Y-109083069D01*
X138109838Y-108971959D01*
X138247731Y-109046516D01*
X138310551Y-109079178D01*
X138363971Y-109104566D01*
X138400116Y-109119046D01*
X138409316Y-109121060D01*
X138420379Y-109106184D01*
X138442206Y-109064147D01*
X138473166Y-108998827D01*
X138511630Y-108914100D01*
X138555968Y-108813845D01*
X138604553Y-108701939D01*
X138655754Y-108582259D01*
X138707941Y-108458684D01*
X138759487Y-108335091D01*
X138808760Y-108215357D01*
X138854133Y-108103359D01*
X138893975Y-108002977D01*
X138926658Y-107918086D01*
X138950551Y-107852565D01*
X138964026Y-107810290D01*
X138966194Y-107795772D01*
X138949017Y-107777253D01*
X138911410Y-107747190D01*
X138861234Y-107711832D01*
X138857022Y-107709034D01*
X138727336Y-107605225D01*
X138622766Y-107484115D01*
X138544219Y-107349576D01*
X138492601Y-107205482D01*
X138468818Y-107055705D01*
X138473777Y-106904117D01*
X138508383Y-106754592D01*
X138573543Y-106611000D01*
X138592714Y-106579584D01*
X138692426Y-106452725D01*
X138810223Y-106350855D01*
X138942029Y-106274504D01*
X139083767Y-106224202D01*
X139231358Y-106200479D01*
X139380727Y-106203865D01*
X139527797Y-106234888D01*
X139668489Y-106294080D01*
X139798727Y-106381969D01*
X139839014Y-106417642D01*
X139941545Y-106529306D01*
X140016259Y-106646857D01*
X140067510Y-106778620D01*
X140096054Y-106909107D01*
X140103100Y-107055816D01*
X140079604Y-107203253D01*
X140027951Y-107346434D01*
X139950529Y-107480377D01*
X139849725Y-107600098D01*
X139727924Y-107700614D01*
X139711916Y-107711209D01*
X139661202Y-107745906D01*
X139622650Y-107775970D01*
X139604219Y-107795165D01*
X139603951Y-107795772D01*
X139607908Y-107816536D01*
X139623593Y-107863662D01*
X139649378Y-107933273D01*
X139683631Y-108021493D01*
X139724723Y-108124444D01*
X139771024Y-108238250D01*
X139820904Y-108359035D01*
X139872733Y-108482921D01*
X139924881Y-108606032D01*
X139975718Y-108724491D01*
X140023613Y-108834423D01*
X140066938Y-108931949D01*
X140104062Y-109013193D01*
X140133356Y-109074279D01*
X140153188Y-109111330D01*
X140161174Y-109121060D01*
X140185579Y-109113483D01*
X140231242Y-109093160D01*
X140290290Y-109063725D01*
X140322760Y-109046516D01*
X140460653Y-108971959D01*
X140624923Y-109083069D01*
X140708779Y-109139990D01*
X140800587Y-109202630D01*
X140886620Y-109261611D01*
X140929713Y-109291311D01*
X140990323Y-109332010D01*
X141041645Y-109364263D01*
X141076985Y-109383984D01*
X141088463Y-109388154D01*
X141105170Y-109376907D01*
X141142146Y-109345511D01*
X141195805Y-109297224D01*
X141262562Y-109235308D01*
X141338834Y-109163021D01*
X141387073Y-109116608D01*
X141471467Y-109033687D01*
X141544403Y-108959520D01*
X141602931Y-108897280D01*
X141644103Y-108850141D01*
X141664972Y-108821273D01*
X141666974Y-108815415D01*
X141657683Y-108793132D01*
X141632009Y-108748077D01*
X141592800Y-108684811D01*
X141542903Y-108607895D01*
X141485167Y-108521892D01*
X141468749Y-108497915D01*
X141408923Y-108410770D01*
X141355250Y-108332310D01*
X141310730Y-108266945D01*
X141278365Y-108219084D01*
X141261155Y-108193135D01*
X141259493Y-108190452D01*
X141261979Y-108169772D01*
X141275177Y-108124304D01*
X141296786Y-108060044D01*
X141324504Y-107982987D01*
X141356030Y-107899129D01*
X141389063Y-107814466D01*
X141421301Y-107734992D01*
X141450443Y-107666704D01*
X141474188Y-107615597D01*
X141490235Y-107587667D01*
X141491375Y-107586327D01*
X141501188Y-107578345D01*
X141517761Y-107570451D01*
X141544732Y-107561829D01*
X141585739Y-107551662D01*
X141644420Y-107539131D01*
X141724413Y-107523421D01*
X141829355Y-107503713D01*
X141962885Y-107479192D01*
X141991796Y-107473919D01*
X142077482Y-107457364D01*
X142152182Y-107441169D01*
X142209294Y-107426896D01*
X142242217Y-107416108D01*
X142246631Y-107413593D01*
X142253906Y-107391296D01*
X142259819Y-107341469D01*
X142264366Y-107269904D01*
X142267545Y-107182393D01*
X142269349Y-107084728D01*
X142269777Y-106982701D01*
X142268823Y-106882103D01*
X142266484Y-106788727D01*
X142262756Y-106708365D01*
X142257634Y-106646809D01*
X142251116Y-106609850D01*
X142247186Y-106602286D01*
X142225308Y-106594656D01*
X142175491Y-106582242D01*
X142102697Y-106566122D01*
X142011889Y-106547373D01*
X141908031Y-106527071D01*
X141851446Y-106516430D01*
X141744086Y-106496360D01*
X141648346Y-106478180D01*
X141568906Y-106462799D01*
X141510446Y-106451131D01*
X141477645Y-106444088D01*
X141472246Y-106442526D01*
X141463122Y-106424922D01*
X141443835Y-106382518D01*
X141416955Y-106321372D01*
X141385054Y-106247543D01*
X141350702Y-106167089D01*
X141316471Y-106086068D01*
X141284931Y-106010537D01*
X141258654Y-105946555D01*
X141240211Y-105900180D01*
X141232171Y-105877469D01*
X141232022Y-105876476D01*
X141241135Y-105858561D01*
X141266686Y-105817333D01*
X141305988Y-105756891D01*
X141356357Y-105681331D01*
X141415106Y-105594752D01*
X141449258Y-105545021D01*
X141511490Y-105453836D01*
X141566764Y-105371049D01*
X141612382Y-105300849D01*
X141645648Y-105247424D01*
X141663864Y-105214961D01*
X141666495Y-105207683D01*
X141655186Y-105190745D01*
X141623919Y-105154578D01*
X141576690Y-105103235D01*
X141517492Y-105040767D01*
X141450319Y-104971226D01*
X141379166Y-104898665D01*
X141308026Y-104827135D01*
X141240893Y-104760687D01*
X141181761Y-104703374D01*
X141134625Y-104659247D01*
X141103477Y-104632359D01*
X141093057Y-104625942D01*
X141076091Y-104634965D01*
X141035511Y-104660315D01*
X140975263Y-104699410D01*
X140899293Y-104749671D01*
X140811546Y-104808517D01*
X140745356Y-104853348D01*
X140410932Y-105080754D01*
X140132167Y-104965838D01*
X139853403Y-104850922D01*
X139777854Y-104450176D01*
X139702306Y-104049429D01*
X138868185Y-104049429D01*
X138792636Y-104450176D01*
X138792636Y-104450176D01*
G37*
X138792636Y-104450176D02*
X138717087Y-104850922D01*
X138159559Y-105080754D01*
X137825135Y-104853348D01*
X137731478Y-104790031D01*
X137646818Y-104733496D01*
X137575105Y-104686327D01*
X137520289Y-104651102D01*
X137486320Y-104630405D01*
X137477070Y-104625942D01*
X137460405Y-104637420D01*
X137424794Y-104669151D01*
X137374229Y-104717083D01*
X137312700Y-104777162D01*
X137244201Y-104845333D01*
X137172721Y-104917545D01*
X137102253Y-104989742D01*
X137036789Y-105057873D01*
X136980320Y-105117883D01*
X136936837Y-105165719D01*
X136910332Y-105197327D01*
X136903995Y-105207905D01*
X136913114Y-105227406D01*
X136938680Y-105270131D01*
X136978003Y-105331898D01*
X137028397Y-105408531D01*
X137087173Y-105495848D01*
X137121232Y-105545652D01*
X137183311Y-105636593D01*
X137238474Y-105718659D01*
X137284046Y-105787763D01*
X137317350Y-105839822D01*
X137335710Y-105870750D01*
X137338469Y-105877250D01*
X137332215Y-105895721D01*
X137315166Y-105938772D01*
X137289897Y-106000349D01*
X137258978Y-106074399D01*
X137224982Y-106154870D01*
X137190482Y-106235707D01*
X137158049Y-106310858D01*
X137130257Y-106374271D01*
X137109677Y-106419893D01*
X137098881Y-106441669D01*
X137098244Y-106442526D01*
X137081293Y-106446684D01*
X137036149Y-106455961D01*
X136967490Y-106469444D01*
X136879998Y-106486221D01*
X136778350Y-106505381D01*
X136719044Y-106516430D01*
X136610428Y-106537110D01*
X136512323Y-106556789D01*
X136429691Y-106574389D01*
X136367496Y-106588833D01*
X136330701Y-106599046D01*
X136323304Y-106602286D01*
X136316060Y-106624217D01*
X136310215Y-106673747D01*
X136305765Y-106745085D01*
X136302707Y-106832439D01*
X136301035Y-106930017D01*
X136300747Y-107032026D01*
X136301839Y-107132675D01*
X136304306Y-107226172D01*
X136308144Y-107306725D01*
X136313350Y-107368542D01*
X136319919Y-107405830D01*
X136323859Y-107413593D01*
X136347412Y-107422898D01*
X136397318Y-107436200D01*
X136466977Y-107451937D01*
X136549787Y-107468546D01*
X136578695Y-107473919D01*
X136718069Y-107499448D01*
X136828164Y-107520008D01*
X136912618Y-107536415D01*
X136975070Y-107549487D01*
X137019156Y-107560041D01*
X137048515Y-107568894D01*
X137066785Y-107576863D01*
X137077602Y-107584765D01*
X137079115Y-107586327D01*
X137094223Y-107611486D01*
X137117271Y-107660450D01*
X137145956Y-107727221D01*
X137177978Y-107805805D01*
X137211035Y-107890207D01*
X137242827Y-107974430D01*
X137271051Y-108052479D01*
X137293407Y-108118359D01*
X137307593Y-108166073D01*
X137311307Y-108189627D01*
X137310998Y-108190452D01*
X137298411Y-108209704D01*
X137269856Y-108252063D01*
X137228333Y-108313121D01*
X137176844Y-108388468D01*
X137118389Y-108473696D01*
X137101742Y-108497915D01*
X137042385Y-108585723D01*
X136990153Y-108665838D01*
X136947892Y-108733662D01*
X136918447Y-108784593D01*
X136904663Y-108814031D01*
X136903995Y-108817648D01*
X136915576Y-108836657D01*
X136947576Y-108874314D01*
X136995882Y-108926573D01*
X137056380Y-108989386D01*
X137124956Y-109058706D01*
X137197496Y-109130485D01*
X137269888Y-109200677D01*
X137338016Y-109265235D01*
X137397768Y-109320110D01*
X137445029Y-109361256D01*
X137475687Y-109384626D01*
X137484168Y-109388442D01*
X137503909Y-109379455D01*
X137544326Y-109355216D01*
X137598837Y-109319809D01*
X137640777Y-109291311D01*
X137716771Y-109239018D01*
X137806766Y-109177445D01*
X137897036Y-109115970D01*
X137945568Y-109083069D01*
X138109838Y-108971959D01*
X138247731Y-109046516D01*
X138310551Y-109079178D01*
X138363971Y-109104566D01*
X138400116Y-109119046D01*
X138409316Y-109121060D01*
X138420379Y-109106184D01*
X138442206Y-109064147D01*
X138473166Y-108998827D01*
X138511630Y-108914100D01*
X138555968Y-108813845D01*
X138604553Y-108701939D01*
X138655754Y-108582259D01*
X138707941Y-108458684D01*
X138759487Y-108335091D01*
X138808760Y-108215357D01*
X138854133Y-108103359D01*
X138893975Y-108002977D01*
X138926658Y-107918086D01*
X138950551Y-107852565D01*
X138964026Y-107810290D01*
X138966194Y-107795772D01*
X138949017Y-107777253D01*
X138911410Y-107747190D01*
X138861234Y-107711832D01*
X138857022Y-107709034D01*
X138727336Y-107605225D01*
X138622766Y-107484115D01*
X138544219Y-107349576D01*
X138492601Y-107205482D01*
X138468818Y-107055705D01*
X138473777Y-106904117D01*
X138508383Y-106754592D01*
X138573543Y-106611000D01*
X138592714Y-106579584D01*
X138692426Y-106452725D01*
X138810223Y-106350855D01*
X138942029Y-106274504D01*
X139083767Y-106224202D01*
X139231358Y-106200479D01*
X139380727Y-106203865D01*
X139527797Y-106234888D01*
X139668489Y-106294080D01*
X139798727Y-106381969D01*
X139839014Y-106417642D01*
X139941545Y-106529306D01*
X140016259Y-106646857D01*
X140067510Y-106778620D01*
X140096054Y-106909107D01*
X140103100Y-107055816D01*
X140079604Y-107203253D01*
X140027951Y-107346434D01*
X139950529Y-107480377D01*
X139849725Y-107600098D01*
X139727924Y-107700614D01*
X139711916Y-107711209D01*
X139661202Y-107745906D01*
X139622650Y-107775970D01*
X139604219Y-107795165D01*
X139603951Y-107795772D01*
X139607908Y-107816536D01*
X139623593Y-107863662D01*
X139649378Y-107933273D01*
X139683631Y-108021493D01*
X139724723Y-108124444D01*
X139771024Y-108238250D01*
X139820904Y-108359035D01*
X139872733Y-108482921D01*
X139924881Y-108606032D01*
X139975718Y-108724491D01*
X140023613Y-108834423D01*
X140066938Y-108931949D01*
X140104062Y-109013193D01*
X140133356Y-109074279D01*
X140153188Y-109111330D01*
X140161174Y-109121060D01*
X140185579Y-109113483D01*
X140231242Y-109093160D01*
X140290290Y-109063725D01*
X140322760Y-109046516D01*
X140460653Y-108971959D01*
X140624923Y-109083069D01*
X140708779Y-109139990D01*
X140800587Y-109202630D01*
X140886620Y-109261611D01*
X140929713Y-109291311D01*
X140990323Y-109332010D01*
X141041645Y-109364263D01*
X141076985Y-109383984D01*
X141088463Y-109388154D01*
X141105170Y-109376907D01*
X141142146Y-109345511D01*
X141195805Y-109297224D01*
X141262562Y-109235308D01*
X141338834Y-109163021D01*
X141387073Y-109116608D01*
X141471467Y-109033687D01*
X141544403Y-108959520D01*
X141602931Y-108897280D01*
X141644103Y-108850141D01*
X141664972Y-108821273D01*
X141666974Y-108815415D01*
X141657683Y-108793132D01*
X141632009Y-108748077D01*
X141592800Y-108684811D01*
X141542903Y-108607895D01*
X141485167Y-108521892D01*
X141468749Y-108497915D01*
X141408923Y-108410770D01*
X141355250Y-108332310D01*
X141310730Y-108266945D01*
X141278365Y-108219084D01*
X141261155Y-108193135D01*
X141259493Y-108190452D01*
X141261979Y-108169772D01*
X141275177Y-108124304D01*
X141296786Y-108060044D01*
X141324504Y-107982987D01*
X141356030Y-107899129D01*
X141389063Y-107814466D01*
X141421301Y-107734992D01*
X141450443Y-107666704D01*
X141474188Y-107615597D01*
X141490235Y-107587667D01*
X141491375Y-107586327D01*
X141501188Y-107578345D01*
X141517761Y-107570451D01*
X141544732Y-107561829D01*
X141585739Y-107551662D01*
X141644420Y-107539131D01*
X141724413Y-107523421D01*
X141829355Y-107503713D01*
X141962885Y-107479192D01*
X141991796Y-107473919D01*
X142077482Y-107457364D01*
X142152182Y-107441169D01*
X142209294Y-107426896D01*
X142242217Y-107416108D01*
X142246631Y-107413593D01*
X142253906Y-107391296D01*
X142259819Y-107341469D01*
X142264366Y-107269904D01*
X142267545Y-107182393D01*
X142269349Y-107084728D01*
X142269777Y-106982701D01*
X142268823Y-106882103D01*
X142266484Y-106788727D01*
X142262756Y-106708365D01*
X142257634Y-106646809D01*
X142251116Y-106609850D01*
X142247186Y-106602286D01*
X142225308Y-106594656D01*
X142175491Y-106582242D01*
X142102697Y-106566122D01*
X142011889Y-106547373D01*
X141908031Y-106527071D01*
X141851446Y-106516430D01*
X141744086Y-106496360D01*
X141648346Y-106478180D01*
X141568906Y-106462799D01*
X141510446Y-106451131D01*
X141477645Y-106444088D01*
X141472246Y-106442526D01*
X141463122Y-106424922D01*
X141443835Y-106382518D01*
X141416955Y-106321372D01*
X141385054Y-106247543D01*
X141350702Y-106167089D01*
X141316471Y-106086068D01*
X141284931Y-106010537D01*
X141258654Y-105946555D01*
X141240211Y-105900180D01*
X141232171Y-105877469D01*
X141232022Y-105876476D01*
X141241135Y-105858561D01*
X141266686Y-105817333D01*
X141305988Y-105756891D01*
X141356357Y-105681331D01*
X141415106Y-105594752D01*
X141449258Y-105545021D01*
X141511490Y-105453836D01*
X141566764Y-105371049D01*
X141612382Y-105300849D01*
X141645648Y-105247424D01*
X141663864Y-105214961D01*
X141666495Y-105207683D01*
X141655186Y-105190745D01*
X141623919Y-105154578D01*
X141576690Y-105103235D01*
X141517492Y-105040767D01*
X141450319Y-104971226D01*
X141379166Y-104898665D01*
X141308026Y-104827135D01*
X141240893Y-104760687D01*
X141181761Y-104703374D01*
X141134625Y-104659247D01*
X141103477Y-104632359D01*
X141093057Y-104625942D01*
X141076091Y-104634965D01*
X141035511Y-104660315D01*
X140975263Y-104699410D01*
X140899293Y-104749671D01*
X140811546Y-104808517D01*
X140745356Y-104853348D01*
X140410932Y-105080754D01*
X140132167Y-104965838D01*
X139853403Y-104850922D01*
X139777854Y-104450176D01*
X139702306Y-104049429D01*
X138868185Y-104049429D01*
X138792636Y-104450176D01*
M02*
