%TF.GenerationSoftware,KiCad,Pcbnew,4.0.7*%
%TF.CreationDate,2018-02-09T12:23:56+01:00*%
%TF.ProjectId,Metronome,4D6574726F6E6F6D652E6B696361645F,1.0*%
%TF.FileFunction,Soldermask,Top*%
%FSLAX46Y46*%
G04 Gerber Fmt 4.6, Leading zero omitted, Abs format (unit mm)*
G04 Created by KiCad (PCBNEW 4.0.7) date 02/09/18 12:23:56*
%MOMM*%
%LPD*%
G01*
G04 APERTURE LIST*
%ADD10C,0.127000*%
%ADD11R,1.450000X0.500000*%
%ADD12R,1.500000X1.700000*%
%ADD13C,1.700000*%
%ADD14R,1.700000X2.000000*%
%ADD15R,1.800000X1.800000*%
%ADD16O,1.800000X1.800000*%
%ADD17R,1.650000X0.700000*%
%ADD18R,1.350000X1.600000*%
%ADD19R,1.900000X1.900000*%
%ADD20C,1.900000*%
%ADD21R,1.400000X1.600000*%
%ADD22R,1.600000X1.400000*%
%ADD23R,1.400000X1.400000*%
%ADD24R,2.100000X1.400000*%
%ADD25R,1.600000X0.700000*%
%ADD26R,0.700000X1.600000*%
%ADD27R,0.750000X1.660000*%
G04 APERTURE END LIST*
D10*
D11*
X134526400Y-105837200D03*
X134526400Y-107137200D03*
X134526400Y-108437200D03*
D12*
X134301400Y-110337200D03*
D13*
X131851400Y-103837200D03*
D12*
X134301400Y-103937200D03*
D13*
X131851400Y-110437200D03*
D14*
X131851400Y-105937200D03*
X131851400Y-108337200D03*
D15*
X157568900Y-90436700D03*
D16*
X157568900Y-92976700D03*
X157568900Y-95516700D03*
X157568900Y-98056700D03*
X157568900Y-100596700D03*
D17*
X136707900Y-88531700D03*
X136707900Y-89801700D03*
X136707900Y-91071700D03*
X136707900Y-92341700D03*
X142107900Y-92341700D03*
X142107900Y-91071700D03*
X142107900Y-89801700D03*
X142107900Y-88531700D03*
D18*
X146265900Y-91305700D03*
X146265900Y-88805700D03*
X152615900Y-106097700D03*
X152615900Y-108597700D03*
X145948400Y-102842700D03*
X145948400Y-100342700D03*
X154711400Y-108641200D03*
X154711400Y-106141200D03*
X146392900Y-95155700D03*
X146392900Y-97655700D03*
X152361900Y-89293700D03*
X152361900Y-91793700D03*
X154520900Y-91813700D03*
X154520900Y-89313700D03*
D19*
X134708900Y-79006700D03*
D20*
X137248900Y-79006700D03*
D19*
X141058900Y-79006700D03*
D20*
X143598900Y-79006700D03*
D19*
X147408900Y-79006700D03*
D20*
X149948900Y-79006700D03*
D19*
X153758900Y-79006700D03*
D20*
X156298900Y-79006700D03*
D15*
X157505400Y-105613200D03*
D16*
X157505400Y-108153200D03*
D15*
X133438900Y-90436700D03*
D16*
X133438900Y-92976700D03*
X133438900Y-95516700D03*
X133438900Y-98056700D03*
D21*
X134264400Y-86198700D03*
X134264400Y-83498700D03*
X132295900Y-86215200D03*
X132295900Y-83515200D03*
X136232900Y-86198700D03*
X136232900Y-83498700D03*
X138264900Y-86198700D03*
X138264900Y-83498700D03*
X148170900Y-88785700D03*
X148170900Y-91485700D03*
X144233900Y-88705700D03*
X144233900Y-91405700D03*
D22*
X144788900Y-110756700D03*
X147488900Y-110756700D03*
X149868900Y-110756700D03*
X152568900Y-110756700D03*
D21*
X150075900Y-91452700D03*
X150075900Y-88752700D03*
D23*
X158203900Y-84206700D03*
D24*
X152703900Y-85356700D03*
D23*
X158203900Y-86506700D03*
D17*
X144868900Y-105041700D03*
X144868900Y-106311700D03*
X144868900Y-107581700D03*
X144868900Y-108851700D03*
X150268900Y-108851700D03*
X150268900Y-107581700D03*
X150268900Y-106311700D03*
X150268900Y-105041700D03*
D25*
X148772900Y-93992700D03*
X148772900Y-95262700D03*
X148772900Y-96532700D03*
X148772900Y-97802700D03*
X148772900Y-99072700D03*
X148772900Y-100342700D03*
X148772900Y-101612700D03*
X148772900Y-102882700D03*
X154172900Y-102882700D03*
X154172900Y-101612700D03*
X154172900Y-100342700D03*
X154172900Y-99072700D03*
X154172900Y-97802700D03*
X154172900Y-96532700D03*
X154172900Y-95262700D03*
X154172900Y-93992700D03*
X137088900Y-101866700D03*
X137088900Y-103136700D03*
X137088900Y-104406700D03*
X137088900Y-105676700D03*
X137088900Y-106946700D03*
X137088900Y-108216700D03*
X137088900Y-109486700D03*
X137088900Y-110756700D03*
X142488900Y-110756700D03*
X142488900Y-109486700D03*
X142488900Y-108216700D03*
X142488900Y-106946700D03*
X142488900Y-105676700D03*
X142488900Y-104406700D03*
X142488900Y-103136700D03*
X142488900Y-101866700D03*
D26*
X136486900Y-99646700D03*
X137756900Y-99646700D03*
X139026900Y-99646700D03*
X140296900Y-99646700D03*
X141566900Y-99646700D03*
X142836900Y-99646700D03*
X144106900Y-99646700D03*
X144106900Y-94246700D03*
X142836900Y-94246700D03*
X141566900Y-94246700D03*
X140296900Y-94246700D03*
X139026900Y-94246700D03*
X137756900Y-94246700D03*
X136486900Y-94246700D03*
D27*
X147982900Y-86325700D03*
X148932900Y-86325700D03*
X149882900Y-86325700D03*
X149882900Y-83625700D03*
X147982900Y-83625700D03*
X142074900Y-83451700D03*
X141124900Y-83451700D03*
X140174900Y-83451700D03*
X140174900Y-86151700D03*
X142074900Y-86151700D03*
X144172900Y-86325700D03*
X145122900Y-86325700D03*
X146072900Y-86325700D03*
X146072900Y-83625700D03*
X144172900Y-83625700D03*
M02*
