%TF.GenerationSoftware,KiCad,Pcbnew,4.0.7*%
%TF.CreationDate,2018-02-09T12:23:56+01:00*%
%TF.ProjectId,Metronome,4D6574726F6E6F6D652E6B696361645F,1.0*%
%TF.FileFunction,Other,Fab,Top*%
%FSLAX46Y46*%
G04 Gerber Fmt 4.6, Leading zero omitted, Abs format (unit mm)*
G04 Created by KiCad (PCBNEW 4.0.7) date 02/09/18 12:23:56*
%MOMM*%
%LPD*%
G01*
G04 APERTURE LIST*
%ADD10C,0.127000*%
%ADD11C,0.100000*%
%ADD12C,0.150000*%
%ADD13C,0.200000*%
%ADD14C,0.075000*%
%ADD15C,0.135000*%
G04 APERTURE END LIST*
D10*
D11*
X156298900Y-89166700D02*
X156298900Y-101866700D01*
X156298900Y-101866700D02*
X158838900Y-101866700D01*
X158838900Y-101866700D02*
X158838900Y-89166700D01*
X158838900Y-89166700D02*
X156298900Y-89166700D01*
X138457900Y-87986700D02*
X141357900Y-87986700D01*
X141357900Y-87986700D02*
X141357900Y-92886700D01*
X141357900Y-92886700D02*
X137457900Y-92886700D01*
X137457900Y-92886700D02*
X137457900Y-88986700D01*
X137457900Y-88986700D02*
X138457900Y-87986700D01*
X146885900Y-91055700D02*
X145645900Y-91055700D01*
X146885900Y-89055700D02*
X146885900Y-91055700D01*
X145645900Y-89055700D02*
X146885900Y-89055700D01*
X145645900Y-91055700D02*
X145645900Y-89055700D01*
X151995900Y-106347700D02*
X153235900Y-106347700D01*
X151995900Y-108347700D02*
X151995900Y-106347700D01*
X153235900Y-108347700D02*
X151995900Y-108347700D01*
X153235900Y-106347700D02*
X153235900Y-108347700D01*
X146568400Y-102592700D02*
X145328400Y-102592700D01*
X146568400Y-100592700D02*
X146568400Y-102592700D01*
X145328400Y-100592700D02*
X146568400Y-100592700D01*
X145328400Y-102592700D02*
X145328400Y-100592700D01*
X155331400Y-108391200D02*
X154091400Y-108391200D01*
X155331400Y-106391200D02*
X155331400Y-108391200D01*
X154091400Y-106391200D02*
X155331400Y-106391200D01*
X154091400Y-108391200D02*
X154091400Y-106391200D01*
X145772900Y-95405700D02*
X147012900Y-95405700D01*
X145772900Y-97405700D02*
X145772900Y-95405700D01*
X147012900Y-97405700D02*
X145772900Y-97405700D01*
X147012900Y-95405700D02*
X147012900Y-97405700D01*
X151741900Y-89543700D02*
X152981900Y-89543700D01*
X151741900Y-91543700D02*
X151741900Y-89543700D01*
X152981900Y-91543700D02*
X151741900Y-91543700D01*
X152981900Y-89543700D02*
X152981900Y-91543700D01*
X155140900Y-91563700D02*
X153900900Y-91563700D01*
X155140900Y-89563700D02*
X155140900Y-91563700D01*
X153900900Y-89563700D02*
X155140900Y-89563700D01*
X153900900Y-91563700D02*
X153900900Y-89563700D01*
X133478884Y-80476366D02*
G75*
G03X133478900Y-77537006I2500016J1469666D01*
G01*
X138478900Y-79006700D02*
G75*
G03X138478900Y-79006700I-2500000J0D01*
G01*
X133478900Y-77537006D02*
X133478900Y-80476394D01*
X139828884Y-80476366D02*
G75*
G03X139828900Y-77537006I2500016J1469666D01*
G01*
X144828900Y-79006700D02*
G75*
G03X144828900Y-79006700I-2500000J0D01*
G01*
X139828900Y-77537006D02*
X139828900Y-80476394D01*
X146178884Y-80476366D02*
G75*
G03X146178900Y-77537006I2500016J1469666D01*
G01*
X151178900Y-79006700D02*
G75*
G03X151178900Y-79006700I-2500000J0D01*
G01*
X146178900Y-77537006D02*
X146178900Y-80476394D01*
X152528884Y-80476366D02*
G75*
G03X152528900Y-77537006I2500016J1469666D01*
G01*
X157528900Y-79006700D02*
G75*
G03X157528900Y-79006700I-2500000J0D01*
G01*
X152528900Y-77537006D02*
X152528900Y-80476394D01*
X156235400Y-104343200D02*
X156235400Y-109423200D01*
X156235400Y-109423200D02*
X158775400Y-109423200D01*
X158775400Y-109423200D02*
X158775400Y-104343200D01*
X158775400Y-104343200D02*
X156235400Y-104343200D01*
X132168900Y-89166700D02*
X132168900Y-99326700D01*
X132168900Y-99326700D02*
X134708900Y-99326700D01*
X134708900Y-99326700D02*
X134708900Y-89166700D01*
X134708900Y-89166700D02*
X132168900Y-89166700D01*
X134884400Y-85848700D02*
X133644400Y-85848700D01*
X134884400Y-83848700D02*
X134884400Y-85848700D01*
X133644400Y-83848700D02*
X134884400Y-83848700D01*
X133644400Y-85848700D02*
X133644400Y-83848700D01*
X132915900Y-85865200D02*
X131675900Y-85865200D01*
X132915900Y-83865200D02*
X132915900Y-85865200D01*
X131675900Y-83865200D02*
X132915900Y-83865200D01*
X131675900Y-85865200D02*
X131675900Y-83865200D01*
X136852900Y-85848700D02*
X135612900Y-85848700D01*
X136852900Y-83848700D02*
X136852900Y-85848700D01*
X135612900Y-83848700D02*
X136852900Y-83848700D01*
X135612900Y-85848700D02*
X135612900Y-83848700D01*
X138884900Y-85848700D02*
X137644900Y-85848700D01*
X138884900Y-83848700D02*
X138884900Y-85848700D01*
X137644900Y-83848700D02*
X138884900Y-83848700D01*
X137644900Y-85848700D02*
X137644900Y-83848700D01*
X147550900Y-89135700D02*
X148790900Y-89135700D01*
X147550900Y-91135700D02*
X147550900Y-89135700D01*
X148790900Y-91135700D02*
X147550900Y-91135700D01*
X148790900Y-89135700D02*
X148790900Y-91135700D01*
X143613900Y-89055700D02*
X144853900Y-89055700D01*
X143613900Y-91055700D02*
X143613900Y-89055700D01*
X144853900Y-91055700D02*
X143613900Y-91055700D01*
X144853900Y-89055700D02*
X144853900Y-91055700D01*
X145138900Y-111376700D02*
X145138900Y-110136700D01*
X147138900Y-111376700D02*
X145138900Y-111376700D01*
X147138900Y-110136700D02*
X147138900Y-111376700D01*
X145138900Y-110136700D02*
X147138900Y-110136700D01*
X150218900Y-111376700D02*
X150218900Y-110136700D01*
X152218900Y-111376700D02*
X150218900Y-111376700D01*
X152218900Y-110136700D02*
X152218900Y-111376700D01*
X150218900Y-110136700D02*
X152218900Y-110136700D01*
X150695900Y-91102700D02*
X149455900Y-91102700D01*
X150695900Y-89102700D02*
X150695900Y-91102700D01*
X149455900Y-89102700D02*
X150695900Y-89102700D01*
X149455900Y-91102700D02*
X149455900Y-89102700D01*
X152953900Y-82856700D02*
X152953900Y-87856700D01*
X152953900Y-87856700D02*
X157953900Y-87856700D01*
X157953900Y-87856700D02*
X157953900Y-82856700D01*
X157953900Y-82856700D02*
X152953900Y-82856700D01*
X154533900Y-85296700D02*
X155393900Y-85296700D01*
X155393900Y-85296700D02*
X155393900Y-84436700D01*
X155393900Y-84436700D02*
X155513900Y-84436700D01*
X155513900Y-84436700D02*
X155513900Y-85296700D01*
X155513900Y-85296700D02*
X156373900Y-85296700D01*
X156373900Y-85296700D02*
X156373900Y-85416700D01*
X156373900Y-85416700D02*
X155513900Y-85416700D01*
X155513900Y-85416700D02*
X155513900Y-86276700D01*
X155513900Y-86276700D02*
X155393900Y-86276700D01*
X155393900Y-86276700D02*
X155393900Y-85416700D01*
X155393900Y-85416700D02*
X154533900Y-85416700D01*
X154533900Y-85416700D02*
X154533900Y-85296700D01*
X156603900Y-85356700D02*
G75*
G03X156603900Y-85356700I-1150000J0D01*
G01*
X146618900Y-104496700D02*
X149518900Y-104496700D01*
X149518900Y-104496700D02*
X149518900Y-109396700D01*
X149518900Y-109396700D02*
X145618900Y-109396700D01*
X145618900Y-109396700D02*
X145618900Y-105496700D01*
X145618900Y-105496700D02*
X146618900Y-104496700D01*
D12*
X150522900Y-93487700D02*
X153422900Y-93487700D01*
X153422900Y-93487700D02*
X153422900Y-103387700D01*
X153422900Y-103387700D02*
X149522900Y-103387700D01*
X149522900Y-103387700D02*
X149522900Y-94487700D01*
X149522900Y-94487700D02*
X150522900Y-93487700D01*
X138838900Y-101361700D02*
X141738900Y-101361700D01*
X141738900Y-101361700D02*
X141738900Y-111261700D01*
X141738900Y-111261700D02*
X137838900Y-111261700D01*
X137838900Y-111261700D02*
X137838900Y-102361700D01*
X137838900Y-102361700D02*
X138838900Y-101361700D01*
X135946900Y-97896700D02*
X135946900Y-94996700D01*
X135946900Y-94996700D02*
X144646900Y-94996700D01*
X144646900Y-94996700D02*
X144646900Y-98896700D01*
X144646900Y-98896700D02*
X136946900Y-98896700D01*
X136946900Y-98896700D02*
X135946900Y-97896700D01*
D11*
X148032900Y-85875700D02*
X147382900Y-85225700D01*
X147382900Y-84075700D02*
X147382900Y-85225700D01*
X148032900Y-85875700D02*
X150482900Y-85875700D01*
X150482900Y-84075700D02*
X150482900Y-85875700D01*
X147382900Y-84075700D02*
X150482900Y-84075700D01*
X142024900Y-83901700D02*
X142674900Y-84551700D01*
X142674900Y-85701700D02*
X142674900Y-84551700D01*
X142024900Y-83901700D02*
X139574900Y-83901700D01*
X139574900Y-85701700D02*
X139574900Y-83901700D01*
X142674900Y-85701700D02*
X139574900Y-85701700D01*
X144222900Y-85875700D02*
X143572900Y-85225700D01*
X143572900Y-84075700D02*
X143572900Y-85225700D01*
X144222900Y-85875700D02*
X146672900Y-85875700D01*
X146672900Y-84075700D02*
X146672900Y-85875700D01*
X143572900Y-84075700D02*
X146672900Y-84075700D01*
D12*
X128128781Y-110184819D02*
X128938305Y-110184819D01*
X129033543Y-110137200D01*
X129081162Y-110089581D01*
X129128781Y-109994343D01*
X129128781Y-109803866D01*
X129081162Y-109708628D01*
X129033543Y-109661009D01*
X128938305Y-109613390D01*
X128128781Y-109613390D01*
X129081162Y-109184819D02*
X129128781Y-109041962D01*
X129128781Y-108803866D01*
X129081162Y-108708628D01*
X129033543Y-108661009D01*
X128938305Y-108613390D01*
X128843067Y-108613390D01*
X128747829Y-108661009D01*
X128700210Y-108708628D01*
X128652590Y-108803866D01*
X128604971Y-108994343D01*
X128557352Y-109089581D01*
X128509733Y-109137200D01*
X128414495Y-109184819D01*
X128319257Y-109184819D01*
X128224019Y-109137200D01*
X128176400Y-109089581D01*
X128128781Y-108994343D01*
X128128781Y-108756247D01*
X128176400Y-108613390D01*
X128604971Y-107851485D02*
X128652590Y-107708628D01*
X128700210Y-107661009D01*
X128795448Y-107613390D01*
X128938305Y-107613390D01*
X129033543Y-107661009D01*
X129081162Y-107708628D01*
X129128781Y-107803866D01*
X129128781Y-108184819D01*
X128128781Y-108184819D01*
X128128781Y-107851485D01*
X128176400Y-107756247D01*
X128224019Y-107708628D01*
X128319257Y-107661009D01*
X128414495Y-107661009D01*
X128509733Y-107708628D01*
X128557352Y-107756247D01*
X128604971Y-107851485D01*
X128604971Y-108184819D01*
X129224019Y-107422914D02*
X129224019Y-106661009D01*
X128128781Y-106232438D02*
X128128781Y-106041961D01*
X128176400Y-105946723D01*
X128271638Y-105851485D01*
X128462114Y-105803866D01*
X128795448Y-105803866D01*
X128985924Y-105851485D01*
X129081162Y-105946723D01*
X129128781Y-106041961D01*
X129128781Y-106232438D01*
X129081162Y-106327676D01*
X128985924Y-106422914D01*
X128795448Y-106470533D01*
X128462114Y-106470533D01*
X128271638Y-106422914D01*
X128176400Y-106327676D01*
X128128781Y-106232438D01*
X128128781Y-105518152D02*
X128128781Y-104946723D01*
X129128781Y-105232438D02*
X128128781Y-105232438D01*
X128176400Y-104089580D02*
X128128781Y-104184818D01*
X128128781Y-104327675D01*
X128176400Y-104470533D01*
X128271638Y-104565771D01*
X128366876Y-104613390D01*
X128557352Y-104661009D01*
X128700210Y-104661009D01*
X128890686Y-104613390D01*
X128985924Y-104565771D01*
X129081162Y-104470533D01*
X129128781Y-104327675D01*
X129128781Y-104232437D01*
X129081162Y-104089580D01*
X129033543Y-104041961D01*
X128700210Y-104041961D01*
X128700210Y-104232437D01*
X153545091Y-103283843D02*
X153497472Y-103331462D01*
X153354615Y-103379081D01*
X153259377Y-103379081D01*
X153116519Y-103331462D01*
X153021281Y-103236224D01*
X152973662Y-103140986D01*
X152926043Y-102950510D01*
X152926043Y-102807652D01*
X152973662Y-102617176D01*
X153021281Y-102521938D01*
X153116519Y-102426700D01*
X153259377Y-102379081D01*
X153354615Y-102379081D01*
X153497472Y-102426700D01*
X153545091Y-102474319D01*
X154164138Y-102379081D02*
X154354615Y-102379081D01*
X154449853Y-102426700D01*
X154545091Y-102521938D01*
X154592710Y-102712414D01*
X154592710Y-103045748D01*
X154545091Y-103236224D01*
X154449853Y-103331462D01*
X154354615Y-103379081D01*
X154164138Y-103379081D01*
X154068900Y-103331462D01*
X153973662Y-103236224D01*
X153926043Y-103045748D01*
X153926043Y-102712414D01*
X153973662Y-102521938D01*
X154068900Y-102426700D01*
X154164138Y-102379081D01*
X155021281Y-103379081D02*
X155021281Y-102379081D01*
X155592710Y-103379081D01*
X155592710Y-102379081D01*
X156068900Y-103379081D02*
X156068900Y-102379081D01*
X156640329Y-103379081D01*
X156640329Y-102379081D01*
X156878424Y-103474319D02*
X157640329Y-103474319D01*
X158068900Y-102379081D02*
X158164139Y-102379081D01*
X158259377Y-102426700D01*
X158306996Y-102474319D01*
X158354615Y-102569557D01*
X158402234Y-102760033D01*
X158402234Y-102998129D01*
X158354615Y-103188605D01*
X158306996Y-103283843D01*
X158259377Y-103331462D01*
X158164139Y-103379081D01*
X158068900Y-103379081D01*
X157973662Y-103331462D01*
X157926043Y-103283843D01*
X157878424Y-103188605D01*
X157830805Y-102998129D01*
X157830805Y-102760033D01*
X157878424Y-102569557D01*
X157926043Y-102474319D01*
X157973662Y-102426700D01*
X158068900Y-102379081D01*
X159354615Y-103379081D02*
X158783186Y-103379081D01*
X159068900Y-103379081D02*
X159068900Y-102379081D01*
X158973662Y-102521938D01*
X158878424Y-102617176D01*
X158783186Y-102664795D01*
X159687948Y-102379081D02*
X160354615Y-103379081D01*
X160354615Y-102379081D02*
X159687948Y-103379081D01*
X160926043Y-102379081D02*
X161021282Y-102379081D01*
X161116520Y-102426700D01*
X161164139Y-102474319D01*
X161211758Y-102569557D01*
X161259377Y-102760033D01*
X161259377Y-102998129D01*
X161211758Y-103188605D01*
X161164139Y-103283843D01*
X161116520Y-103331462D01*
X161021282Y-103379081D01*
X160926043Y-103379081D01*
X160830805Y-103331462D01*
X160783186Y-103283843D01*
X160735567Y-103188605D01*
X160687948Y-102998129D01*
X160687948Y-102760033D01*
X160735567Y-102569557D01*
X160783186Y-102474319D01*
X160830805Y-102426700D01*
X160926043Y-102379081D01*
X162164139Y-102379081D02*
X161687948Y-102379081D01*
X161640329Y-102855271D01*
X161687948Y-102807652D01*
X161783186Y-102760033D01*
X162021282Y-102760033D01*
X162116520Y-102807652D01*
X162164139Y-102855271D01*
X162211758Y-102950510D01*
X162211758Y-103188605D01*
X162164139Y-103283843D01*
X162116520Y-103331462D01*
X162021282Y-103379081D01*
X161783186Y-103379081D01*
X161687948Y-103331462D01*
X161640329Y-103283843D01*
X156830805Y-88559081D02*
X156830805Y-87559081D01*
X157211758Y-87559081D01*
X157306996Y-87606700D01*
X157354615Y-87654319D01*
X157402234Y-87749557D01*
X157402234Y-87892414D01*
X157354615Y-87987652D01*
X157306996Y-88035271D01*
X157211758Y-88082890D01*
X156830805Y-88082890D01*
X157735567Y-87559081D02*
X158354615Y-87559081D01*
X158021281Y-87940033D01*
X158164139Y-87940033D01*
X158259377Y-87987652D01*
X158306996Y-88035271D01*
X158354615Y-88130510D01*
X158354615Y-88368605D01*
X158306996Y-88463843D01*
X158259377Y-88511462D01*
X158164139Y-88559081D01*
X157878424Y-88559081D01*
X157783186Y-88511462D01*
X157735567Y-88463843D01*
X137241233Y-94389081D02*
X137241233Y-93389081D01*
X137812662Y-94389081D01*
X137812662Y-93389081D01*
X138288852Y-93865271D02*
X138622186Y-93865271D01*
X138765043Y-94389081D02*
X138288852Y-94389081D01*
X138288852Y-93389081D01*
X138765043Y-93389081D01*
X139669805Y-93389081D02*
X139193614Y-93389081D01*
X139145995Y-93865271D01*
X139193614Y-93817652D01*
X139288852Y-93770033D01*
X139526948Y-93770033D01*
X139622186Y-93817652D01*
X139669805Y-93865271D01*
X139717424Y-93960510D01*
X139717424Y-94198605D01*
X139669805Y-94293843D01*
X139622186Y-94341462D01*
X139526948Y-94389081D01*
X139288852Y-94389081D01*
X139193614Y-94341462D01*
X139145995Y-94293843D01*
X140622186Y-93389081D02*
X140145995Y-93389081D01*
X140098376Y-93865271D01*
X140145995Y-93817652D01*
X140241233Y-93770033D01*
X140479329Y-93770033D01*
X140574567Y-93817652D01*
X140622186Y-93865271D01*
X140669805Y-93960510D01*
X140669805Y-94198605D01*
X140622186Y-94293843D01*
X140574567Y-94341462D01*
X140479329Y-94389081D01*
X140241233Y-94389081D01*
X140145995Y-94341462D01*
X140098376Y-94293843D01*
X141574567Y-93389081D02*
X141098376Y-93389081D01*
X141050757Y-93865271D01*
X141098376Y-93817652D01*
X141193614Y-93770033D01*
X141431710Y-93770033D01*
X141526948Y-93817652D01*
X141574567Y-93865271D01*
X141622186Y-93960510D01*
X141622186Y-94198605D01*
X141574567Y-94293843D01*
X141526948Y-94341462D01*
X141431710Y-94389081D01*
X141193614Y-94389081D01*
X141098376Y-94341462D01*
X141050757Y-94293843D01*
X138645995Y-89889081D02*
X138645995Y-90698605D01*
X138693614Y-90793843D01*
X138741233Y-90841462D01*
X138836471Y-90889081D01*
X139026948Y-90889081D01*
X139122186Y-90841462D01*
X139169805Y-90793843D01*
X139217424Y-90698605D01*
X139217424Y-89889081D01*
X140217424Y-90889081D02*
X139645995Y-90889081D01*
X139931709Y-90889081D02*
X139931709Y-89889081D01*
X139836471Y-90031938D01*
X139741233Y-90127176D01*
X139645995Y-90174795D01*
X147801614Y-91222366D02*
X148468281Y-91222366D01*
X147420662Y-91460462D02*
X148134948Y-91698557D01*
X148134948Y-91079509D01*
X147468281Y-90793795D02*
X147468281Y-90127128D01*
X148468281Y-90555700D01*
X147801614Y-89746176D02*
X148468281Y-89746176D01*
X147896852Y-89746176D02*
X147849233Y-89698557D01*
X147801614Y-89603319D01*
X147801614Y-89460461D01*
X147849233Y-89365223D01*
X147944471Y-89317604D01*
X148468281Y-89317604D01*
X147944471Y-88508080D02*
X147944471Y-88841414D01*
X148468281Y-88841414D02*
X147468281Y-88841414D01*
X147468281Y-88365223D01*
X144873043Y-90222366D02*
X144920662Y-90269985D01*
X144968281Y-90412842D01*
X144968281Y-90508080D01*
X144920662Y-90650938D01*
X144825424Y-90746176D01*
X144730186Y-90793795D01*
X144539710Y-90841414D01*
X144396852Y-90841414D01*
X144206376Y-90793795D01*
X144111138Y-90746176D01*
X144015900Y-90650938D01*
X143968281Y-90508080D01*
X143968281Y-90412842D01*
X144015900Y-90269985D01*
X144063519Y-90222366D01*
X144968281Y-89269985D02*
X144968281Y-89841414D01*
X144968281Y-89555700D02*
X143968281Y-89555700D01*
X144111138Y-89650938D01*
X144206376Y-89746176D01*
X144253995Y-89841414D01*
X151318281Y-108419128D02*
X151318281Y-108990557D01*
X151318281Y-108704843D02*
X150318281Y-108704843D01*
X150461138Y-108800081D01*
X150556376Y-108895319D01*
X150603995Y-108990557D01*
X150318281Y-107800081D02*
X150318281Y-107704842D01*
X150365900Y-107609604D01*
X150413519Y-107561985D01*
X150508757Y-107514366D01*
X150699233Y-107466747D01*
X150937329Y-107466747D01*
X151127805Y-107514366D01*
X151223043Y-107561985D01*
X151270662Y-107609604D01*
X151318281Y-107704842D01*
X151318281Y-107800081D01*
X151270662Y-107895319D01*
X151223043Y-107942938D01*
X151127805Y-107990557D01*
X150937329Y-108038176D01*
X150699233Y-108038176D01*
X150508757Y-107990557D01*
X150413519Y-107942938D01*
X150365900Y-107895319D01*
X150318281Y-107800081D01*
X150651614Y-106609604D02*
X151318281Y-106609604D01*
X150651614Y-107038176D02*
X151175424Y-107038176D01*
X151270662Y-106990557D01*
X151318281Y-106895319D01*
X151318281Y-106752461D01*
X151270662Y-106657223D01*
X151223043Y-106609604D01*
X150794471Y-105800080D02*
X150794471Y-106133414D01*
X151318281Y-106133414D02*
X150318281Y-106133414D01*
X150318281Y-105657223D01*
X154723043Y-107514366D02*
X154770662Y-107561985D01*
X154818281Y-107704842D01*
X154818281Y-107800080D01*
X154770662Y-107942938D01*
X154675424Y-108038176D01*
X154580186Y-108085795D01*
X154389710Y-108133414D01*
X154246852Y-108133414D01*
X154056376Y-108085795D01*
X153961138Y-108038176D01*
X153865900Y-107942938D01*
X153818281Y-107800080D01*
X153818281Y-107704842D01*
X153865900Y-107561985D01*
X153913519Y-107514366D01*
X153913519Y-107133414D02*
X153865900Y-107085795D01*
X153818281Y-106990557D01*
X153818281Y-106752461D01*
X153865900Y-106657223D01*
X153913519Y-106609604D01*
X154008757Y-106561985D01*
X154103995Y-106561985D01*
X154246852Y-106609604D01*
X154818281Y-107181033D01*
X154818281Y-106561985D01*
X148150781Y-102664128D02*
X148150781Y-103235557D01*
X148150781Y-102949843D02*
X147150781Y-102949843D01*
X147293638Y-103045081D01*
X147388876Y-103140319D01*
X147436495Y-103235557D01*
X147150781Y-102045081D02*
X147150781Y-101949842D01*
X147198400Y-101854604D01*
X147246019Y-101806985D01*
X147341257Y-101759366D01*
X147531733Y-101711747D01*
X147769829Y-101711747D01*
X147960305Y-101759366D01*
X148055543Y-101806985D01*
X148103162Y-101854604D01*
X148150781Y-101949842D01*
X148150781Y-102045081D01*
X148103162Y-102140319D01*
X148055543Y-102187938D01*
X147960305Y-102235557D01*
X147769829Y-102283176D01*
X147531733Y-102283176D01*
X147341257Y-102235557D01*
X147246019Y-102187938D01*
X147198400Y-102140319D01*
X147150781Y-102045081D01*
X147484114Y-101283176D02*
X148150781Y-101283176D01*
X147579352Y-101283176D02*
X147531733Y-101235557D01*
X147484114Y-101140319D01*
X147484114Y-100997461D01*
X147531733Y-100902223D01*
X147626971Y-100854604D01*
X148150781Y-100854604D01*
X147626971Y-100045080D02*
X147626971Y-100378414D01*
X148150781Y-100378414D02*
X147150781Y-100378414D01*
X147150781Y-99902223D01*
X144555543Y-101759366D02*
X144603162Y-101806985D01*
X144650781Y-101949842D01*
X144650781Y-102045080D01*
X144603162Y-102187938D01*
X144507924Y-102283176D01*
X144412686Y-102330795D01*
X144222210Y-102378414D01*
X144079352Y-102378414D01*
X143888876Y-102330795D01*
X143793638Y-102283176D01*
X143698400Y-102187938D01*
X143650781Y-102045080D01*
X143650781Y-101949842D01*
X143698400Y-101806985D01*
X143746019Y-101759366D01*
X143650781Y-101426033D02*
X143650781Y-100806985D01*
X144031733Y-101140319D01*
X144031733Y-100997461D01*
X144079352Y-100902223D01*
X144126971Y-100854604D01*
X144222210Y-100806985D01*
X144460305Y-100806985D01*
X144555543Y-100854604D01*
X144603162Y-100902223D01*
X144650781Y-100997461D01*
X144650781Y-101283176D01*
X144603162Y-101378414D01*
X144555543Y-101426033D01*
X156913781Y-108462628D02*
X156913781Y-109034057D01*
X156913781Y-108748343D02*
X155913781Y-108748343D01*
X156056638Y-108843581D01*
X156151876Y-108938819D01*
X156199495Y-109034057D01*
X155913781Y-107843581D02*
X155913781Y-107748342D01*
X155961400Y-107653104D01*
X156009019Y-107605485D01*
X156104257Y-107557866D01*
X156294733Y-107510247D01*
X156532829Y-107510247D01*
X156723305Y-107557866D01*
X156818543Y-107605485D01*
X156866162Y-107653104D01*
X156913781Y-107748342D01*
X156913781Y-107843581D01*
X156866162Y-107938819D01*
X156818543Y-107986438D01*
X156723305Y-108034057D01*
X156532829Y-108081676D01*
X156294733Y-108081676D01*
X156104257Y-108034057D01*
X156009019Y-107986438D01*
X155961400Y-107938819D01*
X155913781Y-107843581D01*
X156247114Y-107081676D02*
X156913781Y-107081676D01*
X156342352Y-107081676D02*
X156294733Y-107034057D01*
X156247114Y-106938819D01*
X156247114Y-106795961D01*
X156294733Y-106700723D01*
X156389971Y-106653104D01*
X156913781Y-106653104D01*
X156389971Y-105843580D02*
X156389971Y-106176914D01*
X156913781Y-106176914D02*
X155913781Y-106176914D01*
X155913781Y-105700723D01*
X153318543Y-107557866D02*
X153366162Y-107605485D01*
X153413781Y-107748342D01*
X153413781Y-107843580D01*
X153366162Y-107986438D01*
X153270924Y-108081676D01*
X153175686Y-108129295D01*
X152985210Y-108176914D01*
X152842352Y-108176914D01*
X152651876Y-108129295D01*
X152556638Y-108081676D01*
X152461400Y-107986438D01*
X152413781Y-107843580D01*
X152413781Y-107748342D01*
X152461400Y-107605485D01*
X152509019Y-107557866D01*
X152747114Y-106700723D02*
X153413781Y-106700723D01*
X152366162Y-106938819D02*
X153080448Y-107176914D01*
X153080448Y-106557866D01*
X145095281Y-97477128D02*
X145095281Y-98048557D01*
X145095281Y-97762843D02*
X144095281Y-97762843D01*
X144238138Y-97858081D01*
X144333376Y-97953319D01*
X144380995Y-98048557D01*
X144095281Y-96858081D02*
X144095281Y-96762842D01*
X144142900Y-96667604D01*
X144190519Y-96619985D01*
X144285757Y-96572366D01*
X144476233Y-96524747D01*
X144714329Y-96524747D01*
X144904805Y-96572366D01*
X145000043Y-96619985D01*
X145047662Y-96667604D01*
X145095281Y-96762842D01*
X145095281Y-96858081D01*
X145047662Y-96953319D01*
X145000043Y-97000938D01*
X144904805Y-97048557D01*
X144714329Y-97096176D01*
X144476233Y-97096176D01*
X144285757Y-97048557D01*
X144190519Y-97000938D01*
X144142900Y-96953319D01*
X144095281Y-96858081D01*
X144428614Y-96096176D02*
X145095281Y-96096176D01*
X144523852Y-96096176D02*
X144476233Y-96048557D01*
X144428614Y-95953319D01*
X144428614Y-95810461D01*
X144476233Y-95715223D01*
X144571471Y-95667604D01*
X145095281Y-95667604D01*
X144571471Y-94858080D02*
X144571471Y-95191414D01*
X145095281Y-95191414D02*
X144095281Y-95191414D01*
X144095281Y-94715223D01*
X148500043Y-96572366D02*
X148547662Y-96619985D01*
X148595281Y-96762842D01*
X148595281Y-96858080D01*
X148547662Y-97000938D01*
X148452424Y-97096176D01*
X148357186Y-97143795D01*
X148166710Y-97191414D01*
X148023852Y-97191414D01*
X147833376Y-97143795D01*
X147738138Y-97096176D01*
X147642900Y-97000938D01*
X147595281Y-96858080D01*
X147595281Y-96762842D01*
X147642900Y-96619985D01*
X147690519Y-96572366D01*
X147595281Y-95667604D02*
X147595281Y-96143795D01*
X148071471Y-96191414D01*
X148023852Y-96143795D01*
X147976233Y-96048557D01*
X147976233Y-95810461D01*
X148023852Y-95715223D01*
X148071471Y-95667604D01*
X148166710Y-95619985D01*
X148404805Y-95619985D01*
X148500043Y-95667604D01*
X148547662Y-95715223D01*
X148595281Y-95810461D01*
X148595281Y-96048557D01*
X148547662Y-96143795D01*
X148500043Y-96191414D01*
X150064281Y-92662748D02*
X150064281Y-92567509D01*
X150111900Y-92472271D01*
X150159519Y-92424652D01*
X150254757Y-92377033D01*
X150445233Y-92329414D01*
X150683329Y-92329414D01*
X150873805Y-92377033D01*
X150969043Y-92424652D01*
X151016662Y-92472271D01*
X151064281Y-92567509D01*
X151064281Y-92662748D01*
X151016662Y-92757986D01*
X150969043Y-92805605D01*
X150873805Y-92853224D01*
X150683329Y-92900843D01*
X150445233Y-92900843D01*
X150254757Y-92853224D01*
X150159519Y-92805605D01*
X150111900Y-92757986D01*
X150064281Y-92662748D01*
X150969043Y-91900843D02*
X151016662Y-91853224D01*
X151064281Y-91900843D01*
X151016662Y-91948462D01*
X150969043Y-91900843D01*
X151064281Y-91900843D01*
X150064281Y-91234177D02*
X150064281Y-91138938D01*
X150111900Y-91043700D01*
X150159519Y-90996081D01*
X150254757Y-90948462D01*
X150445233Y-90900843D01*
X150683329Y-90900843D01*
X150873805Y-90948462D01*
X150969043Y-90996081D01*
X151016662Y-91043700D01*
X151064281Y-91138938D01*
X151064281Y-91234177D01*
X151016662Y-91329415D01*
X150969043Y-91377034D01*
X150873805Y-91424653D01*
X150683329Y-91472272D01*
X150445233Y-91472272D01*
X150254757Y-91424653D01*
X150159519Y-91377034D01*
X150111900Y-91329415D01*
X150064281Y-91234177D01*
X151064281Y-89948462D02*
X151064281Y-90519891D01*
X151064281Y-90234177D02*
X150064281Y-90234177D01*
X150207138Y-90329415D01*
X150302376Y-90424653D01*
X150349995Y-90519891D01*
X150397614Y-89091319D02*
X151064281Y-89091319D01*
X150397614Y-89519891D02*
X150921424Y-89519891D01*
X151016662Y-89472272D01*
X151064281Y-89377034D01*
X151064281Y-89234176D01*
X151016662Y-89138938D01*
X150969043Y-89091319D01*
X150540471Y-88281795D02*
X150540471Y-88615129D01*
X151064281Y-88615129D02*
X150064281Y-88615129D01*
X150064281Y-88138938D01*
X154469043Y-90710366D02*
X154516662Y-90757985D01*
X154564281Y-90900842D01*
X154564281Y-90996080D01*
X154516662Y-91138938D01*
X154421424Y-91234176D01*
X154326186Y-91281795D01*
X154135710Y-91329414D01*
X153992852Y-91329414D01*
X153802376Y-91281795D01*
X153707138Y-91234176D01*
X153611900Y-91138938D01*
X153564281Y-90996080D01*
X153564281Y-90900842D01*
X153611900Y-90757985D01*
X153659519Y-90710366D01*
X153564281Y-89853223D02*
X153564281Y-90043700D01*
X153611900Y-90138938D01*
X153659519Y-90186557D01*
X153802376Y-90281795D01*
X153992852Y-90329414D01*
X154373805Y-90329414D01*
X154469043Y-90281795D01*
X154516662Y-90234176D01*
X154564281Y-90138938D01*
X154564281Y-89948461D01*
X154516662Y-89853223D01*
X154469043Y-89805604D01*
X154373805Y-89757985D01*
X154135710Y-89757985D01*
X154040471Y-89805604D01*
X153992852Y-89853223D01*
X153945233Y-89948461D01*
X153945233Y-90138938D01*
X153992852Y-90234176D01*
X154040471Y-90281795D01*
X154135710Y-90329414D01*
X156723281Y-91158938D02*
X156723281Y-91730367D01*
X156723281Y-91444653D02*
X155723281Y-91444653D01*
X155866138Y-91539891D01*
X155961376Y-91635129D01*
X156008995Y-91730367D01*
X156056614Y-90301795D02*
X156723281Y-90301795D01*
X156056614Y-90730367D02*
X156580424Y-90730367D01*
X156675662Y-90682748D01*
X156723281Y-90587510D01*
X156723281Y-90444652D01*
X156675662Y-90349414D01*
X156628043Y-90301795D01*
X156199471Y-89492271D02*
X156199471Y-89825605D01*
X156723281Y-89825605D02*
X155723281Y-89825605D01*
X155723281Y-89349414D01*
X153128043Y-90730366D02*
X153175662Y-90777985D01*
X153223281Y-90920842D01*
X153223281Y-91016080D01*
X153175662Y-91158938D01*
X153080424Y-91254176D01*
X152985186Y-91301795D01*
X152794710Y-91349414D01*
X152651852Y-91349414D01*
X152461376Y-91301795D01*
X152366138Y-91254176D01*
X152270900Y-91158938D01*
X152223281Y-91016080D01*
X152223281Y-90920842D01*
X152270900Y-90777985D01*
X152318519Y-90730366D01*
X152223281Y-90397033D02*
X152223281Y-89730366D01*
X153223281Y-90158938D01*
X135407472Y-83419081D02*
X135074138Y-82942890D01*
X134836043Y-83419081D02*
X134836043Y-82419081D01*
X135216996Y-82419081D01*
X135312234Y-82466700D01*
X135359853Y-82514319D01*
X135407472Y-82609557D01*
X135407472Y-82752414D01*
X135359853Y-82847652D01*
X135312234Y-82895271D01*
X135216996Y-82942890D01*
X134836043Y-82942890D01*
X136216996Y-83371462D02*
X136121758Y-83419081D01*
X135931281Y-83419081D01*
X135836043Y-83371462D01*
X135788424Y-83276224D01*
X135788424Y-82895271D01*
X135836043Y-82800033D01*
X135931281Y-82752414D01*
X136121758Y-82752414D01*
X136216996Y-82800033D01*
X136264615Y-82895271D01*
X136264615Y-82990510D01*
X135788424Y-83085748D01*
X137121758Y-83419081D02*
X137121758Y-82419081D01*
X137121758Y-83371462D02*
X137026520Y-83419081D01*
X136836043Y-83419081D01*
X136740805Y-83371462D01*
X136693186Y-83323843D01*
X136645567Y-83228605D01*
X136645567Y-82942890D01*
X136693186Y-82847652D01*
X136740805Y-82800033D01*
X136836043Y-82752414D01*
X137026520Y-82752414D01*
X137121758Y-82800033D01*
D13*
X135368424Y-79368605D02*
X135368424Y-78568605D01*
X135558900Y-78568605D01*
X135673186Y-78606700D01*
X135749377Y-78682890D01*
X135787472Y-78759081D01*
X135825567Y-78911462D01*
X135825567Y-79025748D01*
X135787472Y-79178129D01*
X135749377Y-79254319D01*
X135673186Y-79330510D01*
X135558900Y-79368605D01*
X135368424Y-79368605D01*
X136587472Y-79368605D02*
X136130329Y-79368605D01*
X136358900Y-79368605D02*
X136358900Y-78568605D01*
X136282710Y-78682890D01*
X136206519Y-78759081D01*
X136130329Y-78797176D01*
D12*
X140971757Y-82466700D02*
X140876519Y-82419081D01*
X140733662Y-82419081D01*
X140590804Y-82466700D01*
X140495566Y-82561938D01*
X140447947Y-82657176D01*
X140400328Y-82847652D01*
X140400328Y-82990510D01*
X140447947Y-83180986D01*
X140495566Y-83276224D01*
X140590804Y-83371462D01*
X140733662Y-83419081D01*
X140828900Y-83419081D01*
X140971757Y-83371462D01*
X141019376Y-83323843D01*
X141019376Y-82990510D01*
X140828900Y-82990510D01*
X141447947Y-83419081D02*
X141447947Y-82752414D01*
X141447947Y-82942890D02*
X141495566Y-82847652D01*
X141543185Y-82800033D01*
X141638423Y-82752414D01*
X141733662Y-82752414D01*
X142447948Y-83371462D02*
X142352710Y-83419081D01*
X142162233Y-83419081D01*
X142066995Y-83371462D01*
X142019376Y-83276224D01*
X142019376Y-82895271D01*
X142066995Y-82800033D01*
X142162233Y-82752414D01*
X142352710Y-82752414D01*
X142447948Y-82800033D01*
X142495567Y-82895271D01*
X142495567Y-82990510D01*
X142019376Y-83085748D01*
X143305091Y-83371462D02*
X143209853Y-83419081D01*
X143019376Y-83419081D01*
X142924138Y-83371462D01*
X142876519Y-83276224D01*
X142876519Y-82895271D01*
X142924138Y-82800033D01*
X143019376Y-82752414D01*
X143209853Y-82752414D01*
X143305091Y-82800033D01*
X143352710Y-82895271D01*
X143352710Y-82990510D01*
X142876519Y-83085748D01*
X143781281Y-82752414D02*
X143781281Y-83419081D01*
X143781281Y-82847652D02*
X143828900Y-82800033D01*
X143924138Y-82752414D01*
X144066996Y-82752414D01*
X144162234Y-82800033D01*
X144209853Y-82895271D01*
X144209853Y-83419081D01*
D13*
X141718424Y-79368605D02*
X141718424Y-78568605D01*
X141908900Y-78568605D01*
X142023186Y-78606700D01*
X142099377Y-78682890D01*
X142137472Y-78759081D01*
X142175567Y-78911462D01*
X142175567Y-79025748D01*
X142137472Y-79178129D01*
X142099377Y-79254319D01*
X142023186Y-79330510D01*
X141908900Y-79368605D01*
X141718424Y-79368605D01*
X142480329Y-78644795D02*
X142518424Y-78606700D01*
X142594615Y-78568605D01*
X142785091Y-78568605D01*
X142861281Y-78606700D01*
X142899377Y-78644795D01*
X142937472Y-78720986D01*
X142937472Y-78797176D01*
X142899377Y-78911462D01*
X142442234Y-79368605D01*
X142937472Y-79368605D01*
D12*
X147321757Y-82466700D02*
X147226519Y-82419081D01*
X147083662Y-82419081D01*
X146940804Y-82466700D01*
X146845566Y-82561938D01*
X146797947Y-82657176D01*
X146750328Y-82847652D01*
X146750328Y-82990510D01*
X146797947Y-83180986D01*
X146845566Y-83276224D01*
X146940804Y-83371462D01*
X147083662Y-83419081D01*
X147178900Y-83419081D01*
X147321757Y-83371462D01*
X147369376Y-83323843D01*
X147369376Y-82990510D01*
X147178900Y-82990510D01*
X147797947Y-83419081D02*
X147797947Y-82752414D01*
X147797947Y-82942890D02*
X147845566Y-82847652D01*
X147893185Y-82800033D01*
X147988423Y-82752414D01*
X148083662Y-82752414D01*
X148797948Y-83371462D02*
X148702710Y-83419081D01*
X148512233Y-83419081D01*
X148416995Y-83371462D01*
X148369376Y-83276224D01*
X148369376Y-82895271D01*
X148416995Y-82800033D01*
X148512233Y-82752414D01*
X148702710Y-82752414D01*
X148797948Y-82800033D01*
X148845567Y-82895271D01*
X148845567Y-82990510D01*
X148369376Y-83085748D01*
X149655091Y-83371462D02*
X149559853Y-83419081D01*
X149369376Y-83419081D01*
X149274138Y-83371462D01*
X149226519Y-83276224D01*
X149226519Y-82895271D01*
X149274138Y-82800033D01*
X149369376Y-82752414D01*
X149559853Y-82752414D01*
X149655091Y-82800033D01*
X149702710Y-82895271D01*
X149702710Y-82990510D01*
X149226519Y-83085748D01*
X150131281Y-82752414D02*
X150131281Y-83419081D01*
X150131281Y-82847652D02*
X150178900Y-82800033D01*
X150274138Y-82752414D01*
X150416996Y-82752414D01*
X150512234Y-82800033D01*
X150559853Y-82895271D01*
X150559853Y-83419081D01*
D13*
X148068424Y-79368605D02*
X148068424Y-78568605D01*
X148258900Y-78568605D01*
X148373186Y-78606700D01*
X148449377Y-78682890D01*
X148487472Y-78759081D01*
X148525567Y-78911462D01*
X148525567Y-79025748D01*
X148487472Y-79178129D01*
X148449377Y-79254319D01*
X148373186Y-79330510D01*
X148258900Y-79368605D01*
X148068424Y-79368605D01*
X148792234Y-78568605D02*
X149287472Y-78568605D01*
X149020805Y-78873367D01*
X149135091Y-78873367D01*
X149211281Y-78911462D01*
X149249377Y-78949557D01*
X149287472Y-79025748D01*
X149287472Y-79216224D01*
X149249377Y-79292414D01*
X149211281Y-79330510D01*
X149135091Y-79368605D01*
X148906519Y-79368605D01*
X148830329Y-79330510D01*
X148792234Y-79292414D01*
D12*
X153671757Y-82466700D02*
X153576519Y-82419081D01*
X153433662Y-82419081D01*
X153290804Y-82466700D01*
X153195566Y-82561938D01*
X153147947Y-82657176D01*
X153100328Y-82847652D01*
X153100328Y-82990510D01*
X153147947Y-83180986D01*
X153195566Y-83276224D01*
X153290804Y-83371462D01*
X153433662Y-83419081D01*
X153528900Y-83419081D01*
X153671757Y-83371462D01*
X153719376Y-83323843D01*
X153719376Y-82990510D01*
X153528900Y-82990510D01*
X154147947Y-83419081D02*
X154147947Y-82752414D01*
X154147947Y-82942890D02*
X154195566Y-82847652D01*
X154243185Y-82800033D01*
X154338423Y-82752414D01*
X154433662Y-82752414D01*
X155147948Y-83371462D02*
X155052710Y-83419081D01*
X154862233Y-83419081D01*
X154766995Y-83371462D01*
X154719376Y-83276224D01*
X154719376Y-82895271D01*
X154766995Y-82800033D01*
X154862233Y-82752414D01*
X155052710Y-82752414D01*
X155147948Y-82800033D01*
X155195567Y-82895271D01*
X155195567Y-82990510D01*
X154719376Y-83085748D01*
X156005091Y-83371462D02*
X155909853Y-83419081D01*
X155719376Y-83419081D01*
X155624138Y-83371462D01*
X155576519Y-83276224D01*
X155576519Y-82895271D01*
X155624138Y-82800033D01*
X155719376Y-82752414D01*
X155909853Y-82752414D01*
X156005091Y-82800033D01*
X156052710Y-82895271D01*
X156052710Y-82990510D01*
X155576519Y-83085748D01*
X156481281Y-82752414D02*
X156481281Y-83419081D01*
X156481281Y-82847652D02*
X156528900Y-82800033D01*
X156624138Y-82752414D01*
X156766996Y-82752414D01*
X156862234Y-82800033D01*
X156909853Y-82895271D01*
X156909853Y-83419081D01*
D13*
X154418424Y-79368605D02*
X154418424Y-78568605D01*
X154608900Y-78568605D01*
X154723186Y-78606700D01*
X154799377Y-78682890D01*
X154837472Y-78759081D01*
X154875567Y-78911462D01*
X154875567Y-79025748D01*
X154837472Y-79178129D01*
X154799377Y-79254319D01*
X154723186Y-79330510D01*
X154608900Y-79368605D01*
X154418424Y-79368605D01*
X155561281Y-78835271D02*
X155561281Y-79368605D01*
X155370805Y-78530510D02*
X155180329Y-79101938D01*
X155675567Y-79101938D01*
D12*
X153481591Y-110840343D02*
X153433972Y-110887962D01*
X153291115Y-110935581D01*
X153195877Y-110935581D01*
X153053019Y-110887962D01*
X152957781Y-110792724D01*
X152910162Y-110697486D01*
X152862543Y-110507010D01*
X152862543Y-110364152D01*
X152910162Y-110173676D01*
X152957781Y-110078438D01*
X153053019Y-109983200D01*
X153195877Y-109935581D01*
X153291115Y-109935581D01*
X153433972Y-109983200D01*
X153481591Y-110030819D01*
X154100638Y-109935581D02*
X154291115Y-109935581D01*
X154386353Y-109983200D01*
X154481591Y-110078438D01*
X154529210Y-110268914D01*
X154529210Y-110602248D01*
X154481591Y-110792724D01*
X154386353Y-110887962D01*
X154291115Y-110935581D01*
X154100638Y-110935581D01*
X154005400Y-110887962D01*
X153910162Y-110792724D01*
X153862543Y-110602248D01*
X153862543Y-110268914D01*
X153910162Y-110078438D01*
X154005400Y-109983200D01*
X154100638Y-109935581D01*
X154957781Y-110935581D02*
X154957781Y-109935581D01*
X155529210Y-110935581D01*
X155529210Y-109935581D01*
X156005400Y-110935581D02*
X156005400Y-109935581D01*
X156576829Y-110935581D01*
X156576829Y-109935581D01*
X156814924Y-111030819D02*
X157576829Y-111030819D01*
X158005400Y-109935581D02*
X158100639Y-109935581D01*
X158195877Y-109983200D01*
X158243496Y-110030819D01*
X158291115Y-110126057D01*
X158338734Y-110316533D01*
X158338734Y-110554629D01*
X158291115Y-110745105D01*
X158243496Y-110840343D01*
X158195877Y-110887962D01*
X158100639Y-110935581D01*
X158005400Y-110935581D01*
X157910162Y-110887962D01*
X157862543Y-110840343D01*
X157814924Y-110745105D01*
X157767305Y-110554629D01*
X157767305Y-110316533D01*
X157814924Y-110126057D01*
X157862543Y-110030819D01*
X157910162Y-109983200D01*
X158005400Y-109935581D01*
X159291115Y-110935581D02*
X158719686Y-110935581D01*
X159005400Y-110935581D02*
X159005400Y-109935581D01*
X158910162Y-110078438D01*
X158814924Y-110173676D01*
X158719686Y-110221295D01*
X159624448Y-109935581D02*
X160291115Y-110935581D01*
X160291115Y-109935581D02*
X159624448Y-110935581D01*
X160862543Y-109935581D02*
X160957782Y-109935581D01*
X161053020Y-109983200D01*
X161100639Y-110030819D01*
X161148258Y-110126057D01*
X161195877Y-110316533D01*
X161195877Y-110554629D01*
X161148258Y-110745105D01*
X161100639Y-110840343D01*
X161053020Y-110887962D01*
X160957782Y-110935581D01*
X160862543Y-110935581D01*
X160767305Y-110887962D01*
X160719686Y-110840343D01*
X160672067Y-110745105D01*
X160624448Y-110554629D01*
X160624448Y-110316533D01*
X160672067Y-110126057D01*
X160719686Y-110030819D01*
X160767305Y-109983200D01*
X160862543Y-109935581D01*
X161576829Y-110030819D02*
X161624448Y-109983200D01*
X161719686Y-109935581D01*
X161957782Y-109935581D01*
X162053020Y-109983200D01*
X162100639Y-110030819D01*
X162148258Y-110126057D01*
X162148258Y-110221295D01*
X162100639Y-110364152D01*
X161529210Y-110935581D01*
X162148258Y-110935581D01*
X156767305Y-103735581D02*
X156767305Y-102735581D01*
X157148258Y-102735581D01*
X157243496Y-102783200D01*
X157291115Y-102830819D01*
X157338734Y-102926057D01*
X157338734Y-103068914D01*
X157291115Y-103164152D01*
X157243496Y-103211771D01*
X157148258Y-103259390D01*
X156767305Y-103259390D01*
X157719686Y-102830819D02*
X157767305Y-102783200D01*
X157862543Y-102735581D01*
X158100639Y-102735581D01*
X158195877Y-102783200D01*
X158243496Y-102830819D01*
X158291115Y-102926057D01*
X158291115Y-103021295D01*
X158243496Y-103164152D01*
X157672067Y-103735581D01*
X158291115Y-103735581D01*
X129415091Y-100743843D02*
X129367472Y-100791462D01*
X129224615Y-100839081D01*
X129129377Y-100839081D01*
X128986519Y-100791462D01*
X128891281Y-100696224D01*
X128843662Y-100600986D01*
X128796043Y-100410510D01*
X128796043Y-100267652D01*
X128843662Y-100077176D01*
X128891281Y-99981938D01*
X128986519Y-99886700D01*
X129129377Y-99839081D01*
X129224615Y-99839081D01*
X129367472Y-99886700D01*
X129415091Y-99934319D01*
X130034138Y-99839081D02*
X130224615Y-99839081D01*
X130319853Y-99886700D01*
X130415091Y-99981938D01*
X130462710Y-100172414D01*
X130462710Y-100505748D01*
X130415091Y-100696224D01*
X130319853Y-100791462D01*
X130224615Y-100839081D01*
X130034138Y-100839081D01*
X129938900Y-100791462D01*
X129843662Y-100696224D01*
X129796043Y-100505748D01*
X129796043Y-100172414D01*
X129843662Y-99981938D01*
X129938900Y-99886700D01*
X130034138Y-99839081D01*
X130891281Y-100839081D02*
X130891281Y-99839081D01*
X131462710Y-100839081D01*
X131462710Y-99839081D01*
X131938900Y-100839081D02*
X131938900Y-99839081D01*
X132510329Y-100839081D01*
X132510329Y-99839081D01*
X132748424Y-100934319D02*
X133510329Y-100934319D01*
X133938900Y-99839081D02*
X134034139Y-99839081D01*
X134129377Y-99886700D01*
X134176996Y-99934319D01*
X134224615Y-100029557D01*
X134272234Y-100220033D01*
X134272234Y-100458129D01*
X134224615Y-100648605D01*
X134176996Y-100743843D01*
X134129377Y-100791462D01*
X134034139Y-100839081D01*
X133938900Y-100839081D01*
X133843662Y-100791462D01*
X133796043Y-100743843D01*
X133748424Y-100648605D01*
X133700805Y-100458129D01*
X133700805Y-100220033D01*
X133748424Y-100029557D01*
X133796043Y-99934319D01*
X133843662Y-99886700D01*
X133938900Y-99839081D01*
X135224615Y-100839081D02*
X134653186Y-100839081D01*
X134938900Y-100839081D02*
X134938900Y-99839081D01*
X134843662Y-99981938D01*
X134748424Y-100077176D01*
X134653186Y-100124795D01*
X135557948Y-99839081D02*
X136224615Y-100839081D01*
X136224615Y-99839081D02*
X135557948Y-100839081D01*
X136796043Y-99839081D02*
X136891282Y-99839081D01*
X136986520Y-99886700D01*
X137034139Y-99934319D01*
X137081758Y-100029557D01*
X137129377Y-100220033D01*
X137129377Y-100458129D01*
X137081758Y-100648605D01*
X137034139Y-100743843D01*
X136986520Y-100791462D01*
X136891282Y-100839081D01*
X136796043Y-100839081D01*
X136700805Y-100791462D01*
X136653186Y-100743843D01*
X136605567Y-100648605D01*
X136557948Y-100458129D01*
X136557948Y-100220033D01*
X136605567Y-100029557D01*
X136653186Y-99934319D01*
X136700805Y-99886700D01*
X136796043Y-99839081D01*
X137986520Y-100172414D02*
X137986520Y-100839081D01*
X137748424Y-99791462D02*
X137510329Y-100505748D01*
X138129377Y-100505748D01*
X132700805Y-88559081D02*
X132700805Y-87559081D01*
X133081758Y-87559081D01*
X133176996Y-87606700D01*
X133224615Y-87654319D01*
X133272234Y-87749557D01*
X133272234Y-87892414D01*
X133224615Y-87987652D01*
X133176996Y-88035271D01*
X133081758Y-88082890D01*
X132700805Y-88082890D01*
X134129377Y-87892414D02*
X134129377Y-88559081D01*
X133891281Y-87511462D02*
X133653186Y-88225748D01*
X134272234Y-88225748D01*
X135466781Y-86134414D02*
X135466781Y-85515366D01*
X135847733Y-85848700D01*
X135847733Y-85705842D01*
X135895352Y-85610604D01*
X135942971Y-85562985D01*
X136038210Y-85515366D01*
X136276305Y-85515366D01*
X136371543Y-85562985D01*
X136419162Y-85610604D01*
X136466781Y-85705842D01*
X136466781Y-85991557D01*
X136419162Y-86086795D01*
X136371543Y-86134414D01*
X135466781Y-85182033D02*
X135466781Y-84562985D01*
X135847733Y-84896319D01*
X135847733Y-84753461D01*
X135895352Y-84658223D01*
X135942971Y-84610604D01*
X136038210Y-84562985D01*
X136276305Y-84562985D01*
X136371543Y-84610604D01*
X136419162Y-84658223D01*
X136466781Y-84753461D01*
X136466781Y-85039176D01*
X136419162Y-85134414D01*
X136371543Y-85182033D01*
X135466781Y-83943938D02*
X135466781Y-83848699D01*
X135514400Y-83753461D01*
X135562019Y-83705842D01*
X135657257Y-83658223D01*
X135847733Y-83610604D01*
X136085829Y-83610604D01*
X136276305Y-83658223D01*
X136371543Y-83705842D01*
X136419162Y-83753461D01*
X136466781Y-83848699D01*
X136466781Y-83943938D01*
X136419162Y-84039176D01*
X136371543Y-84086795D01*
X136276305Y-84134414D01*
X136085829Y-84182033D01*
X135847733Y-84182033D01*
X135657257Y-84134414D01*
X135562019Y-84086795D01*
X135514400Y-84039176D01*
X135466781Y-83943938D01*
D14*
X134490590Y-84932033D02*
X134252495Y-85098700D01*
X134490590Y-85217747D02*
X133990590Y-85217747D01*
X133990590Y-85027271D01*
X134014400Y-84979652D01*
X134038210Y-84955843D01*
X134085829Y-84932033D01*
X134157257Y-84932033D01*
X134204876Y-84955843D01*
X134228686Y-84979652D01*
X134252495Y-85027271D01*
X134252495Y-85217747D01*
X134490590Y-84455843D02*
X134490590Y-84741557D01*
X134490590Y-84598700D02*
X133990590Y-84598700D01*
X134062019Y-84646319D01*
X134109638Y-84693938D01*
X134133448Y-84741557D01*
D12*
X134498281Y-85531867D02*
X134498281Y-85341391D01*
X134450662Y-85246152D01*
X134403043Y-85198533D01*
X134260186Y-85103295D01*
X134069710Y-85055676D01*
X133688757Y-85055676D01*
X133593519Y-85103295D01*
X133545900Y-85150914D01*
X133498281Y-85246152D01*
X133498281Y-85436629D01*
X133545900Y-85531867D01*
X133593519Y-85579486D01*
X133688757Y-85627105D01*
X133926852Y-85627105D01*
X134022090Y-85579486D01*
X134069710Y-85531867D01*
X134117329Y-85436629D01*
X134117329Y-85246152D01*
X134069710Y-85150914D01*
X134022090Y-85103295D01*
X133926852Y-85055676D01*
X134498281Y-84103295D02*
X134498281Y-84674724D01*
X134498281Y-84389010D02*
X133498281Y-84389010D01*
X133641138Y-84484248D01*
X133736376Y-84579486D01*
X133783995Y-84674724D01*
D14*
X132522090Y-84948533D02*
X132283995Y-85115200D01*
X132522090Y-85234247D02*
X132022090Y-85234247D01*
X132022090Y-85043771D01*
X132045900Y-84996152D01*
X132069710Y-84972343D01*
X132117329Y-84948533D01*
X132188757Y-84948533D01*
X132236376Y-84972343D01*
X132260186Y-84996152D01*
X132283995Y-85043771D01*
X132283995Y-85234247D01*
X132069710Y-84758057D02*
X132045900Y-84734247D01*
X132022090Y-84686628D01*
X132022090Y-84567581D01*
X132045900Y-84519962D01*
X132069710Y-84496152D01*
X132117329Y-84472343D01*
X132164948Y-84472343D01*
X132236376Y-84496152D01*
X132522090Y-84781866D01*
X132522090Y-84472343D01*
D12*
X138435281Y-85515367D02*
X138435281Y-85324891D01*
X138387662Y-85229652D01*
X138340043Y-85182033D01*
X138197186Y-85086795D01*
X138006710Y-85039176D01*
X137625757Y-85039176D01*
X137530519Y-85086795D01*
X137482900Y-85134414D01*
X137435281Y-85229652D01*
X137435281Y-85420129D01*
X137482900Y-85515367D01*
X137530519Y-85562986D01*
X137625757Y-85610605D01*
X137863852Y-85610605D01*
X137959090Y-85562986D01*
X138006710Y-85515367D01*
X138054329Y-85420129D01*
X138054329Y-85229652D01*
X138006710Y-85134414D01*
X137959090Y-85086795D01*
X137863852Y-85039176D01*
X138435281Y-84086795D02*
X138435281Y-84658224D01*
X138435281Y-84372510D02*
X137435281Y-84372510D01*
X137578138Y-84467748D01*
X137673376Y-84562986D01*
X137720995Y-84658224D01*
D14*
X136459090Y-84932033D02*
X136220995Y-85098700D01*
X136459090Y-85217747D02*
X135959090Y-85217747D01*
X135959090Y-85027271D01*
X135982900Y-84979652D01*
X136006710Y-84955843D01*
X136054329Y-84932033D01*
X136125757Y-84932033D01*
X136173376Y-84955843D01*
X136197186Y-84979652D01*
X136220995Y-85027271D01*
X136220995Y-85217747D01*
X135959090Y-84765366D02*
X135959090Y-84455843D01*
X136149567Y-84622509D01*
X136149567Y-84551081D01*
X136173376Y-84503462D01*
X136197186Y-84479652D01*
X136244805Y-84455843D01*
X136363852Y-84455843D01*
X136411471Y-84479652D01*
X136435281Y-84503462D01*
X136459090Y-84551081D01*
X136459090Y-84693938D01*
X136435281Y-84741557D01*
X136411471Y-84765366D01*
D12*
X140467281Y-85515367D02*
X140467281Y-85324891D01*
X140419662Y-85229652D01*
X140372043Y-85182033D01*
X140229186Y-85086795D01*
X140038710Y-85039176D01*
X139657757Y-85039176D01*
X139562519Y-85086795D01*
X139514900Y-85134414D01*
X139467281Y-85229652D01*
X139467281Y-85420129D01*
X139514900Y-85515367D01*
X139562519Y-85562986D01*
X139657757Y-85610605D01*
X139895852Y-85610605D01*
X139991090Y-85562986D01*
X140038710Y-85515367D01*
X140086329Y-85420129D01*
X140086329Y-85229652D01*
X140038710Y-85134414D01*
X139991090Y-85086795D01*
X139895852Y-85039176D01*
X140467281Y-84086795D02*
X140467281Y-84658224D01*
X140467281Y-84372510D02*
X139467281Y-84372510D01*
X139610138Y-84467748D01*
X139705376Y-84562986D01*
X139752995Y-84658224D01*
D14*
X138491090Y-84932033D02*
X138252995Y-85098700D01*
X138491090Y-85217747D02*
X137991090Y-85217747D01*
X137991090Y-85027271D01*
X138014900Y-84979652D01*
X138038710Y-84955843D01*
X138086329Y-84932033D01*
X138157757Y-84932033D01*
X138205376Y-84955843D01*
X138229186Y-84979652D01*
X138252995Y-85027271D01*
X138252995Y-85217747D01*
X138157757Y-84503462D02*
X138491090Y-84503462D01*
X137967281Y-84622509D02*
X138324424Y-84741557D01*
X138324424Y-84432033D01*
D12*
X145873281Y-91016652D02*
X145873281Y-91492843D01*
X146349471Y-91540462D01*
X146301852Y-91492843D01*
X146254233Y-91397605D01*
X146254233Y-91159509D01*
X146301852Y-91064271D01*
X146349471Y-91016652D01*
X146444710Y-90969033D01*
X146682805Y-90969033D01*
X146778043Y-91016652D01*
X146825662Y-91064271D01*
X146873281Y-91159509D01*
X146873281Y-91397605D01*
X146825662Y-91492843D01*
X146778043Y-91540462D01*
X146778043Y-90540462D02*
X146825662Y-90492843D01*
X146873281Y-90540462D01*
X146825662Y-90588081D01*
X146778043Y-90540462D01*
X146873281Y-90540462D01*
X146873281Y-89540462D02*
X146873281Y-90111891D01*
X146873281Y-89826177D02*
X145873281Y-89826177D01*
X146016138Y-89921415D01*
X146111376Y-90016653D01*
X146158995Y-90111891D01*
X146873281Y-89111891D02*
X145873281Y-89111891D01*
X146492329Y-89016653D02*
X146873281Y-88730938D01*
X146206614Y-88730938D02*
X146587567Y-89111891D01*
D14*
X148397090Y-90219033D02*
X148158995Y-90385700D01*
X148397090Y-90504747D02*
X147897090Y-90504747D01*
X147897090Y-90314271D01*
X147920900Y-90266652D01*
X147944710Y-90242843D01*
X147992329Y-90219033D01*
X148063757Y-90219033D01*
X148111376Y-90242843D01*
X148135186Y-90266652D01*
X148158995Y-90314271D01*
X148158995Y-90504747D01*
X147897090Y-89766652D02*
X147897090Y-90004747D01*
X148135186Y-90028557D01*
X148111376Y-90004747D01*
X148087567Y-89957128D01*
X148087567Y-89838081D01*
X148111376Y-89790462D01*
X148135186Y-89766652D01*
X148182805Y-89742843D01*
X148301852Y-89742843D01*
X148349471Y-89766652D01*
X148373281Y-89790462D01*
X148397090Y-89838081D01*
X148397090Y-89957128D01*
X148373281Y-90004747D01*
X148349471Y-90028557D01*
D12*
X141936281Y-90936652D02*
X141936281Y-91412843D01*
X142412471Y-91460462D01*
X142364852Y-91412843D01*
X142317233Y-91317605D01*
X142317233Y-91079509D01*
X142364852Y-90984271D01*
X142412471Y-90936652D01*
X142507710Y-90889033D01*
X142745805Y-90889033D01*
X142841043Y-90936652D01*
X142888662Y-90984271D01*
X142936281Y-91079509D01*
X142936281Y-91317605D01*
X142888662Y-91412843D01*
X142841043Y-91460462D01*
X142841043Y-90460462D02*
X142888662Y-90412843D01*
X142936281Y-90460462D01*
X142888662Y-90508081D01*
X142841043Y-90460462D01*
X142936281Y-90460462D01*
X142936281Y-89460462D02*
X142936281Y-90031891D01*
X142936281Y-89746177D02*
X141936281Y-89746177D01*
X142079138Y-89841415D01*
X142174376Y-89936653D01*
X142221995Y-90031891D01*
X142936281Y-89031891D02*
X141936281Y-89031891D01*
X142555329Y-88936653D02*
X142936281Y-88650938D01*
X142269614Y-88650938D02*
X142650567Y-89031891D01*
D14*
X144460090Y-90139033D02*
X144221995Y-90305700D01*
X144460090Y-90424747D02*
X143960090Y-90424747D01*
X143960090Y-90234271D01*
X143983900Y-90186652D01*
X144007710Y-90162843D01*
X144055329Y-90139033D01*
X144126757Y-90139033D01*
X144174376Y-90162843D01*
X144198186Y-90186652D01*
X144221995Y-90234271D01*
X144221995Y-90424747D01*
X143960090Y-89710462D02*
X143960090Y-89805700D01*
X143983900Y-89853319D01*
X144007710Y-89877128D01*
X144079138Y-89924747D01*
X144174376Y-89948557D01*
X144364852Y-89948557D01*
X144412471Y-89924747D01*
X144436281Y-89900938D01*
X144460090Y-89853319D01*
X144460090Y-89758081D01*
X144436281Y-89710462D01*
X144412471Y-89686652D01*
X144364852Y-89662843D01*
X144245805Y-89662843D01*
X144198186Y-89686652D01*
X144174376Y-89710462D01*
X144150567Y-89758081D01*
X144150567Y-89853319D01*
X144174376Y-89900938D01*
X144198186Y-89924747D01*
X144245805Y-89948557D01*
D12*
X145257948Y-111959081D02*
X144781757Y-111959081D01*
X144734138Y-112435271D01*
X144781757Y-112387652D01*
X144876995Y-112340033D01*
X145115091Y-112340033D01*
X145210329Y-112387652D01*
X145257948Y-112435271D01*
X145305567Y-112530510D01*
X145305567Y-112768605D01*
X145257948Y-112863843D01*
X145210329Y-112911462D01*
X145115091Y-112959081D01*
X144876995Y-112959081D01*
X144781757Y-112911462D01*
X144734138Y-112863843D01*
X145734138Y-112863843D02*
X145781757Y-112911462D01*
X145734138Y-112959081D01*
X145686519Y-112911462D01*
X145734138Y-112863843D01*
X145734138Y-112959081D01*
X146734138Y-112959081D02*
X146162709Y-112959081D01*
X146448423Y-112959081D02*
X146448423Y-111959081D01*
X146353185Y-112101938D01*
X146257947Y-112197176D01*
X146162709Y-112244795D01*
X147162709Y-112959081D02*
X147162709Y-111959081D01*
X147257947Y-112578129D02*
X147543662Y-112959081D01*
X147543662Y-112292414D02*
X147162709Y-112673367D01*
D14*
X146055567Y-110982890D02*
X145888900Y-110744795D01*
X145769853Y-110982890D02*
X145769853Y-110482890D01*
X145960329Y-110482890D01*
X146007948Y-110506700D01*
X146031757Y-110530510D01*
X146055567Y-110578129D01*
X146055567Y-110649557D01*
X146031757Y-110697176D01*
X146007948Y-110720986D01*
X145960329Y-110744795D01*
X145769853Y-110744795D01*
X146222234Y-110482890D02*
X146555567Y-110482890D01*
X146341281Y-110982890D01*
D12*
X150623662Y-112959081D02*
X150052233Y-112959081D01*
X150337947Y-112959081D02*
X150337947Y-111959081D01*
X150242709Y-112101938D01*
X150147471Y-112197176D01*
X150052233Y-112244795D01*
X151004614Y-112054319D02*
X151052233Y-112006700D01*
X151147471Y-111959081D01*
X151385567Y-111959081D01*
X151480805Y-112006700D01*
X151528424Y-112054319D01*
X151576043Y-112149557D01*
X151576043Y-112244795D01*
X151528424Y-112387652D01*
X150956995Y-112959081D01*
X151576043Y-112959081D01*
X152004614Y-112959081D02*
X152004614Y-111959081D01*
X152099852Y-112578129D02*
X152385567Y-112959081D01*
X152385567Y-112292414D02*
X152004614Y-112673367D01*
D14*
X151135567Y-110982890D02*
X150968900Y-110744795D01*
X150849853Y-110982890D02*
X150849853Y-110482890D01*
X151040329Y-110482890D01*
X151087948Y-110506700D01*
X151111757Y-110530510D01*
X151135567Y-110578129D01*
X151135567Y-110649557D01*
X151111757Y-110697176D01*
X151087948Y-110720986D01*
X151040329Y-110744795D01*
X150849853Y-110744795D01*
X151421281Y-110697176D02*
X151373662Y-110673367D01*
X151349853Y-110649557D01*
X151326043Y-110601938D01*
X151326043Y-110578129D01*
X151349853Y-110530510D01*
X151373662Y-110506700D01*
X151421281Y-110482890D01*
X151516519Y-110482890D01*
X151564138Y-110506700D01*
X151587948Y-110530510D01*
X151611757Y-110578129D01*
X151611757Y-110601938D01*
X151587948Y-110649557D01*
X151564138Y-110673367D01*
X151516519Y-110697176D01*
X151421281Y-110697176D01*
X151373662Y-110720986D01*
X151349853Y-110744795D01*
X151326043Y-110792414D01*
X151326043Y-110887652D01*
X151349853Y-110935271D01*
X151373662Y-110959081D01*
X151421281Y-110982890D01*
X151516519Y-110982890D01*
X151564138Y-110959081D01*
X151587948Y-110935271D01*
X151611757Y-110887652D01*
X151611757Y-110792414D01*
X151587948Y-110744795D01*
X151564138Y-110720986D01*
X151516519Y-110697176D01*
D12*
X152278281Y-90697938D02*
X152278281Y-91269367D01*
X152278281Y-90983653D02*
X151278281Y-90983653D01*
X151421138Y-91078891D01*
X151516376Y-91174129D01*
X151563995Y-91269367D01*
X151278281Y-90078891D02*
X151278281Y-89983652D01*
X151325900Y-89888414D01*
X151373519Y-89840795D01*
X151468757Y-89793176D01*
X151659233Y-89745557D01*
X151897329Y-89745557D01*
X152087805Y-89793176D01*
X152183043Y-89840795D01*
X152230662Y-89888414D01*
X152278281Y-89983652D01*
X152278281Y-90078891D01*
X152230662Y-90174129D01*
X152183043Y-90221748D01*
X152087805Y-90269367D01*
X151897329Y-90316986D01*
X151659233Y-90316986D01*
X151468757Y-90269367D01*
X151373519Y-90221748D01*
X151325900Y-90174129D01*
X151278281Y-90078891D01*
X152278281Y-89316986D02*
X151278281Y-89316986D01*
X151897329Y-89221748D02*
X152278281Y-88936033D01*
X151611614Y-88936033D02*
X151992567Y-89316986D01*
D14*
X150302090Y-90186033D02*
X150063995Y-90352700D01*
X150302090Y-90471747D02*
X149802090Y-90471747D01*
X149802090Y-90281271D01*
X149825900Y-90233652D01*
X149849710Y-90209843D01*
X149897329Y-90186033D01*
X149968757Y-90186033D01*
X150016376Y-90209843D01*
X150040186Y-90233652D01*
X150063995Y-90281271D01*
X150063995Y-90471747D01*
X150302090Y-89947938D02*
X150302090Y-89852700D01*
X150278281Y-89805081D01*
X150254471Y-89781271D01*
X150183043Y-89733652D01*
X150087805Y-89709843D01*
X149897329Y-89709843D01*
X149849710Y-89733652D01*
X149825900Y-89757462D01*
X149802090Y-89805081D01*
X149802090Y-89900319D01*
X149825900Y-89947938D01*
X149849710Y-89971747D01*
X149897329Y-89995557D01*
X150016376Y-89995557D01*
X150063995Y-89971747D01*
X150087805Y-89947938D01*
X150111614Y-89900319D01*
X150111614Y-89805081D01*
X150087805Y-89757462D01*
X150063995Y-89733652D01*
X150016376Y-89709843D01*
D12*
X154202472Y-89559081D02*
X153631043Y-89559081D01*
X153916757Y-89559081D02*
X153916757Y-88559081D01*
X153821519Y-88701938D01*
X153726281Y-88797176D01*
X153631043Y-88844795D01*
X154821519Y-88559081D02*
X154916758Y-88559081D01*
X155011996Y-88606700D01*
X155059615Y-88654319D01*
X155107234Y-88749557D01*
X155154853Y-88940033D01*
X155154853Y-89178129D01*
X155107234Y-89368605D01*
X155059615Y-89463843D01*
X155011996Y-89511462D01*
X154916758Y-89559081D01*
X154821519Y-89559081D01*
X154726281Y-89511462D01*
X154678662Y-89463843D01*
X154631043Y-89368605D01*
X154583424Y-89178129D01*
X154583424Y-88940033D01*
X154631043Y-88749557D01*
X154678662Y-88654319D01*
X154726281Y-88606700D01*
X154821519Y-88559081D01*
X155773900Y-88559081D02*
X155869139Y-88559081D01*
X155964377Y-88606700D01*
X156011996Y-88654319D01*
X156059615Y-88749557D01*
X156107234Y-88940033D01*
X156107234Y-89178129D01*
X156059615Y-89368605D01*
X156011996Y-89463843D01*
X155964377Y-89511462D01*
X155869139Y-89559081D01*
X155773900Y-89559081D01*
X155678662Y-89511462D01*
X155631043Y-89463843D01*
X155583424Y-89368605D01*
X155535805Y-89178129D01*
X155535805Y-88940033D01*
X155583424Y-88749557D01*
X155631043Y-88654319D01*
X155678662Y-88606700D01*
X155773900Y-88559081D01*
X156535805Y-89559081D02*
X156535805Y-88559081D01*
X156631043Y-89178129D02*
X156916758Y-89559081D01*
X156916758Y-88892414D02*
X156535805Y-89273367D01*
X145402233Y-110899081D02*
X145402233Y-109899081D01*
X145973662Y-110899081D01*
X145973662Y-109899081D01*
X146449852Y-110375271D02*
X146783186Y-110375271D01*
X146926043Y-110899081D02*
X146449852Y-110899081D01*
X146449852Y-109899081D01*
X146926043Y-109899081D01*
X147830805Y-109899081D02*
X147354614Y-109899081D01*
X147306995Y-110375271D01*
X147354614Y-110327652D01*
X147449852Y-110280033D01*
X147687948Y-110280033D01*
X147783186Y-110327652D01*
X147830805Y-110375271D01*
X147878424Y-110470510D01*
X147878424Y-110708605D01*
X147830805Y-110803843D01*
X147783186Y-110851462D01*
X147687948Y-110899081D01*
X147449852Y-110899081D01*
X147354614Y-110851462D01*
X147306995Y-110803843D01*
X148783186Y-109899081D02*
X148306995Y-109899081D01*
X148259376Y-110375271D01*
X148306995Y-110327652D01*
X148402233Y-110280033D01*
X148640329Y-110280033D01*
X148735567Y-110327652D01*
X148783186Y-110375271D01*
X148830805Y-110470510D01*
X148830805Y-110708605D01*
X148783186Y-110803843D01*
X148735567Y-110851462D01*
X148640329Y-110899081D01*
X148402233Y-110899081D01*
X148306995Y-110851462D01*
X148259376Y-110803843D01*
X149735567Y-109899081D02*
X149259376Y-109899081D01*
X149211757Y-110375271D01*
X149259376Y-110327652D01*
X149354614Y-110280033D01*
X149592710Y-110280033D01*
X149687948Y-110327652D01*
X149735567Y-110375271D01*
X149783186Y-110470510D01*
X149783186Y-110708605D01*
X149735567Y-110803843D01*
X149687948Y-110851462D01*
X149592710Y-110899081D01*
X149354614Y-110899081D01*
X149259376Y-110851462D01*
X149211757Y-110803843D01*
X146806995Y-106399081D02*
X146806995Y-107208605D01*
X146854614Y-107303843D01*
X146902233Y-107351462D01*
X146997471Y-107399081D01*
X147187948Y-107399081D01*
X147283186Y-107351462D01*
X147330805Y-107303843D01*
X147378424Y-107208605D01*
X147378424Y-106399081D01*
X147806995Y-106494319D02*
X147854614Y-106446700D01*
X147949852Y-106399081D01*
X148187948Y-106399081D01*
X148283186Y-106446700D01*
X148330805Y-106494319D01*
X148378424Y-106589557D01*
X148378424Y-106684795D01*
X148330805Y-106827652D01*
X147759376Y-107399081D01*
X148378424Y-107399081D01*
X148210995Y-103890081D02*
X148877662Y-103890081D01*
X148449090Y-104890081D01*
X149687186Y-104223414D02*
X149687186Y-104890081D01*
X149449090Y-103842462D02*
X149210995Y-104556748D01*
X149830043Y-104556748D01*
X150210995Y-104890081D02*
X150210995Y-103890081D01*
X150210995Y-104366271D02*
X150782424Y-104366271D01*
X150782424Y-104890081D02*
X150782424Y-103890081D01*
X151830043Y-104794843D02*
X151782424Y-104842462D01*
X151639567Y-104890081D01*
X151544329Y-104890081D01*
X151401471Y-104842462D01*
X151306233Y-104747224D01*
X151258614Y-104651986D01*
X151210995Y-104461510D01*
X151210995Y-104318652D01*
X151258614Y-104128176D01*
X151306233Y-104032938D01*
X151401471Y-103937700D01*
X151544329Y-103890081D01*
X151639567Y-103890081D01*
X151782424Y-103937700D01*
X151830043Y-103985319D01*
X152782424Y-104890081D02*
X152210995Y-104890081D01*
X152496709Y-104890081D02*
X152496709Y-103890081D01*
X152401471Y-104032938D01*
X152306233Y-104128176D01*
X152210995Y-104175795D01*
X153639567Y-103890081D02*
X153449090Y-103890081D01*
X153353852Y-103937700D01*
X153306233Y-103985319D01*
X153210995Y-104128176D01*
X153163376Y-104318652D01*
X153163376Y-104699605D01*
X153210995Y-104794843D01*
X153258614Y-104842462D01*
X153353852Y-104890081D01*
X153544329Y-104890081D01*
X153639567Y-104842462D01*
X153687186Y-104794843D01*
X153734805Y-104699605D01*
X153734805Y-104461510D01*
X153687186Y-104366271D01*
X153639567Y-104318652D01*
X153544329Y-104271033D01*
X153353852Y-104271033D01*
X153258614Y-104318652D01*
X153210995Y-104366271D01*
X153163376Y-104461510D01*
X154068138Y-103890081D02*
X154687186Y-103890081D01*
X154353852Y-104271033D01*
X154496710Y-104271033D01*
X154591948Y-104318652D01*
X154639567Y-104366271D01*
X154687186Y-104461510D01*
X154687186Y-104699605D01*
X154639567Y-104794843D01*
X154591948Y-104842462D01*
X154496710Y-104890081D01*
X154210995Y-104890081D01*
X154115757Y-104842462D01*
X154068138Y-104794843D01*
D15*
X150787186Y-97944843D02*
X150787186Y-98673414D01*
X150830043Y-98759129D01*
X150872900Y-98801986D01*
X150958614Y-98844843D01*
X151130043Y-98844843D01*
X151215757Y-98801986D01*
X151258614Y-98759129D01*
X151301471Y-98673414D01*
X151301471Y-97944843D01*
X151644328Y-97944843D02*
X152201471Y-97944843D01*
X151901471Y-98287700D01*
X152030043Y-98287700D01*
X152115757Y-98330557D01*
X152158614Y-98373414D01*
X152201471Y-98459129D01*
X152201471Y-98673414D01*
X152158614Y-98759129D01*
X152115757Y-98801986D01*
X152030043Y-98844843D01*
X151772900Y-98844843D01*
X151687186Y-98801986D01*
X151644328Y-98759129D01*
D12*
X137693662Y-112668843D02*
X137646043Y-112716462D01*
X137503186Y-112764081D01*
X137407948Y-112764081D01*
X137265090Y-112716462D01*
X137169852Y-112621224D01*
X137122233Y-112525986D01*
X137074614Y-112335510D01*
X137074614Y-112192652D01*
X137122233Y-112002176D01*
X137169852Y-111906938D01*
X137265090Y-111811700D01*
X137407948Y-111764081D01*
X137503186Y-111764081D01*
X137646043Y-111811700D01*
X137693662Y-111859319D01*
X138122233Y-112764081D02*
X138122233Y-111764081D01*
X138360328Y-111764081D01*
X138503186Y-111811700D01*
X138598424Y-111906938D01*
X138646043Y-112002176D01*
X138693662Y-112192652D01*
X138693662Y-112335510D01*
X138646043Y-112525986D01*
X138598424Y-112621224D01*
X138503186Y-112716462D01*
X138360328Y-112764081D01*
X138122233Y-112764081D01*
X139550805Y-112097414D02*
X139550805Y-112764081D01*
X139312709Y-111716462D02*
X139074614Y-112430748D01*
X139693662Y-112430748D01*
X140265090Y-111764081D02*
X140360329Y-111764081D01*
X140455567Y-111811700D01*
X140503186Y-111859319D01*
X140550805Y-111954557D01*
X140598424Y-112145033D01*
X140598424Y-112383129D01*
X140550805Y-112573605D01*
X140503186Y-112668843D01*
X140455567Y-112716462D01*
X140360329Y-112764081D01*
X140265090Y-112764081D01*
X140169852Y-112716462D01*
X140122233Y-112668843D01*
X140074614Y-112573605D01*
X140026995Y-112383129D01*
X140026995Y-112145033D01*
X140074614Y-111954557D01*
X140122233Y-111859319D01*
X140169852Y-111811700D01*
X140265090Y-111764081D01*
X141550805Y-112764081D02*
X140979376Y-112764081D01*
X141265090Y-112764081D02*
X141265090Y-111764081D01*
X141169852Y-111906938D01*
X141074614Y-112002176D01*
X140979376Y-112049795D01*
X141884138Y-111764081D02*
X142550805Y-111764081D01*
X142122233Y-112764081D01*
D15*
X139103186Y-105818843D02*
X139103186Y-106547414D01*
X139146043Y-106633129D01*
X139188900Y-106675986D01*
X139274614Y-106718843D01*
X139446043Y-106718843D01*
X139531757Y-106675986D01*
X139574614Y-106633129D01*
X139617471Y-106547414D01*
X139617471Y-105818843D01*
X140431757Y-106118843D02*
X140431757Y-106718843D01*
X140217471Y-105775986D02*
X140003186Y-106418843D01*
X140560328Y-106418843D01*
D12*
X145124281Y-99589557D02*
X145124281Y-98922890D01*
X146124281Y-99351462D01*
X145457614Y-98113366D02*
X146124281Y-98113366D01*
X145076662Y-98351462D02*
X145790948Y-98589557D01*
X145790948Y-97970509D01*
X146124281Y-97113366D02*
X146124281Y-97589557D01*
X145124281Y-97589557D01*
X146076662Y-96827652D02*
X146124281Y-96684795D01*
X146124281Y-96446699D01*
X146076662Y-96351461D01*
X146029043Y-96303842D01*
X145933805Y-96256223D01*
X145838567Y-96256223D01*
X145743329Y-96303842D01*
X145695710Y-96351461D01*
X145648090Y-96446699D01*
X145600471Y-96637176D01*
X145552852Y-96732414D01*
X145505233Y-96780033D01*
X145409995Y-96827652D01*
X145314757Y-96827652D01*
X145219519Y-96780033D01*
X145171900Y-96732414D01*
X145124281Y-96637176D01*
X145124281Y-96399080D01*
X145171900Y-96256223D01*
X145124281Y-95637176D02*
X145124281Y-95541937D01*
X145171900Y-95446699D01*
X145219519Y-95399080D01*
X145314757Y-95351461D01*
X145505233Y-95303842D01*
X145743329Y-95303842D01*
X145933805Y-95351461D01*
X146029043Y-95399080D01*
X146076662Y-95446699D01*
X146124281Y-95541937D01*
X146124281Y-95637176D01*
X146076662Y-95732414D01*
X146029043Y-95780033D01*
X145933805Y-95827652D01*
X145743329Y-95875271D01*
X145505233Y-95875271D01*
X145314757Y-95827652D01*
X145219519Y-95780033D01*
X145171900Y-95732414D01*
X145124281Y-95637176D01*
X145552852Y-94732414D02*
X145505233Y-94827652D01*
X145457614Y-94875271D01*
X145362376Y-94922890D01*
X145314757Y-94922890D01*
X145219519Y-94875271D01*
X145171900Y-94827652D01*
X145124281Y-94732414D01*
X145124281Y-94541937D01*
X145171900Y-94446699D01*
X145219519Y-94399080D01*
X145314757Y-94351461D01*
X145362376Y-94351461D01*
X145457614Y-94399080D01*
X145505233Y-94446699D01*
X145552852Y-94541937D01*
X145552852Y-94732414D01*
X145600471Y-94827652D01*
X145648090Y-94875271D01*
X145743329Y-94922890D01*
X145933805Y-94922890D01*
X146029043Y-94875271D01*
X146076662Y-94827652D01*
X146124281Y-94732414D01*
X146124281Y-94541937D01*
X146076662Y-94446699D01*
X146029043Y-94399080D01*
X145933805Y-94351461D01*
X145743329Y-94351461D01*
X145648090Y-94399080D01*
X145600471Y-94446699D01*
X145552852Y-94541937D01*
D15*
X139804043Y-97632414D02*
X140532614Y-97632414D01*
X140618329Y-97589557D01*
X140661186Y-97546700D01*
X140704043Y-97460986D01*
X140704043Y-97289557D01*
X140661186Y-97203843D01*
X140618329Y-97160986D01*
X140532614Y-97118129D01*
X139804043Y-97118129D01*
X139804043Y-96303843D02*
X139804043Y-96475272D01*
X139846900Y-96560986D01*
X139889757Y-96603843D01*
X140018329Y-96689557D01*
X140189757Y-96732414D01*
X140532614Y-96732414D01*
X140618329Y-96689557D01*
X140661186Y-96646700D01*
X140704043Y-96560986D01*
X140704043Y-96389557D01*
X140661186Y-96303843D01*
X140618329Y-96260986D01*
X140532614Y-96218129D01*
X140318329Y-96218129D01*
X140232614Y-96260986D01*
X140189757Y-96303843D01*
X140146900Y-96389557D01*
X140146900Y-96560986D01*
X140189757Y-96646700D01*
X140232614Y-96689557D01*
X140318329Y-96732414D01*
D12*
X152237662Y-89999510D02*
X152285281Y-89856653D01*
X152285281Y-89618557D01*
X152237662Y-89523319D01*
X152190043Y-89475700D01*
X152094805Y-89428081D01*
X151999567Y-89428081D01*
X151904329Y-89475700D01*
X151856710Y-89523319D01*
X151809090Y-89618557D01*
X151761471Y-89809034D01*
X151713852Y-89904272D01*
X151666233Y-89951891D01*
X151570995Y-89999510D01*
X151475757Y-89999510D01*
X151380519Y-89951891D01*
X151332900Y-89904272D01*
X151285281Y-89809034D01*
X151285281Y-89570938D01*
X151332900Y-89428081D01*
X152285281Y-88999510D02*
X151285281Y-88999510D01*
X152285281Y-88428081D01*
X151285281Y-88428081D01*
X151285281Y-88047129D02*
X151285281Y-87380462D01*
X152285281Y-87809034D01*
X151618614Y-86570938D02*
X152285281Y-86570938D01*
X151237662Y-86809034D02*
X151951948Y-87047129D01*
X151951948Y-86428081D01*
X152285281Y-85570938D02*
X152285281Y-86047129D01*
X151285281Y-86047129D01*
X151285281Y-85380462D02*
X152285281Y-85047129D01*
X151285281Y-84713795D01*
X152190043Y-83809033D02*
X152237662Y-83856652D01*
X152285281Y-83999509D01*
X152285281Y-84094747D01*
X152237662Y-84237605D01*
X152142424Y-84332843D01*
X152047186Y-84380462D01*
X151856710Y-84428081D01*
X151713852Y-84428081D01*
X151523376Y-84380462D01*
X151428138Y-84332843D01*
X151332900Y-84237605D01*
X151285281Y-84094747D01*
X151285281Y-83999509D01*
X151332900Y-83856652D01*
X151380519Y-83809033D01*
X152285281Y-82856652D02*
X152285281Y-83428081D01*
X152285281Y-83142367D02*
X151285281Y-83142367D01*
X151428138Y-83237605D01*
X151523376Y-83332843D01*
X151570995Y-83428081D01*
X151332900Y-81904271D02*
X151285281Y-81999509D01*
X151285281Y-82142366D01*
X151332900Y-82285224D01*
X151428138Y-82380462D01*
X151523376Y-82428081D01*
X151713852Y-82475700D01*
X151856710Y-82475700D01*
X152047186Y-82428081D01*
X152142424Y-82380462D01*
X152237662Y-82285224D01*
X152285281Y-82142366D01*
X152285281Y-82047128D01*
X152237662Y-81904271D01*
X152190043Y-81856652D01*
X151856710Y-81856652D01*
X151856710Y-82047128D01*
X151285281Y-81237605D02*
X151285281Y-81142366D01*
X151332900Y-81047128D01*
X151380519Y-80999509D01*
X151475757Y-80951890D01*
X151666233Y-80904271D01*
X151904329Y-80904271D01*
X152094805Y-80951890D01*
X152190043Y-80999509D01*
X152237662Y-81047128D01*
X152285281Y-81142366D01*
X152285281Y-81237605D01*
X152237662Y-81332843D01*
X152190043Y-81380462D01*
X152094805Y-81428081D01*
X151904329Y-81475700D01*
X151666233Y-81475700D01*
X151475757Y-81428081D01*
X151380519Y-81380462D01*
X151332900Y-81332843D01*
X151285281Y-81237605D01*
X151713852Y-80332843D02*
X151666233Y-80428081D01*
X151618614Y-80475700D01*
X151523376Y-80523319D01*
X151475757Y-80523319D01*
X151380519Y-80475700D01*
X151332900Y-80428081D01*
X151285281Y-80332843D01*
X151285281Y-80142366D01*
X151332900Y-80047128D01*
X151380519Y-79999509D01*
X151475757Y-79951890D01*
X151523376Y-79951890D01*
X151618614Y-79999509D01*
X151666233Y-80047128D01*
X151713852Y-80142366D01*
X151713852Y-80332843D01*
X151761471Y-80428081D01*
X151809090Y-80475700D01*
X151904329Y-80523319D01*
X152094805Y-80523319D01*
X152190043Y-80475700D01*
X152237662Y-80428081D01*
X152285281Y-80332843D01*
X152285281Y-80142366D01*
X152237662Y-80047128D01*
X152190043Y-79999509D01*
X152094805Y-79951890D01*
X151904329Y-79951890D01*
X151809090Y-79999509D01*
X151761471Y-80047128D01*
X151713852Y-80142366D01*
D14*
X148551948Y-84701890D02*
X148551948Y-85106652D01*
X148575757Y-85154271D01*
X148599567Y-85178081D01*
X148647186Y-85201890D01*
X148742424Y-85201890D01*
X148790043Y-85178081D01*
X148813852Y-85154271D01*
X148837662Y-85106652D01*
X148837662Y-84701890D01*
X149028139Y-84701890D02*
X149361472Y-84701890D01*
X149147186Y-85201890D01*
D12*
X138677281Y-90492176D02*
X137677281Y-90492176D01*
X138391567Y-90158842D01*
X137677281Y-89825509D01*
X138677281Y-89825509D01*
X138582043Y-88777890D02*
X138629662Y-88825509D01*
X138677281Y-88968366D01*
X138677281Y-89063604D01*
X138629662Y-89206462D01*
X138534424Y-89301700D01*
X138439186Y-89349319D01*
X138248710Y-89396938D01*
X138105852Y-89396938D01*
X137915376Y-89349319D01*
X137820138Y-89301700D01*
X137724900Y-89206462D01*
X137677281Y-89063604D01*
X137677281Y-88968366D01*
X137724900Y-88825509D01*
X137772519Y-88777890D01*
X137677281Y-88444557D02*
X137677281Y-87777890D01*
X138677281Y-88206462D01*
X138010614Y-86968366D02*
X138677281Y-86968366D01*
X137629662Y-87206462D02*
X138343948Y-87444557D01*
X138343948Y-86825509D01*
X137677281Y-86587414D02*
X138677281Y-86254081D01*
X137677281Y-85920747D01*
X138677281Y-85587414D02*
X137677281Y-85587414D01*
X138153471Y-85587414D02*
X138153471Y-85015985D01*
X138677281Y-85015985D02*
X137677281Y-85015985D01*
X138582043Y-83968366D02*
X138629662Y-84015985D01*
X138677281Y-84158842D01*
X138677281Y-84254080D01*
X138629662Y-84396938D01*
X138534424Y-84492176D01*
X138439186Y-84539795D01*
X138248710Y-84587414D01*
X138105852Y-84587414D01*
X137915376Y-84539795D01*
X137820138Y-84492176D01*
X137724900Y-84396938D01*
X137677281Y-84254080D01*
X137677281Y-84158842D01*
X137724900Y-84015985D01*
X137772519Y-83968366D01*
X138677281Y-83015985D02*
X138677281Y-83587414D01*
X138677281Y-83301700D02*
X137677281Y-83301700D01*
X137820138Y-83396938D01*
X137915376Y-83492176D01*
X137962995Y-83587414D01*
X137724900Y-82063604D02*
X137677281Y-82158842D01*
X137677281Y-82301699D01*
X137724900Y-82444557D01*
X137820138Y-82539795D01*
X137915376Y-82587414D01*
X138105852Y-82635033D01*
X138248710Y-82635033D01*
X138439186Y-82587414D01*
X138534424Y-82539795D01*
X138629662Y-82444557D01*
X138677281Y-82301699D01*
X138677281Y-82206461D01*
X138629662Y-82063604D01*
X138582043Y-82015985D01*
X138248710Y-82015985D01*
X138248710Y-82206461D01*
X137677281Y-81587414D02*
X138486805Y-81587414D01*
X138582043Y-81539795D01*
X138629662Y-81492176D01*
X138677281Y-81396938D01*
X138677281Y-81206461D01*
X138629662Y-81111223D01*
X138582043Y-81063604D01*
X138486805Y-81015985D01*
X137677281Y-81015985D01*
X137677281Y-80349319D02*
X137677281Y-80254080D01*
X137724900Y-80158842D01*
X137772519Y-80111223D01*
X137867757Y-80063604D01*
X138058233Y-80015985D01*
X138296329Y-80015985D01*
X138486805Y-80063604D01*
X138582043Y-80111223D01*
X138629662Y-80158842D01*
X138677281Y-80254080D01*
X138677281Y-80349319D01*
X138629662Y-80444557D01*
X138582043Y-80492176D01*
X138486805Y-80539795D01*
X138296329Y-80587414D01*
X138058233Y-80587414D01*
X137867757Y-80539795D01*
X137772519Y-80492176D01*
X137724900Y-80444557D01*
X137677281Y-80349319D01*
X138010614Y-79158842D02*
X138677281Y-79158842D01*
X137629662Y-79396938D02*
X138343948Y-79635033D01*
X138343948Y-79015985D01*
D14*
X140743948Y-84527890D02*
X140743948Y-84932652D01*
X140767757Y-84980271D01*
X140791567Y-85004081D01*
X140839186Y-85027890D01*
X140934424Y-85027890D01*
X140982043Y-85004081D01*
X141005852Y-84980271D01*
X141029662Y-84932652D01*
X141029662Y-84527890D01*
X141505853Y-84527890D02*
X141267758Y-84527890D01*
X141243948Y-84765986D01*
X141267758Y-84742176D01*
X141315377Y-84718367D01*
X141434424Y-84718367D01*
X141482043Y-84742176D01*
X141505853Y-84765986D01*
X141529662Y-84813605D01*
X141529662Y-84932652D01*
X141505853Y-84980271D01*
X141482043Y-85004081D01*
X141434424Y-85027890D01*
X141315377Y-85027890D01*
X141267758Y-85004081D01*
X141243948Y-84980271D01*
D12*
X148427662Y-89999510D02*
X148475281Y-89856653D01*
X148475281Y-89618557D01*
X148427662Y-89523319D01*
X148380043Y-89475700D01*
X148284805Y-89428081D01*
X148189567Y-89428081D01*
X148094329Y-89475700D01*
X148046710Y-89523319D01*
X147999090Y-89618557D01*
X147951471Y-89809034D01*
X147903852Y-89904272D01*
X147856233Y-89951891D01*
X147760995Y-89999510D01*
X147665757Y-89999510D01*
X147570519Y-89951891D01*
X147522900Y-89904272D01*
X147475281Y-89809034D01*
X147475281Y-89570938D01*
X147522900Y-89428081D01*
X148475281Y-88999510D02*
X147475281Y-88999510D01*
X148475281Y-88428081D01*
X147475281Y-88428081D01*
X147475281Y-88047129D02*
X147475281Y-87380462D01*
X148475281Y-87809034D01*
X147808614Y-86570938D02*
X148475281Y-86570938D01*
X147427662Y-86809034D02*
X148141948Y-87047129D01*
X148141948Y-86428081D01*
X148475281Y-85570938D02*
X148475281Y-86047129D01*
X147475281Y-86047129D01*
X147475281Y-85380462D02*
X148475281Y-85047129D01*
X147475281Y-84713795D01*
X148380043Y-83809033D02*
X148427662Y-83856652D01*
X148475281Y-83999509D01*
X148475281Y-84094747D01*
X148427662Y-84237605D01*
X148332424Y-84332843D01*
X148237186Y-84380462D01*
X148046710Y-84428081D01*
X147903852Y-84428081D01*
X147713376Y-84380462D01*
X147618138Y-84332843D01*
X147522900Y-84237605D01*
X147475281Y-84094747D01*
X147475281Y-83999509D01*
X147522900Y-83856652D01*
X147570519Y-83809033D01*
X148475281Y-82856652D02*
X148475281Y-83428081D01*
X148475281Y-83142367D02*
X147475281Y-83142367D01*
X147618138Y-83237605D01*
X147713376Y-83332843D01*
X147760995Y-83428081D01*
X147522900Y-81904271D02*
X147475281Y-81999509D01*
X147475281Y-82142366D01*
X147522900Y-82285224D01*
X147618138Y-82380462D01*
X147713376Y-82428081D01*
X147903852Y-82475700D01*
X148046710Y-82475700D01*
X148237186Y-82428081D01*
X148332424Y-82380462D01*
X148427662Y-82285224D01*
X148475281Y-82142366D01*
X148475281Y-82047128D01*
X148427662Y-81904271D01*
X148380043Y-81856652D01*
X148046710Y-81856652D01*
X148046710Y-82047128D01*
X147475281Y-81523319D02*
X147475281Y-80904271D01*
X147856233Y-81237605D01*
X147856233Y-81094747D01*
X147903852Y-80999509D01*
X147951471Y-80951890D01*
X148046710Y-80904271D01*
X148284805Y-80904271D01*
X148380043Y-80951890D01*
X148427662Y-80999509D01*
X148475281Y-81094747D01*
X148475281Y-81380462D01*
X148427662Y-81475700D01*
X148380043Y-81523319D01*
X147570519Y-80523319D02*
X147522900Y-80475700D01*
X147475281Y-80380462D01*
X147475281Y-80142366D01*
X147522900Y-80047128D01*
X147570519Y-79999509D01*
X147665757Y-79951890D01*
X147760995Y-79951890D01*
X147903852Y-79999509D01*
X148475281Y-80570938D01*
X148475281Y-79951890D01*
D14*
X144741948Y-84701890D02*
X144741948Y-85106652D01*
X144765757Y-85154271D01*
X144789567Y-85178081D01*
X144837186Y-85201890D01*
X144932424Y-85201890D01*
X144980043Y-85178081D01*
X145003852Y-85154271D01*
X145027662Y-85106652D01*
X145027662Y-84701890D01*
X145337186Y-84916176D02*
X145289567Y-84892367D01*
X145265758Y-84868557D01*
X145241948Y-84820938D01*
X145241948Y-84797129D01*
X145265758Y-84749510D01*
X145289567Y-84725700D01*
X145337186Y-84701890D01*
X145432424Y-84701890D01*
X145480043Y-84725700D01*
X145503853Y-84749510D01*
X145527662Y-84797129D01*
X145527662Y-84820938D01*
X145503853Y-84868557D01*
X145480043Y-84892367D01*
X145432424Y-84916176D01*
X145337186Y-84916176D01*
X145289567Y-84939986D01*
X145265758Y-84963795D01*
X145241948Y-85011414D01*
X145241948Y-85106652D01*
X145265758Y-85154271D01*
X145289567Y-85178081D01*
X145337186Y-85201890D01*
X145432424Y-85201890D01*
X145480043Y-85178081D01*
X145503853Y-85154271D01*
X145527662Y-85106652D01*
X145527662Y-85011414D01*
X145503853Y-84963795D01*
X145480043Y-84939986D01*
X145432424Y-84916176D01*
M02*
