%TF.GenerationSoftware,KiCad,Pcbnew,4.0.7*%
%TF.CreationDate,2018-02-09T12:23:56+01:00*%
%TF.ProjectId,Metronome,4D6574726F6E6F6D652E6B696361645F,1.0*%
%TF.FileFunction,Copper,L2,Bot,Signal*%
%FSLAX46Y46*%
G04 Gerber Fmt 4.6, Leading zero omitted, Abs format (unit mm)*
G04 Created by KiCad (PCBNEW 4.0.7) date 02/09/18 12:23:56*
%MOMM*%
%LPD*%
G01*
G04 APERTURE LIST*
%ADD10C,0.127000*%
%ADD11C,1.600000*%
%ADD12R,1.700000X1.700000*%
%ADD13O,1.700000X1.700000*%
%ADD14R,1.800000X1.800000*%
%ADD15C,1.800000*%
%ADD16C,0.685800*%
%ADD17C,0.152400*%
%ADD18C,0.254000*%
G04 APERTURE END LIST*
D10*
D11*
X131851400Y-103837200D03*
X131851400Y-110437200D03*
D12*
X157568900Y-90436700D03*
D13*
X157568900Y-92976700D03*
X157568900Y-95516700D03*
X157568900Y-98056700D03*
X157568900Y-100596700D03*
D14*
X134708900Y-79006700D03*
D15*
X137248900Y-79006700D03*
D14*
X141058900Y-79006700D03*
D15*
X143598900Y-79006700D03*
D14*
X147408900Y-79006700D03*
D15*
X149948900Y-79006700D03*
D14*
X153758900Y-79006700D03*
D15*
X156298900Y-79006700D03*
D12*
X157505400Y-105613200D03*
D13*
X157505400Y-108153200D03*
D12*
X133438900Y-90436700D03*
D13*
X133438900Y-92976700D03*
X133438900Y-95516700D03*
X133438900Y-98056700D03*
D16*
X139280890Y-90881200D03*
X140741400Y-91135200D03*
X144078978Y-98210988D03*
X146608800Y-104998801D03*
X155727400Y-88849200D03*
X140995400Y-84912200D03*
X148107400Y-90138798D03*
X155663900Y-95072200D03*
X138074400Y-89166704D03*
X150710900Y-86944200D03*
X138455400Y-110629700D03*
X148336000Y-104998801D03*
X144353501Y-102879445D03*
X159918400Y-82626204D03*
X158013400Y-88849200D03*
X159918402Y-111455200D03*
X142951200Y-96266000D03*
X140360400Y-96342200D03*
X150571192Y-101244400D03*
X144576800Y-101955600D03*
X143611600Y-97129600D03*
X152397718Y-96187525D03*
X140868406Y-98374200D03*
X143143631Y-98119481D03*
X140995400Y-104216208D03*
X140741400Y-87706200D03*
X140741400Y-90119200D03*
X145313400Y-92659200D03*
X145339149Y-87540688D03*
D17*
X139534890Y-91135200D02*
X139280890Y-90881200D01*
X140741400Y-91135200D02*
X139534890Y-91135200D01*
D18*
X144353501Y-102879445D02*
X146216644Y-102879445D01*
X146216644Y-102879445D02*
X148336000Y-104998801D01*
X159918400Y-83111137D02*
X159918400Y-82626204D01*
X159410402Y-88849200D02*
X159918400Y-88341202D01*
X159918400Y-88341202D02*
X159918400Y-83111137D01*
X159918402Y-89357200D02*
X159918402Y-104343200D01*
X159410402Y-88849200D02*
X159918402Y-89357200D01*
X158013400Y-88849200D02*
X159410402Y-88849200D01*
X157505400Y-105613200D02*
X158648402Y-105613200D01*
X158648402Y-105613200D02*
X159918402Y-104343200D01*
X159918402Y-107010200D02*
X159918402Y-110970267D01*
X157505400Y-105613200D02*
X158609400Y-105613200D01*
X158609400Y-105613200D02*
X159918402Y-106922202D01*
X159918402Y-106922202D02*
X159918402Y-107010200D01*
X159918402Y-110970267D02*
X159918402Y-111455200D01*
D17*
X140360400Y-96342200D02*
X142875000Y-96342200D01*
X142875000Y-96342200D02*
X142951200Y-96266000D01*
X145288000Y-101244400D02*
X150086259Y-101244400D01*
X144576800Y-101955600D02*
X145288000Y-101244400D01*
X150086259Y-101244400D02*
X150571192Y-101244400D01*
X143126667Y-97129600D02*
X143611600Y-97129600D01*
X142113006Y-97129600D02*
X143126667Y-97129600D01*
X140868406Y-98374200D02*
X142113006Y-97129600D01*
X157568900Y-98056700D02*
X154266893Y-98056700D01*
X154266893Y-98056700D02*
X152740617Y-96530424D01*
X152740617Y-96530424D02*
X152397718Y-96187525D01*
X143143631Y-102067977D02*
X143143631Y-98604414D01*
X140995400Y-104216208D02*
X143143631Y-102067977D01*
X143143631Y-98604414D02*
X143143631Y-98119481D01*
X140741400Y-90119200D02*
X140741400Y-87706200D01*
X145313400Y-92659200D02*
X145313400Y-87566437D01*
X145313400Y-87566437D02*
X145339149Y-87540688D01*
D18*
G36*
X160289500Y-81996471D02*
X160063024Y-81902430D01*
X159775039Y-81902179D01*
X159508879Y-82012154D01*
X159305065Y-82215612D01*
X159194626Y-82481580D01*
X159194375Y-82769565D01*
X159304350Y-83035725D01*
X159410400Y-83141961D01*
X159410400Y-88130782D01*
X159199982Y-88341200D01*
X158529143Y-88341200D01*
X158423992Y-88235865D01*
X158158024Y-88125426D01*
X157870039Y-88125175D01*
X157603879Y-88235150D01*
X157400065Y-88438608D01*
X157289626Y-88704576D01*
X157289375Y-88992561D01*
X157399350Y-89258721D01*
X157442381Y-89301827D01*
X156718900Y-89301827D01*
X156615361Y-89321309D01*
X156520266Y-89382501D01*
X156456471Y-89475868D01*
X156434027Y-89586700D01*
X156434027Y-91286700D01*
X156453509Y-91390239D01*
X156514701Y-91485334D01*
X156608068Y-91549129D01*
X156718900Y-91571573D01*
X158418900Y-91571573D01*
X158522439Y-91552091D01*
X158617534Y-91490899D01*
X158681329Y-91397532D01*
X158703773Y-91286700D01*
X158703773Y-89586700D01*
X158684291Y-89483161D01*
X158623099Y-89388066D01*
X158577925Y-89357200D01*
X159199982Y-89357200D01*
X159410402Y-89567621D01*
X159410402Y-104132780D01*
X158743864Y-104799318D01*
X158743864Y-104763200D01*
X158717297Y-104622010D01*
X158633854Y-104492335D01*
X158506534Y-104405341D01*
X158355400Y-104374736D01*
X156655400Y-104374736D01*
X156514210Y-104401303D01*
X156384535Y-104484746D01*
X156297541Y-104612066D01*
X156266936Y-104763200D01*
X156266936Y-106463200D01*
X156293503Y-106604390D01*
X156376946Y-106734065D01*
X156504266Y-106821059D01*
X156655400Y-106851664D01*
X156850505Y-106851664D01*
X156624042Y-106958017D01*
X156233755Y-107386276D01*
X156063924Y-107796310D01*
X156185245Y-108026200D01*
X157378400Y-108026200D01*
X157378400Y-108006200D01*
X157632400Y-108006200D01*
X157632400Y-108026200D01*
X158825555Y-108026200D01*
X158946876Y-107796310D01*
X158777045Y-107386276D01*
X158386758Y-106958017D01*
X158160295Y-106851664D01*
X158355400Y-106851664D01*
X158496590Y-106825097D01*
X158626265Y-106741654D01*
X158713259Y-106614334D01*
X158743378Y-106465599D01*
X159410402Y-107132623D01*
X159410402Y-110939457D01*
X159305067Y-111044608D01*
X159194628Y-111310576D01*
X159194377Y-111598561D01*
X159304352Y-111864721D01*
X159507810Y-112068535D01*
X159773778Y-112178974D01*
X160061763Y-112179225D01*
X160289500Y-112085126D01*
X160289500Y-112768300D01*
X136232900Y-112768300D01*
X136232900Y-108510090D01*
X156063924Y-108510090D01*
X156233755Y-108920124D01*
X156624042Y-109348383D01*
X157148508Y-109594686D01*
X157378400Y-109474019D01*
X157378400Y-108280200D01*
X157632400Y-108280200D01*
X157632400Y-109474019D01*
X157862292Y-109594686D01*
X158386758Y-109348383D01*
X158777045Y-108920124D01*
X158946876Y-108510090D01*
X158825555Y-108280200D01*
X157632400Y-108280200D01*
X157378400Y-108280200D01*
X156185245Y-108280200D01*
X156063924Y-108510090D01*
X136232900Y-108510090D01*
X136232900Y-100596700D01*
X136222894Y-100547290D01*
X136194453Y-100505665D01*
X136152059Y-100478385D01*
X136105900Y-100469700D01*
X130975300Y-100469700D01*
X130975300Y-98056700D01*
X132287374Y-98056700D01*
X132373344Y-98488903D01*
X132618168Y-98855306D01*
X132984571Y-99100130D01*
X133416774Y-99186100D01*
X133461026Y-99186100D01*
X133893229Y-99100130D01*
X134259632Y-98855306D01*
X134504456Y-98488903D01*
X134590426Y-98056700D01*
X134504456Y-97624497D01*
X134259632Y-97258094D01*
X133893229Y-97013270D01*
X133461026Y-96927300D01*
X133416774Y-96927300D01*
X132984571Y-97013270D01*
X132618168Y-97258094D01*
X132373344Y-97624497D01*
X132287374Y-98056700D01*
X130975300Y-98056700D01*
X130975300Y-95516700D01*
X132287374Y-95516700D01*
X132373344Y-95948903D01*
X132618168Y-96315306D01*
X132984571Y-96560130D01*
X133416774Y-96646100D01*
X133461026Y-96646100D01*
X133893229Y-96560130D01*
X134034941Y-96465440D01*
X139737992Y-96465440D01*
X139832532Y-96694244D01*
X140007435Y-96869453D01*
X140236074Y-96964392D01*
X140483640Y-96964608D01*
X140712444Y-96870068D01*
X140885013Y-96697800D01*
X142502949Y-96697800D01*
X142579016Y-96774000D01*
X142113006Y-96774000D01*
X141976923Y-96801068D01*
X141861559Y-96878153D01*
X140987708Y-97752004D01*
X140745166Y-97751792D01*
X140516362Y-97846332D01*
X140341153Y-98021235D01*
X140246214Y-98249874D01*
X140245998Y-98497440D01*
X140340538Y-98726244D01*
X140515441Y-98901453D01*
X140744080Y-98996392D01*
X140991646Y-98996608D01*
X141220450Y-98902068D01*
X141395659Y-98727165D01*
X141490598Y-98498526D01*
X141490811Y-98254689D01*
X142260300Y-97485200D01*
X143087282Y-97485200D01*
X143099203Y-97497142D01*
X143020391Y-97497073D01*
X142791587Y-97591613D01*
X142616378Y-97766516D01*
X142521439Y-97995155D01*
X142521223Y-98242721D01*
X142615763Y-98471525D01*
X142788031Y-98644094D01*
X142788031Y-101920683D01*
X141114702Y-103594012D01*
X140872160Y-103593800D01*
X140643356Y-103688340D01*
X140468147Y-103863243D01*
X140373208Y-104091882D01*
X140372992Y-104339448D01*
X140467532Y-104568252D01*
X140642435Y-104743461D01*
X140871074Y-104838400D01*
X141118640Y-104838616D01*
X141347444Y-104744076D01*
X141522653Y-104569173D01*
X141617592Y-104340534D01*
X141617805Y-104096697D01*
X142691696Y-103022806D01*
X143629476Y-103022806D01*
X143739451Y-103288966D01*
X143942909Y-103492780D01*
X144208877Y-103603219D01*
X144496862Y-103603470D01*
X144763022Y-103493495D01*
X144869258Y-103387445D01*
X146006224Y-103387445D01*
X147612105Y-104993326D01*
X147611975Y-105142162D01*
X147721950Y-105408322D01*
X147925408Y-105612136D01*
X148191376Y-105722575D01*
X148479361Y-105722826D01*
X148745521Y-105612851D01*
X148949335Y-105409393D01*
X149059774Y-105143425D01*
X149060025Y-104855440D01*
X148950050Y-104589280D01*
X148746592Y-104385466D01*
X148480624Y-104275027D01*
X148330515Y-104274896D01*
X146575854Y-102520235D01*
X146411047Y-102410114D01*
X146216644Y-102371445D01*
X145041063Y-102371445D01*
X145104053Y-102308565D01*
X145198992Y-102079926D01*
X145199205Y-101836089D01*
X145435294Y-101600000D01*
X150046874Y-101600000D01*
X150218227Y-101771653D01*
X150446866Y-101866592D01*
X150694432Y-101866808D01*
X150923236Y-101772268D01*
X151098445Y-101597365D01*
X151193384Y-101368726D01*
X151193600Y-101121160D01*
X151099060Y-100892356D01*
X150924157Y-100717147D01*
X150695518Y-100622208D01*
X150447952Y-100621992D01*
X150219148Y-100716532D01*
X150046579Y-100888800D01*
X145288000Y-100888800D01*
X145151918Y-100915868D01*
X145036553Y-100992953D01*
X144696102Y-101333404D01*
X144453560Y-101333192D01*
X144224756Y-101427732D01*
X144049547Y-101602635D01*
X143954608Y-101831274D01*
X143954392Y-102078840D01*
X144018716Y-102234515D01*
X143943980Y-102265395D01*
X143740166Y-102468853D01*
X143629727Y-102734821D01*
X143629476Y-103022806D01*
X142691696Y-103022806D01*
X143395078Y-102319424D01*
X143402949Y-102307644D01*
X143472163Y-102204059D01*
X143499231Y-102067977D01*
X143499231Y-100596700D01*
X156417374Y-100596700D01*
X156503344Y-101028903D01*
X156748168Y-101395306D01*
X157114571Y-101640130D01*
X157546774Y-101726100D01*
X157591026Y-101726100D01*
X158023229Y-101640130D01*
X158389632Y-101395306D01*
X158634456Y-101028903D01*
X158720426Y-100596700D01*
X158634456Y-100164497D01*
X158389632Y-99798094D01*
X158023229Y-99553270D01*
X157591026Y-99467300D01*
X157546774Y-99467300D01*
X157114571Y-99553270D01*
X156748168Y-99798094D01*
X156503344Y-100164497D01*
X156417374Y-100596700D01*
X143499231Y-100596700D01*
X143499231Y-98643799D01*
X143670884Y-98472446D01*
X143765823Y-98243807D01*
X143766039Y-97996241D01*
X143671499Y-97767437D01*
X143656028Y-97751939D01*
X143734840Y-97752008D01*
X143963644Y-97657468D01*
X144138853Y-97482565D01*
X144233792Y-97253926D01*
X144234008Y-97006360D01*
X144139468Y-96777556D01*
X143964565Y-96602347D01*
X143735926Y-96507408D01*
X143524852Y-96507224D01*
X143573392Y-96390326D01*
X143573461Y-96310765D01*
X151775310Y-96310765D01*
X151869850Y-96539569D01*
X152044753Y-96714778D01*
X152273392Y-96809717D01*
X152517229Y-96809930D01*
X154015446Y-98308147D01*
X154130810Y-98385232D01*
X154266893Y-98412300D01*
X156488107Y-98412300D01*
X156503344Y-98488903D01*
X156748168Y-98855306D01*
X157114571Y-99100130D01*
X157546774Y-99186100D01*
X157591026Y-99186100D01*
X158023229Y-99100130D01*
X158389632Y-98855306D01*
X158634456Y-98488903D01*
X158720426Y-98056700D01*
X158634456Y-97624497D01*
X158389632Y-97258094D01*
X158023229Y-97013270D01*
X157591026Y-96927300D01*
X157546774Y-96927300D01*
X157114571Y-97013270D01*
X156748168Y-97258094D01*
X156503344Y-97624497D01*
X156488107Y-97701100D01*
X154414187Y-97701100D01*
X153019914Y-96306827D01*
X153020126Y-96064285D01*
X152925586Y-95835481D01*
X152750683Y-95660272D01*
X152522044Y-95565333D01*
X152274478Y-95565117D01*
X152045674Y-95659657D01*
X151870465Y-95834560D01*
X151775526Y-96063199D01*
X151775310Y-96310765D01*
X143573461Y-96310765D01*
X143573608Y-96142760D01*
X143479068Y-95913956D01*
X143304165Y-95738747D01*
X143075526Y-95643808D01*
X142827960Y-95643592D01*
X142599156Y-95738132D01*
X142423947Y-95913035D01*
X142393400Y-95986600D01*
X140884718Y-95986600D01*
X140713365Y-95814947D01*
X140484726Y-95720008D01*
X140237160Y-95719792D01*
X140008356Y-95814332D01*
X139833147Y-95989235D01*
X139738208Y-96217874D01*
X139737992Y-96465440D01*
X134034941Y-96465440D01*
X134259632Y-96315306D01*
X134504456Y-95948903D01*
X134590426Y-95516700D01*
X156417374Y-95516700D01*
X156503344Y-95948903D01*
X156748168Y-96315306D01*
X157114571Y-96560130D01*
X157546774Y-96646100D01*
X157591026Y-96646100D01*
X158023229Y-96560130D01*
X158389632Y-96315306D01*
X158634456Y-95948903D01*
X158720426Y-95516700D01*
X158634456Y-95084497D01*
X158389632Y-94718094D01*
X158023229Y-94473270D01*
X157591026Y-94387300D01*
X157546774Y-94387300D01*
X157114571Y-94473270D01*
X156748168Y-94718094D01*
X156503344Y-95084497D01*
X156417374Y-95516700D01*
X134590426Y-95516700D01*
X134504456Y-95084497D01*
X134259632Y-94718094D01*
X133893229Y-94473270D01*
X133461026Y-94387300D01*
X133416774Y-94387300D01*
X132984571Y-94473270D01*
X132618168Y-94718094D01*
X132373344Y-95084497D01*
X132287374Y-95516700D01*
X130975300Y-95516700D01*
X130975300Y-92976700D01*
X132287374Y-92976700D01*
X132373344Y-93408903D01*
X132618168Y-93775306D01*
X132984571Y-94020130D01*
X133416774Y-94106100D01*
X133461026Y-94106100D01*
X133893229Y-94020130D01*
X134259632Y-93775306D01*
X134504456Y-93408903D01*
X134590426Y-92976700D01*
X134551786Y-92782440D01*
X144690992Y-92782440D01*
X144785532Y-93011244D01*
X144960435Y-93186453D01*
X145189074Y-93281392D01*
X145436640Y-93281608D01*
X145665444Y-93187068D01*
X145840653Y-93012165D01*
X145855379Y-92976700D01*
X156417374Y-92976700D01*
X156503344Y-93408903D01*
X156748168Y-93775306D01*
X157114571Y-94020130D01*
X157546774Y-94106100D01*
X157591026Y-94106100D01*
X158023229Y-94020130D01*
X158389632Y-93775306D01*
X158634456Y-93408903D01*
X158720426Y-92976700D01*
X158634456Y-92544497D01*
X158389632Y-92178094D01*
X158023229Y-91933270D01*
X157591026Y-91847300D01*
X157546774Y-91847300D01*
X157114571Y-91933270D01*
X156748168Y-92178094D01*
X156503344Y-92544497D01*
X156417374Y-92976700D01*
X145855379Y-92976700D01*
X145935592Y-92783526D01*
X145935808Y-92535960D01*
X145841268Y-92307156D01*
X145669000Y-92134587D01*
X145669000Y-88077726D01*
X145691193Y-88068556D01*
X145866402Y-87893653D01*
X145961341Y-87665014D01*
X145961557Y-87417448D01*
X145867017Y-87188644D01*
X145692114Y-87013435D01*
X145463475Y-86918496D01*
X145215909Y-86918280D01*
X144987105Y-87012820D01*
X144811896Y-87187723D01*
X144716957Y-87416362D01*
X144716741Y-87663928D01*
X144811281Y-87892732D01*
X144957800Y-88039507D01*
X144957800Y-92134882D01*
X144786147Y-92306235D01*
X144691208Y-92534874D01*
X144690992Y-92782440D01*
X134551786Y-92782440D01*
X134504456Y-92544497D01*
X134259632Y-92178094D01*
X133893229Y-91933270D01*
X133461026Y-91847300D01*
X133416774Y-91847300D01*
X132984571Y-91933270D01*
X132618168Y-92178094D01*
X132373344Y-92544497D01*
X132287374Y-92976700D01*
X130975300Y-92976700D01*
X130975300Y-89586700D01*
X132304027Y-89586700D01*
X132304027Y-91286700D01*
X132323509Y-91390239D01*
X132384701Y-91485334D01*
X132478068Y-91549129D01*
X132588900Y-91571573D01*
X134288900Y-91571573D01*
X134392439Y-91552091D01*
X134487534Y-91490899D01*
X134551329Y-91397532D01*
X134573773Y-91286700D01*
X134573773Y-91004440D01*
X138658482Y-91004440D01*
X138753022Y-91233244D01*
X138927925Y-91408453D01*
X139156564Y-91503392D01*
X139404130Y-91503608D01*
X139467546Y-91477405D01*
X139534890Y-91490800D01*
X140217082Y-91490800D01*
X140388435Y-91662453D01*
X140617074Y-91757392D01*
X140864640Y-91757608D01*
X141093444Y-91663068D01*
X141268653Y-91488165D01*
X141363592Y-91259526D01*
X141363808Y-91011960D01*
X141269268Y-90783156D01*
X141113466Y-90627081D01*
X141268653Y-90472165D01*
X141363592Y-90243526D01*
X141363808Y-89995960D01*
X141269268Y-89767156D01*
X141097000Y-89594587D01*
X141097000Y-88230518D01*
X141268653Y-88059165D01*
X141363592Y-87830526D01*
X141363808Y-87582960D01*
X141269268Y-87354156D01*
X141094365Y-87178947D01*
X140865726Y-87084008D01*
X140618160Y-87083792D01*
X140389356Y-87178332D01*
X140214147Y-87353235D01*
X140119208Y-87581874D01*
X140118992Y-87829440D01*
X140213532Y-88058244D01*
X140385800Y-88230813D01*
X140385800Y-89594882D01*
X140214147Y-89766235D01*
X140119208Y-89994874D01*
X140118992Y-90242440D01*
X140213532Y-90471244D01*
X140369334Y-90627319D01*
X140216787Y-90779600D01*
X139903279Y-90779600D01*
X139903298Y-90757960D01*
X139808758Y-90529156D01*
X139633855Y-90353947D01*
X139405216Y-90259008D01*
X139157650Y-90258792D01*
X138928846Y-90353332D01*
X138753637Y-90528235D01*
X138658698Y-90756874D01*
X138658482Y-91004440D01*
X134573773Y-91004440D01*
X134573773Y-89586700D01*
X134554291Y-89483161D01*
X134493099Y-89388066D01*
X134399732Y-89324271D01*
X134288900Y-89301827D01*
X132588900Y-89301827D01*
X132485361Y-89321309D01*
X132390266Y-89382501D01*
X132326471Y-89475868D01*
X132304027Y-89586700D01*
X130975300Y-89586700D01*
X130975300Y-79292450D01*
X133173900Y-79292450D01*
X133173900Y-80033010D01*
X133270573Y-80266399D01*
X133449202Y-80445027D01*
X133682591Y-80541700D01*
X134423150Y-80541700D01*
X134581900Y-80382950D01*
X134581900Y-79133700D01*
X133332650Y-79133700D01*
X133173900Y-79292450D01*
X130975300Y-79292450D01*
X130975300Y-77980390D01*
X133173900Y-77980390D01*
X133173900Y-78720950D01*
X133332650Y-78879700D01*
X134581900Y-78879700D01*
X134581900Y-77630450D01*
X134835900Y-77630450D01*
X134835900Y-78879700D01*
X134855900Y-78879700D01*
X134855900Y-79133700D01*
X134835900Y-79133700D01*
X134835900Y-80382950D01*
X134994650Y-80541700D01*
X135735209Y-80541700D01*
X135968598Y-80445027D01*
X136147227Y-80266399D01*
X136243900Y-80033010D01*
X136243900Y-79662844D01*
X136248470Y-79673904D01*
X136579951Y-80005964D01*
X137013274Y-80185895D01*
X137482468Y-80186304D01*
X137916104Y-80007130D01*
X138248164Y-79675649D01*
X138407281Y-79292450D01*
X139523900Y-79292450D01*
X139523900Y-80033010D01*
X139620573Y-80266399D01*
X139799202Y-80445027D01*
X140032591Y-80541700D01*
X140773150Y-80541700D01*
X140931900Y-80382950D01*
X140931900Y-79133700D01*
X139682650Y-79133700D01*
X139523900Y-79292450D01*
X138407281Y-79292450D01*
X138428095Y-79242326D01*
X138428504Y-78773132D01*
X138249330Y-78339496D01*
X137917849Y-78007436D01*
X137852715Y-77980390D01*
X139523900Y-77980390D01*
X139523900Y-78720950D01*
X139682650Y-78879700D01*
X140931900Y-78879700D01*
X140931900Y-77630450D01*
X141185900Y-77630450D01*
X141185900Y-78879700D01*
X141205900Y-78879700D01*
X141205900Y-79133700D01*
X141185900Y-79133700D01*
X141185900Y-80382950D01*
X141344650Y-80541700D01*
X142085209Y-80541700D01*
X142318598Y-80445027D01*
X142497227Y-80266399D01*
X142593900Y-80033010D01*
X142593900Y-79662844D01*
X142598470Y-79673904D01*
X142929951Y-80005964D01*
X143363274Y-80185895D01*
X143832468Y-80186304D01*
X144266104Y-80007130D01*
X144598164Y-79675649D01*
X144757281Y-79292450D01*
X145873900Y-79292450D01*
X145873900Y-80033010D01*
X145970573Y-80266399D01*
X146149202Y-80445027D01*
X146382591Y-80541700D01*
X147123150Y-80541700D01*
X147281900Y-80382950D01*
X147281900Y-79133700D01*
X146032650Y-79133700D01*
X145873900Y-79292450D01*
X144757281Y-79292450D01*
X144778095Y-79242326D01*
X144778504Y-78773132D01*
X144599330Y-78339496D01*
X144267849Y-78007436D01*
X144202715Y-77980390D01*
X145873900Y-77980390D01*
X145873900Y-78720950D01*
X146032650Y-78879700D01*
X147281900Y-78879700D01*
X147281900Y-77630450D01*
X147535900Y-77630450D01*
X147535900Y-78879700D01*
X147555900Y-78879700D01*
X147555900Y-79133700D01*
X147535900Y-79133700D01*
X147535900Y-80382950D01*
X147694650Y-80541700D01*
X148435209Y-80541700D01*
X148668598Y-80445027D01*
X148847227Y-80266399D01*
X148943900Y-80033010D01*
X148943900Y-79662844D01*
X148948470Y-79673904D01*
X149279951Y-80005964D01*
X149713274Y-80185895D01*
X150182468Y-80186304D01*
X150616104Y-80007130D01*
X150948164Y-79675649D01*
X151107281Y-79292450D01*
X152223900Y-79292450D01*
X152223900Y-80033010D01*
X152320573Y-80266399D01*
X152499202Y-80445027D01*
X152732591Y-80541700D01*
X153473150Y-80541700D01*
X153631900Y-80382950D01*
X153631900Y-79133700D01*
X152382650Y-79133700D01*
X152223900Y-79292450D01*
X151107281Y-79292450D01*
X151128095Y-79242326D01*
X151128504Y-78773132D01*
X150949330Y-78339496D01*
X150617849Y-78007436D01*
X150552715Y-77980390D01*
X152223900Y-77980390D01*
X152223900Y-78720950D01*
X152382650Y-78879700D01*
X153631900Y-78879700D01*
X153631900Y-77630450D01*
X153885900Y-77630450D01*
X153885900Y-78879700D01*
X153905900Y-78879700D01*
X153905900Y-79133700D01*
X153885900Y-79133700D01*
X153885900Y-80382950D01*
X154044650Y-80541700D01*
X154785209Y-80541700D01*
X155018598Y-80445027D01*
X155197227Y-80266399D01*
X155293900Y-80033010D01*
X155293900Y-79662844D01*
X155298470Y-79673904D01*
X155629951Y-80005964D01*
X156063274Y-80185895D01*
X156532468Y-80186304D01*
X156966104Y-80007130D01*
X157298164Y-79675649D01*
X157478095Y-79242326D01*
X157478504Y-78773132D01*
X157299330Y-78339496D01*
X156967849Y-78007436D01*
X156534526Y-77827505D01*
X156065332Y-77827096D01*
X155631696Y-78006270D01*
X155299636Y-78337751D01*
X155293900Y-78351565D01*
X155293900Y-77980390D01*
X155197227Y-77747001D01*
X155018598Y-77568373D01*
X154785209Y-77471700D01*
X154044650Y-77471700D01*
X153885900Y-77630450D01*
X153631900Y-77630450D01*
X153473150Y-77471700D01*
X152732591Y-77471700D01*
X152499202Y-77568373D01*
X152320573Y-77747001D01*
X152223900Y-77980390D01*
X150552715Y-77980390D01*
X150184526Y-77827505D01*
X149715332Y-77827096D01*
X149281696Y-78006270D01*
X148949636Y-78337751D01*
X148943900Y-78351565D01*
X148943900Y-77980390D01*
X148847227Y-77747001D01*
X148668598Y-77568373D01*
X148435209Y-77471700D01*
X147694650Y-77471700D01*
X147535900Y-77630450D01*
X147281900Y-77630450D01*
X147123150Y-77471700D01*
X146382591Y-77471700D01*
X146149202Y-77568373D01*
X145970573Y-77747001D01*
X145873900Y-77980390D01*
X144202715Y-77980390D01*
X143834526Y-77827505D01*
X143365332Y-77827096D01*
X142931696Y-78006270D01*
X142599636Y-78337751D01*
X142593900Y-78351565D01*
X142593900Y-77980390D01*
X142497227Y-77747001D01*
X142318598Y-77568373D01*
X142085209Y-77471700D01*
X141344650Y-77471700D01*
X141185900Y-77630450D01*
X140931900Y-77630450D01*
X140773150Y-77471700D01*
X140032591Y-77471700D01*
X139799202Y-77568373D01*
X139620573Y-77747001D01*
X139523900Y-77980390D01*
X137852715Y-77980390D01*
X137484526Y-77827505D01*
X137015332Y-77827096D01*
X136581696Y-78006270D01*
X136249636Y-78337751D01*
X136243900Y-78351565D01*
X136243900Y-77980390D01*
X136147227Y-77747001D01*
X135968598Y-77568373D01*
X135735209Y-77471700D01*
X134994650Y-77471700D01*
X134835900Y-77630450D01*
X134581900Y-77630450D01*
X134423150Y-77471700D01*
X133682591Y-77471700D01*
X133449202Y-77568373D01*
X133270573Y-77747001D01*
X133173900Y-77980390D01*
X130975300Y-77980390D01*
X130975300Y-76454100D01*
X160289500Y-76454100D01*
X160289500Y-81996471D01*
X160289500Y-81996471D01*
G37*
X160289500Y-81996471D02*
X160063024Y-81902430D01*
X159775039Y-81902179D01*
X159508879Y-82012154D01*
X159305065Y-82215612D01*
X159194626Y-82481580D01*
X159194375Y-82769565D01*
X159304350Y-83035725D01*
X159410400Y-83141961D01*
X159410400Y-88130782D01*
X159199982Y-88341200D01*
X158529143Y-88341200D01*
X158423992Y-88235865D01*
X158158024Y-88125426D01*
X157870039Y-88125175D01*
X157603879Y-88235150D01*
X157400065Y-88438608D01*
X157289626Y-88704576D01*
X157289375Y-88992561D01*
X157399350Y-89258721D01*
X157442381Y-89301827D01*
X156718900Y-89301827D01*
X156615361Y-89321309D01*
X156520266Y-89382501D01*
X156456471Y-89475868D01*
X156434027Y-89586700D01*
X156434027Y-91286700D01*
X156453509Y-91390239D01*
X156514701Y-91485334D01*
X156608068Y-91549129D01*
X156718900Y-91571573D01*
X158418900Y-91571573D01*
X158522439Y-91552091D01*
X158617534Y-91490899D01*
X158681329Y-91397532D01*
X158703773Y-91286700D01*
X158703773Y-89586700D01*
X158684291Y-89483161D01*
X158623099Y-89388066D01*
X158577925Y-89357200D01*
X159199982Y-89357200D01*
X159410402Y-89567621D01*
X159410402Y-104132780D01*
X158743864Y-104799318D01*
X158743864Y-104763200D01*
X158717297Y-104622010D01*
X158633854Y-104492335D01*
X158506534Y-104405341D01*
X158355400Y-104374736D01*
X156655400Y-104374736D01*
X156514210Y-104401303D01*
X156384535Y-104484746D01*
X156297541Y-104612066D01*
X156266936Y-104763200D01*
X156266936Y-106463200D01*
X156293503Y-106604390D01*
X156376946Y-106734065D01*
X156504266Y-106821059D01*
X156655400Y-106851664D01*
X156850505Y-106851664D01*
X156624042Y-106958017D01*
X156233755Y-107386276D01*
X156063924Y-107796310D01*
X156185245Y-108026200D01*
X157378400Y-108026200D01*
X157378400Y-108006200D01*
X157632400Y-108006200D01*
X157632400Y-108026200D01*
X158825555Y-108026200D01*
X158946876Y-107796310D01*
X158777045Y-107386276D01*
X158386758Y-106958017D01*
X158160295Y-106851664D01*
X158355400Y-106851664D01*
X158496590Y-106825097D01*
X158626265Y-106741654D01*
X158713259Y-106614334D01*
X158743378Y-106465599D01*
X159410402Y-107132623D01*
X159410402Y-110939457D01*
X159305067Y-111044608D01*
X159194628Y-111310576D01*
X159194377Y-111598561D01*
X159304352Y-111864721D01*
X159507810Y-112068535D01*
X159773778Y-112178974D01*
X160061763Y-112179225D01*
X160289500Y-112085126D01*
X160289500Y-112768300D01*
X136232900Y-112768300D01*
X136232900Y-108510090D01*
X156063924Y-108510090D01*
X156233755Y-108920124D01*
X156624042Y-109348383D01*
X157148508Y-109594686D01*
X157378400Y-109474019D01*
X157378400Y-108280200D01*
X157632400Y-108280200D01*
X157632400Y-109474019D01*
X157862292Y-109594686D01*
X158386758Y-109348383D01*
X158777045Y-108920124D01*
X158946876Y-108510090D01*
X158825555Y-108280200D01*
X157632400Y-108280200D01*
X157378400Y-108280200D01*
X156185245Y-108280200D01*
X156063924Y-108510090D01*
X136232900Y-108510090D01*
X136232900Y-100596700D01*
X136222894Y-100547290D01*
X136194453Y-100505665D01*
X136152059Y-100478385D01*
X136105900Y-100469700D01*
X130975300Y-100469700D01*
X130975300Y-98056700D01*
X132287374Y-98056700D01*
X132373344Y-98488903D01*
X132618168Y-98855306D01*
X132984571Y-99100130D01*
X133416774Y-99186100D01*
X133461026Y-99186100D01*
X133893229Y-99100130D01*
X134259632Y-98855306D01*
X134504456Y-98488903D01*
X134590426Y-98056700D01*
X134504456Y-97624497D01*
X134259632Y-97258094D01*
X133893229Y-97013270D01*
X133461026Y-96927300D01*
X133416774Y-96927300D01*
X132984571Y-97013270D01*
X132618168Y-97258094D01*
X132373344Y-97624497D01*
X132287374Y-98056700D01*
X130975300Y-98056700D01*
X130975300Y-95516700D01*
X132287374Y-95516700D01*
X132373344Y-95948903D01*
X132618168Y-96315306D01*
X132984571Y-96560130D01*
X133416774Y-96646100D01*
X133461026Y-96646100D01*
X133893229Y-96560130D01*
X134034941Y-96465440D01*
X139737992Y-96465440D01*
X139832532Y-96694244D01*
X140007435Y-96869453D01*
X140236074Y-96964392D01*
X140483640Y-96964608D01*
X140712444Y-96870068D01*
X140885013Y-96697800D01*
X142502949Y-96697800D01*
X142579016Y-96774000D01*
X142113006Y-96774000D01*
X141976923Y-96801068D01*
X141861559Y-96878153D01*
X140987708Y-97752004D01*
X140745166Y-97751792D01*
X140516362Y-97846332D01*
X140341153Y-98021235D01*
X140246214Y-98249874D01*
X140245998Y-98497440D01*
X140340538Y-98726244D01*
X140515441Y-98901453D01*
X140744080Y-98996392D01*
X140991646Y-98996608D01*
X141220450Y-98902068D01*
X141395659Y-98727165D01*
X141490598Y-98498526D01*
X141490811Y-98254689D01*
X142260300Y-97485200D01*
X143087282Y-97485200D01*
X143099203Y-97497142D01*
X143020391Y-97497073D01*
X142791587Y-97591613D01*
X142616378Y-97766516D01*
X142521439Y-97995155D01*
X142521223Y-98242721D01*
X142615763Y-98471525D01*
X142788031Y-98644094D01*
X142788031Y-101920683D01*
X141114702Y-103594012D01*
X140872160Y-103593800D01*
X140643356Y-103688340D01*
X140468147Y-103863243D01*
X140373208Y-104091882D01*
X140372992Y-104339448D01*
X140467532Y-104568252D01*
X140642435Y-104743461D01*
X140871074Y-104838400D01*
X141118640Y-104838616D01*
X141347444Y-104744076D01*
X141522653Y-104569173D01*
X141617592Y-104340534D01*
X141617805Y-104096697D01*
X142691696Y-103022806D01*
X143629476Y-103022806D01*
X143739451Y-103288966D01*
X143942909Y-103492780D01*
X144208877Y-103603219D01*
X144496862Y-103603470D01*
X144763022Y-103493495D01*
X144869258Y-103387445D01*
X146006224Y-103387445D01*
X147612105Y-104993326D01*
X147611975Y-105142162D01*
X147721950Y-105408322D01*
X147925408Y-105612136D01*
X148191376Y-105722575D01*
X148479361Y-105722826D01*
X148745521Y-105612851D01*
X148949335Y-105409393D01*
X149059774Y-105143425D01*
X149060025Y-104855440D01*
X148950050Y-104589280D01*
X148746592Y-104385466D01*
X148480624Y-104275027D01*
X148330515Y-104274896D01*
X146575854Y-102520235D01*
X146411047Y-102410114D01*
X146216644Y-102371445D01*
X145041063Y-102371445D01*
X145104053Y-102308565D01*
X145198992Y-102079926D01*
X145199205Y-101836089D01*
X145435294Y-101600000D01*
X150046874Y-101600000D01*
X150218227Y-101771653D01*
X150446866Y-101866592D01*
X150694432Y-101866808D01*
X150923236Y-101772268D01*
X151098445Y-101597365D01*
X151193384Y-101368726D01*
X151193600Y-101121160D01*
X151099060Y-100892356D01*
X150924157Y-100717147D01*
X150695518Y-100622208D01*
X150447952Y-100621992D01*
X150219148Y-100716532D01*
X150046579Y-100888800D01*
X145288000Y-100888800D01*
X145151918Y-100915868D01*
X145036553Y-100992953D01*
X144696102Y-101333404D01*
X144453560Y-101333192D01*
X144224756Y-101427732D01*
X144049547Y-101602635D01*
X143954608Y-101831274D01*
X143954392Y-102078840D01*
X144018716Y-102234515D01*
X143943980Y-102265395D01*
X143740166Y-102468853D01*
X143629727Y-102734821D01*
X143629476Y-103022806D01*
X142691696Y-103022806D01*
X143395078Y-102319424D01*
X143402949Y-102307644D01*
X143472163Y-102204059D01*
X143499231Y-102067977D01*
X143499231Y-100596700D01*
X156417374Y-100596700D01*
X156503344Y-101028903D01*
X156748168Y-101395306D01*
X157114571Y-101640130D01*
X157546774Y-101726100D01*
X157591026Y-101726100D01*
X158023229Y-101640130D01*
X158389632Y-101395306D01*
X158634456Y-101028903D01*
X158720426Y-100596700D01*
X158634456Y-100164497D01*
X158389632Y-99798094D01*
X158023229Y-99553270D01*
X157591026Y-99467300D01*
X157546774Y-99467300D01*
X157114571Y-99553270D01*
X156748168Y-99798094D01*
X156503344Y-100164497D01*
X156417374Y-100596700D01*
X143499231Y-100596700D01*
X143499231Y-98643799D01*
X143670884Y-98472446D01*
X143765823Y-98243807D01*
X143766039Y-97996241D01*
X143671499Y-97767437D01*
X143656028Y-97751939D01*
X143734840Y-97752008D01*
X143963644Y-97657468D01*
X144138853Y-97482565D01*
X144233792Y-97253926D01*
X144234008Y-97006360D01*
X144139468Y-96777556D01*
X143964565Y-96602347D01*
X143735926Y-96507408D01*
X143524852Y-96507224D01*
X143573392Y-96390326D01*
X143573461Y-96310765D01*
X151775310Y-96310765D01*
X151869850Y-96539569D01*
X152044753Y-96714778D01*
X152273392Y-96809717D01*
X152517229Y-96809930D01*
X154015446Y-98308147D01*
X154130810Y-98385232D01*
X154266893Y-98412300D01*
X156488107Y-98412300D01*
X156503344Y-98488903D01*
X156748168Y-98855306D01*
X157114571Y-99100130D01*
X157546774Y-99186100D01*
X157591026Y-99186100D01*
X158023229Y-99100130D01*
X158389632Y-98855306D01*
X158634456Y-98488903D01*
X158720426Y-98056700D01*
X158634456Y-97624497D01*
X158389632Y-97258094D01*
X158023229Y-97013270D01*
X157591026Y-96927300D01*
X157546774Y-96927300D01*
X157114571Y-97013270D01*
X156748168Y-97258094D01*
X156503344Y-97624497D01*
X156488107Y-97701100D01*
X154414187Y-97701100D01*
X153019914Y-96306827D01*
X153020126Y-96064285D01*
X152925586Y-95835481D01*
X152750683Y-95660272D01*
X152522044Y-95565333D01*
X152274478Y-95565117D01*
X152045674Y-95659657D01*
X151870465Y-95834560D01*
X151775526Y-96063199D01*
X151775310Y-96310765D01*
X143573461Y-96310765D01*
X143573608Y-96142760D01*
X143479068Y-95913956D01*
X143304165Y-95738747D01*
X143075526Y-95643808D01*
X142827960Y-95643592D01*
X142599156Y-95738132D01*
X142423947Y-95913035D01*
X142393400Y-95986600D01*
X140884718Y-95986600D01*
X140713365Y-95814947D01*
X140484726Y-95720008D01*
X140237160Y-95719792D01*
X140008356Y-95814332D01*
X139833147Y-95989235D01*
X139738208Y-96217874D01*
X139737992Y-96465440D01*
X134034941Y-96465440D01*
X134259632Y-96315306D01*
X134504456Y-95948903D01*
X134590426Y-95516700D01*
X156417374Y-95516700D01*
X156503344Y-95948903D01*
X156748168Y-96315306D01*
X157114571Y-96560130D01*
X157546774Y-96646100D01*
X157591026Y-96646100D01*
X158023229Y-96560130D01*
X158389632Y-96315306D01*
X158634456Y-95948903D01*
X158720426Y-95516700D01*
X158634456Y-95084497D01*
X158389632Y-94718094D01*
X158023229Y-94473270D01*
X157591026Y-94387300D01*
X157546774Y-94387300D01*
X157114571Y-94473270D01*
X156748168Y-94718094D01*
X156503344Y-95084497D01*
X156417374Y-95516700D01*
X134590426Y-95516700D01*
X134504456Y-95084497D01*
X134259632Y-94718094D01*
X133893229Y-94473270D01*
X133461026Y-94387300D01*
X133416774Y-94387300D01*
X132984571Y-94473270D01*
X132618168Y-94718094D01*
X132373344Y-95084497D01*
X132287374Y-95516700D01*
X130975300Y-95516700D01*
X130975300Y-92976700D01*
X132287374Y-92976700D01*
X132373344Y-93408903D01*
X132618168Y-93775306D01*
X132984571Y-94020130D01*
X133416774Y-94106100D01*
X133461026Y-94106100D01*
X133893229Y-94020130D01*
X134259632Y-93775306D01*
X134504456Y-93408903D01*
X134590426Y-92976700D01*
X134551786Y-92782440D01*
X144690992Y-92782440D01*
X144785532Y-93011244D01*
X144960435Y-93186453D01*
X145189074Y-93281392D01*
X145436640Y-93281608D01*
X145665444Y-93187068D01*
X145840653Y-93012165D01*
X145855379Y-92976700D01*
X156417374Y-92976700D01*
X156503344Y-93408903D01*
X156748168Y-93775306D01*
X157114571Y-94020130D01*
X157546774Y-94106100D01*
X157591026Y-94106100D01*
X158023229Y-94020130D01*
X158389632Y-93775306D01*
X158634456Y-93408903D01*
X158720426Y-92976700D01*
X158634456Y-92544497D01*
X158389632Y-92178094D01*
X158023229Y-91933270D01*
X157591026Y-91847300D01*
X157546774Y-91847300D01*
X157114571Y-91933270D01*
X156748168Y-92178094D01*
X156503344Y-92544497D01*
X156417374Y-92976700D01*
X145855379Y-92976700D01*
X145935592Y-92783526D01*
X145935808Y-92535960D01*
X145841268Y-92307156D01*
X145669000Y-92134587D01*
X145669000Y-88077726D01*
X145691193Y-88068556D01*
X145866402Y-87893653D01*
X145961341Y-87665014D01*
X145961557Y-87417448D01*
X145867017Y-87188644D01*
X145692114Y-87013435D01*
X145463475Y-86918496D01*
X145215909Y-86918280D01*
X144987105Y-87012820D01*
X144811896Y-87187723D01*
X144716957Y-87416362D01*
X144716741Y-87663928D01*
X144811281Y-87892732D01*
X144957800Y-88039507D01*
X144957800Y-92134882D01*
X144786147Y-92306235D01*
X144691208Y-92534874D01*
X144690992Y-92782440D01*
X134551786Y-92782440D01*
X134504456Y-92544497D01*
X134259632Y-92178094D01*
X133893229Y-91933270D01*
X133461026Y-91847300D01*
X133416774Y-91847300D01*
X132984571Y-91933270D01*
X132618168Y-92178094D01*
X132373344Y-92544497D01*
X132287374Y-92976700D01*
X130975300Y-92976700D01*
X130975300Y-89586700D01*
X132304027Y-89586700D01*
X132304027Y-91286700D01*
X132323509Y-91390239D01*
X132384701Y-91485334D01*
X132478068Y-91549129D01*
X132588900Y-91571573D01*
X134288900Y-91571573D01*
X134392439Y-91552091D01*
X134487534Y-91490899D01*
X134551329Y-91397532D01*
X134573773Y-91286700D01*
X134573773Y-91004440D01*
X138658482Y-91004440D01*
X138753022Y-91233244D01*
X138927925Y-91408453D01*
X139156564Y-91503392D01*
X139404130Y-91503608D01*
X139467546Y-91477405D01*
X139534890Y-91490800D01*
X140217082Y-91490800D01*
X140388435Y-91662453D01*
X140617074Y-91757392D01*
X140864640Y-91757608D01*
X141093444Y-91663068D01*
X141268653Y-91488165D01*
X141363592Y-91259526D01*
X141363808Y-91011960D01*
X141269268Y-90783156D01*
X141113466Y-90627081D01*
X141268653Y-90472165D01*
X141363592Y-90243526D01*
X141363808Y-89995960D01*
X141269268Y-89767156D01*
X141097000Y-89594587D01*
X141097000Y-88230518D01*
X141268653Y-88059165D01*
X141363592Y-87830526D01*
X141363808Y-87582960D01*
X141269268Y-87354156D01*
X141094365Y-87178947D01*
X140865726Y-87084008D01*
X140618160Y-87083792D01*
X140389356Y-87178332D01*
X140214147Y-87353235D01*
X140119208Y-87581874D01*
X140118992Y-87829440D01*
X140213532Y-88058244D01*
X140385800Y-88230813D01*
X140385800Y-89594882D01*
X140214147Y-89766235D01*
X140119208Y-89994874D01*
X140118992Y-90242440D01*
X140213532Y-90471244D01*
X140369334Y-90627319D01*
X140216787Y-90779600D01*
X139903279Y-90779600D01*
X139903298Y-90757960D01*
X139808758Y-90529156D01*
X139633855Y-90353947D01*
X139405216Y-90259008D01*
X139157650Y-90258792D01*
X138928846Y-90353332D01*
X138753637Y-90528235D01*
X138658698Y-90756874D01*
X138658482Y-91004440D01*
X134573773Y-91004440D01*
X134573773Y-89586700D01*
X134554291Y-89483161D01*
X134493099Y-89388066D01*
X134399732Y-89324271D01*
X134288900Y-89301827D01*
X132588900Y-89301827D01*
X132485361Y-89321309D01*
X132390266Y-89382501D01*
X132326471Y-89475868D01*
X132304027Y-89586700D01*
X130975300Y-89586700D01*
X130975300Y-79292450D01*
X133173900Y-79292450D01*
X133173900Y-80033010D01*
X133270573Y-80266399D01*
X133449202Y-80445027D01*
X133682591Y-80541700D01*
X134423150Y-80541700D01*
X134581900Y-80382950D01*
X134581900Y-79133700D01*
X133332650Y-79133700D01*
X133173900Y-79292450D01*
X130975300Y-79292450D01*
X130975300Y-77980390D01*
X133173900Y-77980390D01*
X133173900Y-78720950D01*
X133332650Y-78879700D01*
X134581900Y-78879700D01*
X134581900Y-77630450D01*
X134835900Y-77630450D01*
X134835900Y-78879700D01*
X134855900Y-78879700D01*
X134855900Y-79133700D01*
X134835900Y-79133700D01*
X134835900Y-80382950D01*
X134994650Y-80541700D01*
X135735209Y-80541700D01*
X135968598Y-80445027D01*
X136147227Y-80266399D01*
X136243900Y-80033010D01*
X136243900Y-79662844D01*
X136248470Y-79673904D01*
X136579951Y-80005964D01*
X137013274Y-80185895D01*
X137482468Y-80186304D01*
X137916104Y-80007130D01*
X138248164Y-79675649D01*
X138407281Y-79292450D01*
X139523900Y-79292450D01*
X139523900Y-80033010D01*
X139620573Y-80266399D01*
X139799202Y-80445027D01*
X140032591Y-80541700D01*
X140773150Y-80541700D01*
X140931900Y-80382950D01*
X140931900Y-79133700D01*
X139682650Y-79133700D01*
X139523900Y-79292450D01*
X138407281Y-79292450D01*
X138428095Y-79242326D01*
X138428504Y-78773132D01*
X138249330Y-78339496D01*
X137917849Y-78007436D01*
X137852715Y-77980390D01*
X139523900Y-77980390D01*
X139523900Y-78720950D01*
X139682650Y-78879700D01*
X140931900Y-78879700D01*
X140931900Y-77630450D01*
X141185900Y-77630450D01*
X141185900Y-78879700D01*
X141205900Y-78879700D01*
X141205900Y-79133700D01*
X141185900Y-79133700D01*
X141185900Y-80382950D01*
X141344650Y-80541700D01*
X142085209Y-80541700D01*
X142318598Y-80445027D01*
X142497227Y-80266399D01*
X142593900Y-80033010D01*
X142593900Y-79662844D01*
X142598470Y-79673904D01*
X142929951Y-80005964D01*
X143363274Y-80185895D01*
X143832468Y-80186304D01*
X144266104Y-80007130D01*
X144598164Y-79675649D01*
X144757281Y-79292450D01*
X145873900Y-79292450D01*
X145873900Y-80033010D01*
X145970573Y-80266399D01*
X146149202Y-80445027D01*
X146382591Y-80541700D01*
X147123150Y-80541700D01*
X147281900Y-80382950D01*
X147281900Y-79133700D01*
X146032650Y-79133700D01*
X145873900Y-79292450D01*
X144757281Y-79292450D01*
X144778095Y-79242326D01*
X144778504Y-78773132D01*
X144599330Y-78339496D01*
X144267849Y-78007436D01*
X144202715Y-77980390D01*
X145873900Y-77980390D01*
X145873900Y-78720950D01*
X146032650Y-78879700D01*
X147281900Y-78879700D01*
X147281900Y-77630450D01*
X147535900Y-77630450D01*
X147535900Y-78879700D01*
X147555900Y-78879700D01*
X147555900Y-79133700D01*
X147535900Y-79133700D01*
X147535900Y-80382950D01*
X147694650Y-80541700D01*
X148435209Y-80541700D01*
X148668598Y-80445027D01*
X148847227Y-80266399D01*
X148943900Y-80033010D01*
X148943900Y-79662844D01*
X148948470Y-79673904D01*
X149279951Y-80005964D01*
X149713274Y-80185895D01*
X150182468Y-80186304D01*
X150616104Y-80007130D01*
X150948164Y-79675649D01*
X151107281Y-79292450D01*
X152223900Y-79292450D01*
X152223900Y-80033010D01*
X152320573Y-80266399D01*
X152499202Y-80445027D01*
X152732591Y-80541700D01*
X153473150Y-80541700D01*
X153631900Y-80382950D01*
X153631900Y-79133700D01*
X152382650Y-79133700D01*
X152223900Y-79292450D01*
X151107281Y-79292450D01*
X151128095Y-79242326D01*
X151128504Y-78773132D01*
X150949330Y-78339496D01*
X150617849Y-78007436D01*
X150552715Y-77980390D01*
X152223900Y-77980390D01*
X152223900Y-78720950D01*
X152382650Y-78879700D01*
X153631900Y-78879700D01*
X153631900Y-77630450D01*
X153885900Y-77630450D01*
X153885900Y-78879700D01*
X153905900Y-78879700D01*
X153905900Y-79133700D01*
X153885900Y-79133700D01*
X153885900Y-80382950D01*
X154044650Y-80541700D01*
X154785209Y-80541700D01*
X155018598Y-80445027D01*
X155197227Y-80266399D01*
X155293900Y-80033010D01*
X155293900Y-79662844D01*
X155298470Y-79673904D01*
X155629951Y-80005964D01*
X156063274Y-80185895D01*
X156532468Y-80186304D01*
X156966104Y-80007130D01*
X157298164Y-79675649D01*
X157478095Y-79242326D01*
X157478504Y-78773132D01*
X157299330Y-78339496D01*
X156967849Y-78007436D01*
X156534526Y-77827505D01*
X156065332Y-77827096D01*
X155631696Y-78006270D01*
X155299636Y-78337751D01*
X155293900Y-78351565D01*
X155293900Y-77980390D01*
X155197227Y-77747001D01*
X155018598Y-77568373D01*
X154785209Y-77471700D01*
X154044650Y-77471700D01*
X153885900Y-77630450D01*
X153631900Y-77630450D01*
X153473150Y-77471700D01*
X152732591Y-77471700D01*
X152499202Y-77568373D01*
X152320573Y-77747001D01*
X152223900Y-77980390D01*
X150552715Y-77980390D01*
X150184526Y-77827505D01*
X149715332Y-77827096D01*
X149281696Y-78006270D01*
X148949636Y-78337751D01*
X148943900Y-78351565D01*
X148943900Y-77980390D01*
X148847227Y-77747001D01*
X148668598Y-77568373D01*
X148435209Y-77471700D01*
X147694650Y-77471700D01*
X147535900Y-77630450D01*
X147281900Y-77630450D01*
X147123150Y-77471700D01*
X146382591Y-77471700D01*
X146149202Y-77568373D01*
X145970573Y-77747001D01*
X145873900Y-77980390D01*
X144202715Y-77980390D01*
X143834526Y-77827505D01*
X143365332Y-77827096D01*
X142931696Y-78006270D01*
X142599636Y-78337751D01*
X142593900Y-78351565D01*
X142593900Y-77980390D01*
X142497227Y-77747001D01*
X142318598Y-77568373D01*
X142085209Y-77471700D01*
X141344650Y-77471700D01*
X141185900Y-77630450D01*
X140931900Y-77630450D01*
X140773150Y-77471700D01*
X140032591Y-77471700D01*
X139799202Y-77568373D01*
X139620573Y-77747001D01*
X139523900Y-77980390D01*
X137852715Y-77980390D01*
X137484526Y-77827505D01*
X137015332Y-77827096D01*
X136581696Y-78006270D01*
X136249636Y-78337751D01*
X136243900Y-78351565D01*
X136243900Y-77980390D01*
X136147227Y-77747001D01*
X135968598Y-77568373D01*
X135735209Y-77471700D01*
X134994650Y-77471700D01*
X134835900Y-77630450D01*
X134581900Y-77630450D01*
X134423150Y-77471700D01*
X133682591Y-77471700D01*
X133449202Y-77568373D01*
X133270573Y-77747001D01*
X133173900Y-77980390D01*
X130975300Y-77980390D01*
X130975300Y-76454100D01*
X160289500Y-76454100D01*
X160289500Y-81996471D01*
M02*
